STARTFONT 2.1
FONT -FontForge-Source Sans Pro-Book-I-Normal-SansPro--20-200-72-72-P-86-ISO10646-1
SIZE 20 72 72
FONTBOUNDINGBOX 26 25 -4 -6
COMMENT "Generated by fontforge, http://fontforge.sourceforge.net"
COMMENT "Copyright 2010, 2012, 2014 Adobe Systems Incorporated (http://www.adobe.com/), with Reserved Font Name `Source'."
STARTPROPERTIES 41
FOUNDRY "FontForge"
FAMILY_NAME "Source Sans Pro"
WEIGHT_NAME "Book"
SLANT "I"
SETWIDTH_NAME "Normal"
ADD_STYLE_NAME "SansPro"
PIXEL_SIZE 20
POINT_SIZE 200
RESOLUTION_X 72
RESOLUTION_Y 72
SPACING "P"
AVERAGE_WIDTH 86
CHARSET_REGISTRY "ISO10646"
CHARSET_ENCODING "1"
FONTNAME_REGISTRY ""
CHARSET_COLLECTIONS "ISO8859-2 ISO8859-9 ISO8859-4 ISO10646-1"
FONT_NAME "SourceSansPro-Italic"
FACE_NAME "Source Sans Pro Italic"
COPYRIGHT "Copyright 2010, 2012, 2014 Adobe Systems Incorporated (http://www.adobe.com/), with Reserved Font Name `Source'."
FONT_VERSION "1.076;PS 2.000;hotconv 1.0.86;makeotf.lib2.5.63406"
FONT_ASCENT 15
FONT_DESCENT 5
UNDERLINE_POSITION -2
UNDERLINE_THICKNESS 1
X_HEIGHT 9
CAP_HEIGHT 12
RAW_ASCENT 750
RAW_DESCENT 250
ITALIC_ANGLE 5056
NORM_SPACE 4
RELATIVE_WEIGHT 40
RELATIVE_SETWIDTH 50
SUPERSCRIPT_X 1
SUPERSCRIPT_Y 7
SUPERSCRIPT_SIZE 12
SUBSCRIPT_X 0
SUBSCRIPT_Y 1
SUBSCRIPT_SIZE 12
FIGURE_WIDTH 10
AVG_LOWERCASE_WIDTH 96
AVG_UPPERCASE_WIDTH 108
ENDPROPERTIES
CHARS 856
STARTCHAR space
ENCODING 32
SWIDTH 192 0
DWIDTH 4 0
BBX 1 1 0 0
BITMAP
00
ENDCHAR
STARTCHAR exclam
ENCODING 33
SWIDTH 282 0
DWIDTH 6 0
BBX 4 13 1 0
BITMAP
10
30
30
20
20
20
60
40
40
00
00
C0
C0
ENDCHAR
STARTCHAR quotedbl
ENCODING 34
SWIDTH 408 0
DWIDTH 8 0
BBX 5 5 3 8
BITMAP
C8
D8
98
90
90
ENDCHAR
STARTCHAR numbersign
ENCODING 35
SWIDTH 479 0
DWIDTH 10 0
BBX 10 13 0 0
BITMAP
0480
0880
0880
0900
3FC0
1100
1200
1200
7F80
A400
2400
4400
4C00
ENDCHAR
STARTCHAR dollar
ENCODING 36
SWIDTH 480 0
DWIDTH 10 0
BBX 9 17 0 -2
BITMAP
0200
0200
0F00
1980
3000
3000
3000
1C00
0E00
0700
0300
0100
8300
C200
3C00
1000
1000
ENDCHAR
STARTCHAR percent
ENCODING 37
SWIDTH 791 0
DWIDTH 16 0
BBX 14 14 1 0
BITMAP
0010
3820
6420
4440
C480
8480
8538
CA4C
76C4
0484
0884
108C
1088
2070
ENDCHAR
STARTCHAR ampersand
ENCODING 38
SWIDTH 582 0
DWIDTH 12 0
BBX 12 13 0 0
BITMAP
0700
0980
1880
1900
1B00
0C00
1830
6C60
4440
C680
C380
43C0
3C60
ENDCHAR
STARTCHAR quotesingle
ENCODING 39
SWIDTH 242 0
DWIDTH 5 0
BBX 2 5 3 8
BITMAP
C0
C0
80
80
80
ENDCHAR
STARTCHAR parenleft
ENCODING 40
SWIDTH 291 0
DWIDTH 6 0
BBX 6 18 1 -3
BITMAP
04
08
10
10
20
20
40
40
40
C0
C0
C0
C0
C0
40
40
40
40
ENDCHAR
STARTCHAR parenright
ENCODING 41
SWIDTH 293 0
DWIDTH 6 0
BBX 6 18 -1 -3
BITMAP
08
08
08
08
0C
0C
0C
0C
0C
08
08
18
10
10
20
20
40
80
ENDCHAR
STARTCHAR asterisk
ENCODING 42
SWIDTH 403 0
DWIDTH 8 0
BBX 6 6 2 8
BITMAP
10
90
7C
30
78
48
ENDCHAR
STARTCHAR plus
ENCODING 43
SWIDTH 480 0
DWIDTH 10 0
BBX 8 9 1 2
BITMAP
18
18
18
18
FF
18
18
18
18
ENDCHAR
STARTCHAR comma
ENCODING 44
SWIDTH 242 0
DWIDTH 5 0
BBX 4 5 -1 -3
BITMAP
30
30
30
20
C0
ENDCHAR
STARTCHAR hyphen
ENCODING 45
SWIDTH 299 0
DWIDTH 6 0
BBX 4 1 1 5
BITMAP
F0
ENDCHAR
STARTCHAR period
ENCODING 46
SWIDTH 242 0
DWIDTH 5 0
BBX 3 2 0 0
BITMAP
60
C0
ENDCHAR
STARTCHAR slash
ENCODING 47
SWIDTH 340 0
DWIDTH 7 0
BBX 9 17 -1 -3
BITMAP
0080
0180
0100
0300
0200
0600
0400
0C00
0800
1000
1000
2000
2000
4000
4000
8000
8000
ENDCHAR
STARTCHAR zero
ENCODING 48
SWIDTH 480 0
DWIDTH 10 0
BBX 8 13 1 0
BITMAP
1E
33
61
41
41
C1
81
83
83
82
86
CC
78
ENDCHAR
STARTCHAR one
ENCODING 49
SWIDTH 480 0
DWIDTH 10 0
BBX 7 13 1 0
BITMAP
0C
3C
0C
0C
0C
08
08
18
18
18
10
10
FE
ENDCHAR
STARTCHAR two
ENCODING 50
SWIDTH 480 0
DWIDTH 10 0
BBX 9 13 0 0
BITMAP
1F00
3180
0180
0080
0180
0180
0300
0600
0C00
1800
3000
6000
FF00
ENDCHAR
STARTCHAR three
ENCODING 51
SWIDTH 480 0
DWIDTH 10 0
BBX 9 13 0 0
BITMAP
1F00
3180
0080
0080
0180
0300
1C00
0300
0100
0100
8100
C300
7C00
ENDCHAR
STARTCHAR four
ENCODING 52
SWIDTH 480 0
DWIDTH 10 0
BBX 9 13 0 0
BITMAP
0180
0380
0700
0D00
1900
1300
2300
4200
FF80
0200
0600
0600
0400
ENDCHAR
STARTCHAR five
ENCODING 53
SWIDTH 480 0
DWIDTH 10 0
BBX 9 13 0 0
BITMAP
1F80
1000
1000
1000
3000
3E00
2300
0100
0100
0100
8300
C600
7C00
ENDCHAR
STARTCHAR six
ENCODING 54
SWIDTH 480 0
DWIDTH 10 0
BBX 9 13 1 0
BITMAP
0F00
1180
2000
6000
4000
DC00
E200
8300
8300
C300
C200
4600
3800
ENDCHAR
STARTCHAR seven
ENCODING 55
SWIDTH 480 0
DWIDTH 10 0
BBX 8 13 2 0
BITMAP
FF
02
04
0C
08
10
30
30
20
60
60
40
C0
ENDCHAR
STARTCHAR eight
ENCODING 56
SWIDTH 480 0
DWIDTH 10 0
BBX 8 13 1 0
BITMAP
1E
31
21
21
33
1E
7C
C6
83
83
83
C6
7C
ENDCHAR
STARTCHAR nine
ENCODING 57
SWIDTH 480 0
DWIDTH 10 0
BBX 9 13 0 0
BITMAP
0E00
1100
2180
2080
6080
2080
3180
1F80
0100
0100
0200
4600
F800
ENDCHAR
STARTCHAR colon
ENCODING 58
SWIDTH 242 0
DWIDTH 5 0
BBX 4 9 0 0
BITMAP
30
30
00
00
00
00
00
60
C0
ENDCHAR
STARTCHAR semicolon
ENCODING 59
SWIDTH 242 0
DWIDTH 5 0
BBX 5 12 -1 -3
BITMAP
18
18
00
00
00
00
00
30
30
30
20
C0
ENDCHAR
STARTCHAR less
ENCODING 60
SWIDTH 480 0
DWIDTH 10 0
BBX 8 8 1 2
BITMAP
01
0F
38
E0
E0
3C
07
01
ENDCHAR
STARTCHAR equal
ENCODING 61
SWIDTH 480 0
DWIDTH 10 0
BBX 8 5 1 4
BITMAP
FF
00
00
00
FF
ENDCHAR
STARTCHAR greater
ENCODING 62
SWIDTH 480 0
DWIDTH 10 0
BBX 8 8 1 2
BITMAP
80
F0
1C
03
07
1C
E0
80
ENDCHAR
STARTCHAR question
ENCODING 63
SWIDTH 409 0
DWIDTH 8 0
BBX 6 13 2 0
BITMAP
78
CC
04
04
0C
18
30
60
40
00
00
C0
C0
ENDCHAR
STARTCHAR at
ENCODING 64
SWIDTH 814 0
DWIDTH 16 0
BBX 15 16 1 -3
BITMAP
03E0
0C18
100C
2004
63E4
4646
CC46
8844
88C4
8884
88C8
8770
C000
4000
3080
1F80
ENDCHAR
STARTCHAR A
ENCODING 65
SWIDTH 510 0
DWIDTH 10 0
BBX 10 13 -1 0
BITMAP
0180
0380
0280
0680
0480
0CC0
18C0
18C0
3FC0
30C0
6040
4040
C040
ENDCHAR
STARTCHAR B
ENCODING 66
SWIDTH 583 0
DWIDTH 12 0
BBX 10 13 1 0
BITMAP
3F00
30C0
20C0
20C0
6080
6180
7F00
4180
4080
C080
C080
C300
FE00
ENDCHAR
STARTCHAR C
ENCODING 67
SWIDTH 550 0
DWIDTH 11 0
BBX 10 13 1 0
BITMAP
0780
18C0
3000
6000
4000
C000
C000
C000
C000
C000
4000
6100
1E80
ENDCHAR
STARTCHAR D
ENCODING 68
SWIDTH 592 0
DWIDTH 12 0
BBX 10 13 1 0
BITMAP
3F00
3180
20C0
2040
6040
6040
6040
40C0
40C0
C080
C180
C300
FC00
ENDCHAR
STARTCHAR E
ENCODING 69
SWIDTH 503 0
DWIDTH 10 0
BBX 10 13 1 0
BITMAP
3FC0
3000
2000
2000
6000
6000
7F00
4000
4000
C000
C000
C000
FE00
ENDCHAR
STARTCHAR F
ENCODING 70
SWIDTH 473 0
DWIDTH 9 0
BBX 10 13 1 0
BITMAP
3FC0
3000
2000
2000
6000
6000
7F00
4000
4000
C000
C000
C000
8000
ENDCHAR
STARTCHAR G
ENCODING 71
SWIDTH 588 0
DWIDTH 12 0
BBX 10 13 1 0
BITMAP
0780
1840
3000
6000
4000
C000
C3C0
C4C0
C080
C080
4080
6180
1E00
ENDCHAR
STARTCHAR H
ENCODING 72
SWIDTH 622 0
DWIDTH 12 0
BBX 11 13 1 0
BITMAP
3020
3020
2060
2060
6040
6040
7FC0
40C0
40C0
C080
C080
C180
8180
ENDCHAR
STARTCHAR I
ENCODING 73
SWIDTH 252 0
DWIDTH 5 0
BBX 4 13 1 0
BITMAP
30
30
20
20
60
60
60
40
40
C0
C0
C0
80
ENDCHAR
STARTCHAR J
ENCODING 74
SWIDTH 456 0
DWIDTH 9 0
BBX 9 13 0 0
BITMAP
0180
0180
0180
0100
0100
0300
0300
0300
0200
0200
8600
C400
7800
ENDCHAR
STARTCHAR K
ENCODING 75
SWIDTH 559 0
DWIDTH 11 0
BBX 11 13 1 0
BITMAP
3060
30C0
2180
2300
6600
6C00
7600
6600
4200
C300
C100
C100
8180
ENDCHAR
STARTCHAR L
ENCODING 76
SWIDTH 462 0
DWIDTH 9 0
BBX 7 13 1 0
BITMAP
30
30
20
20
60
60
60
40
40
C0
C0
C0
FE
ENDCHAR
STARTCHAR M
ENCODING 77
SWIDTH 705 0
DWIDTH 14 0
BBX 13 13 1 0
BITMAP
3018
3038
3830
2850
6850
68B0
48B0
4920
4F20
C620
C460
8460
8040
ENDCHAR
STARTCHAR N
ENCODING 78
SWIDTH 619 0
DWIDTH 12 0
BBX 11 13 1 0
BITMAP
3020
3060
3860
2860
6840
6C40
44C0
46C0
42C0
C280
C380
C180
8180
ENDCHAR
STARTCHAR O
ENCODING 79
SWIDTH 633 0
DWIDTH 13 0
BBX 11 13 1 0
BITMAP
0F80
18C0
3060
6060
4020
C020
C060
C060
C060
C0C0
4080
6100
1E00
ENDCHAR
STARTCHAR P
ENCODING 80
SWIDTH 550 0
DWIDTH 11 0
BBX 10 13 1 0
BITMAP
3F80
30C0
20C0
2040
60C0
60C0
6180
7E00
4000
C000
C000
C000
8000
ENDCHAR
STARTCHAR Q
ENCODING 81
SWIDTH 633 0
DWIDTH 13 0
BBX 11 16 1 -3
BITMAP
0F80
18C0
3060
6060
4020
4020
C060
C060
C060
C0C0
4080
6180
3E00
0800
0C00
0380
ENDCHAR
STARTCHAR R
ENCODING 82
SWIDTH 555 0
DWIDTH 11 0
BBX 10 13 1 0
BITMAP
3F80
30C0
20C0
20C0
60C0
6180
7F00
4400
4600
C200
C200
C300
8100
ENDCHAR
STARTCHAR S
ENCODING 83
SWIDTH 506 0
DWIDTH 10 0
BBX 10 13 0 0
BITMAP
0F80
18C0
1000
3000
1800
1C00
0700
0380
0180
0080
4180
E100
3E00
ENDCHAR
STARTCHAR T
ENCODING 84
SWIDTH 510 0
DWIDTH 10 0
BBX 9 13 2 0
BITMAP
FF80
0800
1800
1800
1800
1000
1000
3000
3000
3000
2000
2000
6000
ENDCHAR
STARTCHAR U
ENCODING 85
SWIDTH 616 0
DWIDTH 12 0
BBX 10 13 2 0
BITMAP
6040
60C0
40C0
40C0
C080
C080
C180
8180
8100
8100
8300
C600
7C00
ENDCHAR
STARTCHAR V
ENCODING 86
SWIDTH 496 0
DWIDTH 10 0
BBX 10 13 2 0
BITMAP
80C0
8180
8100
8300
C200
C600
C400
CC00
C800
D800
5000
6000
6000
ENDCHAR
STARTCHAR W
ENCODING 87
SWIDTH 756 0
DWIDTH 15 0
BBX 14 13 2 0
BITMAP
C304
C30C
C708
C518
CD10
C910
C930
9120
9160
A140
A140
E180
C180
ENDCHAR
STARTCHAR X
ENCODING 88
SWIDTH 494 0
DWIDTH 10 0
BBX 12 13 -1 0
BITMAP
1830
0860
0C40
0C80
0580
0700
0600
0F00
0B00
1100
3180
6180
C0C0
ENDCHAR
STARTCHAR Y
ENCODING 89
SWIDTH 461 0
DWIDTH 9 0
BBX 9 13 2 0
BITMAP
8180
C300
C200
4400
4C00
6800
7000
3000
2000
6000
6000
6000
4000
ENDCHAR
STARTCHAR Z
ENCODING 90
SWIDTH 512 0
DWIDTH 10 0
BBX 11 13 0 0
BITMAP
1FE0
00C0
0080
0100
0300
0600
0400
0C00
1800
3000
2000
6000
FF80
ENDCHAR
STARTCHAR bracketleft
ENCODING 91
SWIDTH 292 0
DWIDTH 6 0
BBX 7 17 0 -3
BITMAP
1E
10
10
10
10
30
20
20
20
20
60
40
40
40
40
C0
F0
ENDCHAR
STARTCHAR backslash
ENCODING 92
SWIDTH 340 0
DWIDTH 7 0
BBX 3 17 2 -3
BITMAP
80
80
80
80
80
40
40
40
40
40
40
40
60
20
20
20
20
ENDCHAR
STARTCHAR bracketright
ENCODING 93
SWIDTH 293 0
DWIDTH 6 0
BBX 7 17 -1 -3
BITMAP
1E
06
04
04
04
04
0C
08
08
08
08
18
10
10
10
10
F0
ENDCHAR
STARTCHAR asciicircum
ENCODING 94
SWIDTH 479 0
DWIDTH 10 0
BBX 7 8 2 5
BITMAP
30
30
28
68
4C
44
84
86
ENDCHAR
STARTCHAR underscore
ENCODING 95
SWIDTH 483 0
DWIDTH 10 0
BBX 10 1 -1 -2
BITMAP
FFC0
ENDCHAR
STARTCHAR grave
ENCODING 96
SWIDTH 517 0
DWIDTH 10 0
BBX 3 4 5 12
BITMAP
80
C0
60
20
ENDCHAR
STARTCHAR a
ENCODING 97
SWIDTH 537 0
DWIDTH 11 0
BBX 9 10 1 0
BITMAP
1E80
3380
6180
C100
C100
8100
8300
8300
C600
7A00
ENDCHAR
STARTCHAR b
ENCODING 98
SWIDTH 536 0
DWIDTH 11 0
BBX 9 14 1 0
BITMAP
3000
3000
2000
2000
2F00
7180
6180
4180
4180
4180
C100
C300
C600
BC00
ENDCHAR
STARTCHAR c
ENCODING 99
SWIDTH 435 0
DWIDTH 9 0
BBX 8 10 1 0
BITMAP
1E
33
40
C0
C0
80
80
80
C4
7C
ENDCHAR
STARTCHAR d
ENCODING 100
SWIDTH 535 0
DWIDTH 11 0
BBX 10 14 1 0
BITMAP
00C0
00C0
00C0
0080
1E80
3380
6180
C100
C100
8100
8300
8300
C600
7A00
ENDCHAR
STARTCHAR e
ENCODING 101
SWIDTH 481 0
DWIDTH 10 0
BBX 8 10 1 0
BITMAP
1E
23
41
C1
FF
80
80
C0
C4
7E
ENDCHAR
STARTCHAR f
ENCODING 102
SWIDTH 282 0
DWIDTH 6 0
BBX 7 14 1 0
BITMAP
1E
10
30
20
F8
60
60
60
40
40
40
C0
C0
80
ENDCHAR
STARTCHAR g
ENCODING 103
SWIDTH 531 0
DWIDTH 11 0
BBX 10 14 0 -4
BITMAP
0E40
19C0
3080
6080
6080
4180
4180
4100
6300
3D00
0300
0200
C600
7C00
ENDCHAR
STARTCHAR h
ENCODING 104
SWIDTH 519 0
DWIDTH 10 0
BBX 8 14 1 0
BITMAP
30
30
20
20
2F
71
61
41
41
43
C3
C3
82
82
ENDCHAR
STARTCHAR i
ENCODING 105
SWIDTH 237 0
DWIDTH 5 0
BBX 4 14 1 0
BITMAP
30
30
00
00
60
60
60
40
40
C0
C0
C0
80
80
ENDCHAR
STARTCHAR j
ENCODING 106
SWIDTH 238 0
DWIDTH 5 0
BBX 7 18 -2 -4
BITMAP
06
06
00
00
0C
0C
0C
08
08
18
18
18
10
10
30
30
20
E0
ENDCHAR
STARTCHAR k
ENCODING 107
SWIDTH 476 0
DWIDTH 10 0
BBX 9 14 1 0
BITMAP
3000
3000
2000
2000
2180
6200
6600
4C00
5800
7C00
EC00
C400
8600
8200
ENDCHAR
STARTCHAR l
ENCODING 108
SWIDTH 248 0
DWIDTH 5 0
BBX 4 14 1 0
BITMAP
30
30
20
20
20
60
60
40
40
40
C0
C0
80
C0
ENDCHAR
STARTCHAR m
ENCODING 109
SWIDTH 799 0
DWIDTH 16 0
BBX 14 10 1 0
BITMAP
6F38
734C
618C
410C
430C
C308
C208
C218
8218
8618
ENDCHAR
STARTCHAR n
ENCODING 110
SWIDTH 525 0
DWIDTH 11 0
BBX 8 10 1 0
BITMAP
6F
71
61
41
41
C3
C3
C3
82
82
ENDCHAR
STARTCHAR o
ENCODING 111
SWIDTH 515 0
DWIDTH 10 0
BBX 9 10 1 0
BITMAP
1E00
2300
4100
C100
C180
8100
8300
8200
C600
7800
ENDCHAR
STARTCHAR p
ENCODING 112
SWIDTH 535 0
DWIDTH 11 0
BBX 10 14 0 -4
BITMAP
3780
38C0
30C0
20C0
20C0
60C0
6080
6180
6300
5E00
C000
C000
C000
8000
ENDCHAR
STARTCHAR q
ENCODING 113
SWIDTH 537 0
DWIDTH 11 0
BBX 9 14 1 -4
BITMAP
1E80
3380
6180
C100
C100
8100
8300
8300
C600
7A00
0200
0600
0600
0400
ENDCHAR
STARTCHAR r
ENCODING 114
SWIDTH 342 0
DWIDTH 7 0
BBX 7 10 1 0
BITMAP
6E
70
60
40
40
C0
C0
C0
80
80
ENDCHAR
STARTCHAR s
ENCODING 115
SWIDTH 402 0
DWIDTH 8 0
BBX 8 10 0 0
BITMAP
1E
23
60
20
38
0C
06
06
C6
78
ENDCHAR
STARTCHAR t
ENCODING 116
SWIDTH 325 0
DWIDTH 7 0
BBX 6 13 1 0
BITMAP
10
30
30
FC
20
60
60
40
40
40
C0
C0
78
ENDCHAR
STARTCHAR u
ENCODING 117
SWIDTH 528 0
DWIDTH 11 0
BBX 9 10 1 0
BITMAP
6180
6180
6100
4100
4100
C300
C300
C200
C600
7A00
ENDCHAR
STARTCHAR v
ENCODING 118
SWIDTH 448 0
DWIDTH 9 0
BBX 9 10 1 0
BITMAP
C180
C300
4200
4600
4400
4C00
4800
7800
7000
3000
ENDCHAR
STARTCHAR w
ENCODING 119
SWIDTH 707 0
DWIDTH 14 0
BBX 13 10 1 0
BITMAP
C308
4718
4510
4530
4920
4960
5140
5140
7180
6180
ENDCHAR
STARTCHAR x
ENCODING 120
SWIDTH 429 0
DWIDTH 9 0
BBX 10 10 -1 0
BITMAP
10C0
1880
0900
0B00
0E00
0C00
1E00
3200
6300
C100
ENDCHAR
STARTCHAR y
ENCODING 121
SWIDTH 448 0
DWIDTH 9 0
BBX 11 14 -1 -4
BITMAP
3060
30C0
1080
1180
1100
1B00
1A00
0E00
0C00
0C00
1800
1000
3000
E000
ENDCHAR
STARTCHAR z
ENCODING 122
SWIDTH 410 0
DWIDTH 8 0
BBX 9 10 0 0
BITMAP
3F80
0300
0600
0C00
0800
1800
3000
6000
4000
FE00
ENDCHAR
STARTCHAR braceleft
ENCODING 123
SWIDTH 290 0
DWIDTH 6 0
BBX 6 17 1 -3
BITMAP
1C
10
30
30
20
20
20
60
80
40
40
40
40
80
80
80
E0
ENDCHAR
STARTCHAR bar
ENCODING 124
SWIDTH 231 0
DWIDTH 5 0
BBX 1 20 2 -5
BITMAP
80
80
80
80
80
80
80
80
80
80
80
80
80
80
80
80
80
80
80
80
ENDCHAR
STARTCHAR braceright
ENCODING 125
SWIDTH 293 0
DWIDTH 6 0
BBX 6 17 -1 -3
BITMAP
1C
04
04
04
08
08
08
08
04
18
10
10
10
30
30
20
E0
ENDCHAR
STARTCHAR asciitilde
ENCODING 126
SWIDTH 480 0
DWIDTH 10 0
BBX 8 3 1 5
BITMAP
70
99
0E
ENDCHAR
STARTCHAR uni00A0
ENCODING 160
SWIDTH 192 0
DWIDTH 4 0
BBX 1 1 0 0
BITMAP
00
ENDCHAR
STARTCHAR exclamdown
ENCODING 161
SWIDTH 282 0
DWIDTH 6 0
BBX 5 14 0 -4
BITMAP
18
18
00
00
30
20
20
20
20
60
60
40
40
C0
ENDCHAR
STARTCHAR cent
ENCODING 162
SWIDTH 480 0
DWIDTH 10 0
BBX 8 14 2 0
BITMAP
04
08
1C
7E
4B
C8
88
90
90
D0
F4
7C
20
20
ENDCHAR
STARTCHAR sterling
ENCODING 163
SWIDTH 480 0
DWIDTH 10 0
BBX 10 13 0 0
BITMAP
0780
08C0
1800
1000
1000
1000
7F00
1800
1000
1000
3000
6000
FF00
ENDCHAR
STARTCHAR currency
ENCODING 164
SWIDTH 480 0
DWIDTH 10 0
BBX 10 9 0 2
BITMAP
4080
2FC0
3100
2180
6180
6100
2300
DD00
0180
ENDCHAR
STARTCHAR yen
ENCODING 165
SWIDTH 480 0
DWIDTH 10 0
BBX 10 13 1 0
BITMAP
60C0
6180
2300
2200
3600
1400
1C00
FF00
1800
FF00
1000
3000
3000
ENDCHAR
STARTCHAR brokenbar
ENCODING 166
SWIDTH 231 0
DWIDTH 5 0
BBX 1 20 2 -5
BITMAP
80
80
80
80
80
80
80
80
80
00
00
80
80
80
80
80
80
80
80
80
ENDCHAR
STARTCHAR section
ENCODING 167
SWIDTH 477 0
DWIDTH 10 0
BBX 9 15 0 -1
BITMAP
0F00
1980
1000
1800
1C00
2F00
6300
6180
6180
3900
0E00
0600
0600
C400
7800
ENDCHAR
STARTCHAR dieresis
ENCODING 168
SWIDTH 517 0
DWIDTH 10 0
BBX 6 1 4 12
BITMAP
CC
ENDCHAR
STARTCHAR copyright
ENCODING 169
SWIDTH 665 0
DWIDTH 13 0
BBX 12 13 1 0
BITMAP
0F80
1060
2020
4710
8990
9010
9010
9010
9110
8E20
C040
6180
1F00
ENDCHAR
STARTCHAR ordfeminine
ENCODING 170
SWIDTH 354 0
DWIDTH 7 0
BBX 6 6 2 8
BITMAP
34
CC
88
88
98
E8
ENDCHAR
STARTCHAR guillemotleft
ENCODING 171
SWIDTH 411 0
DWIDTH 8 0
BBX 7 7 1 2
BITMAP
12
64
C8
90
98
48
24
ENDCHAR
STARTCHAR logicalnot
ENCODING 172
SWIDTH 480 0
DWIDTH 10 0
BBX 8 5 1 2
BITMAP
FF
01
01
01
01
ENDCHAR
STARTCHAR uni00AD
ENCODING 173
SWIDTH 299 0
DWIDTH 6 0
BBX 4 1 1 5
BITMAP
F0
ENDCHAR
STARTCHAR registered
ENCODING 174
SWIDTH 406 0
DWIDTH 8 0
BBX 8 8 1 6
BITMAP
1C
3A
55
95
99
AA
46
3C
ENDCHAR
STARTCHAR macron
ENCODING 175
SWIDTH 517 0
DWIDTH 10 0
BBX 5 1 4 12
BITMAP
F8
ENDCHAR
STARTCHAR degree
ENCODING 176
SWIDTH 313 0
DWIDTH 6 0
BBX 5 5 2 9
BITMAP
70
88
88
90
70
ENDCHAR
STARTCHAR plusminus
ENCODING 177
SWIDTH 480 0
DWIDTH 10 0
BBX 8 11 1 0
BITMAP
18
18
18
18
FF
18
18
18
18
00
FF
ENDCHAR
STARTCHAR two.sups
ENCODING 178
SWIDTH 353 0
DWIDTH 7 0
BBX 6 8 2 8
BITMAP
38
48
0C
08
18
30
40
F8
ENDCHAR
STARTCHAR three.sups
ENCODING 179
SWIDTH 351 0
DWIDTH 7 0
BBX 6 8 2 8
BITMAP
78
48
0C
30
18
08
98
70
ENDCHAR
STARTCHAR acute
ENCODING 180
SWIDTH 517 0
DWIDTH 10 0
BBX 5 4 5 12
BITMAP
10
38
60
C0
ENDCHAR
STARTCHAR uni00B5
ENCODING 181
SWIDTH 526 0
DWIDTH 11 0
BBX 10 14 0 -4
BITMAP
30C0
30C0
3080
2080
2080
6180
6180
6100
6300
7D00
C000
C000
C000
8000
ENDCHAR
STARTCHAR paragraph
ENCODING 182
SWIDTH 535 0
DWIDTH 11 0
BBX 9 15 1 -2
BITMAP
1E80
3E80
7D80
7D80
FD80
FD00
7D00
3B00
0B00
0300
0200
0200
0600
0600
0600
ENDCHAR
STARTCHAR periodcentered
ENCODING 183
SWIDTH 242 0
DWIDTH 5 0
BBX 2 2 2 6
BITMAP
C0
C0
ENDCHAR
STARTCHAR cedilla
ENCODING 184
SWIDTH 517 0
DWIDTH 10 0
BBX 3 5 2 -5
BITMAP
20
60
20
20
C0
ENDCHAR
STARTCHAR one.sups
ENCODING 185
SWIDTH 356 0
DWIDTH 7 0
BBX 4 7 3 9
BITMAP
70
A0
20
20
60
60
40
ENDCHAR
STARTCHAR ordmasculine
ENCODING 186
SWIDTH 348 0
DWIDTH 7 0
BBX 6 6 1 8
BITMAP
38
44
C4
84
C8
70
ENDCHAR
STARTCHAR guillemotright
ENCODING 187
SWIDTH 411 0
DWIDTH 8 0
BBX 8 7 0 2
BITMAP
24
26
12
13
32
64
C8
ENDCHAR
STARTCHAR onequarter
ENCODING 188
SWIDTH 748 0
DWIDTH 15 0
BBX 12 14 2 0
BITMAP
0020
7040
A080
2080
2100
6200
6230
4460
08A0
08A0
1120
23F0
4060
C040
ENDCHAR
STARTCHAR onehalf
ENCODING 189
SWIDTH 772 0
DWIDTH 15 0
BBX 12 14 2 0
BITMAP
0060
F040
2080
2100
2100
6200
44F0
4C90
0810
1010
2020
2040
4080
83F0
ENDCHAR
STARTCHAR threequarters
ENCODING 190
SWIDTH 764 0
DWIDTH 15 0
BBX 13 14 1 0
BITMAP
0018
3810
4420
0C40
3040
0880
0918
8928
7228
0450
0490
09F8
1010
2030
ENDCHAR
STARTCHAR questiondown
ENCODING 191
SWIDTH 409 0
DWIDTH 8 0
BBX 6 14 0 -4
BITMAP
0C
0C
00
00
00
08
18
30
60
40
C0
80
C4
78
ENDCHAR
STARTCHAR Agrave
ENCODING 192
SWIDTH 510 0
DWIDTH 10 0
BBX 10 18 -1 0
BITMAP
0200
0300
0180
0080
0000
0180
0380
0280
0680
0480
0CC0
18C0
18C0
3FC0
30C0
6040
4040
C040
ENDCHAR
STARTCHAR Aacute
ENCODING 193
SWIDTH 510 0
DWIDTH 10 0
BBX 11 17 -1 0
BITMAP
0020
00C0
0100
0000
0180
0380
0280
0680
0480
0CC0
18C0
18C0
3FC0
30C0
6040
4040
C040
ENDCHAR
STARTCHAR Acircumflex
ENCODING 194
SWIDTH 510 0
DWIDTH 10 0
BBX 11 17 -1 0
BITMAP
01C0
0340
0420
0000
0180
0380
0280
0680
0480
0CC0
18C0
18C0
3FC0
30C0
6040
4040
C040
ENDCHAR
STARTCHAR Atilde
ENCODING 195
SWIDTH 510 0
DWIDTH 10 0
BBX 12 16 -1 0
BITMAP
07B0
04E0
0800
0180
0380
0280
0680
0480
0CC0
18C0
18C0
3FC0
30C0
6040
4040
C040
ENDCHAR
STARTCHAR Adieresis
ENCODING 196
SWIDTH 510 0
DWIDTH 10 0
BBX 11 16 -1 0
BITMAP
0660
0000
0000
0180
0380
0280
0680
0480
0CC0
18C0
18C0
3FC0
30C0
6040
4040
C040
ENDCHAR
STARTCHAR Aring
ENCODING 197
SWIDTH 510 0
DWIDTH 10 0
BBX 10 18 -1 0
BITMAP
01C0
0240
0240
0180
0000
0180
0380
0280
0680
0480
0CC0
18C0
18C0
3FC0
30C0
6040
4040
C040
ENDCHAR
STARTCHAR AE
ENCODING 198
SWIDTH 803 0
DWIDTH 16 0
BBX 18 13 -1 0
BITMAP
007FC0
00F000
00B000
01A000
032000
026000
067F00
0C6000
0FC000
104000
30C000
60C000
C0FE00
ENDCHAR
STARTCHAR Ccedilla
ENCODING 199
SWIDTH 550 0
DWIDTH 11 0
BBX 10 18 1 -5
BITMAP
0780
18C0
3000
6000
4000
C000
C000
C000
C000
C000
4000
6100
1E80
0800
1800
0C00
0800
3000
ENDCHAR
STARTCHAR Egrave
ENCODING 200
SWIDTH 503 0
DWIDTH 10 0
BBX 10 18 1 0
BITMAP
0800
0C00
0600
0300
0000
3FC0
3000
2000
2000
6000
6000
7F00
4000
4000
C000
C000
C000
FE00
ENDCHAR
STARTCHAR Eacute
ENCODING 201
SWIDTH 503 0
DWIDTH 10 0
BBX 10 17 1 0
BITMAP
0080
0380
0600
0000
3FC0
3000
2000
2000
6000
6000
7F00
4000
4000
C000
C000
C000
FE00
ENDCHAR
STARTCHAR Ecircumflex
ENCODING 202
SWIDTH 503 0
DWIDTH 10 0
BBX 10 17 1 0
BITMAP
0700
0D80
1080
0000
3FC0
3000
2000
2000
6000
6000
7F00
4000
4000
C000
C000
C000
FE00
ENDCHAR
STARTCHAR Edieresis
ENCODING 203
SWIDTH 503 0
DWIDTH 10 0
BBX 10 16 1 0
BITMAP
0980
0000
0000
3FC0
3000
2000
2000
6000
6000
7F00
4000
4000
C000
C000
C000
FE00
ENDCHAR
STARTCHAR Igrave
ENCODING 204
SWIDTH 252 0
DWIDTH 5 0
BBX 5 18 1 0
BITMAP
40
60
30
18
00
30
30
20
20
60
60
60
40
40
C0
C0
C0
80
ENDCHAR
STARTCHAR Iacute
ENCODING 205
SWIDTH 252 0
DWIDTH 5 0
BBX 6 17 1 0
BITMAP
04
1C
30
00
30
30
20
20
60
60
60
40
40
C0
C0
C0
80
ENDCHAR
STARTCHAR Icircumflex
ENCODING 206
SWIDTH 252 0
DWIDTH 5 0
BBX 6 17 1 0
BITMAP
38
6C
84
00
30
30
20
20
60
60
60
40
40
C0
C0
C0
80
ENDCHAR
STARTCHAR Idieresis
ENCODING 207
SWIDTH 252 0
DWIDTH 5 0
BBX 6 16 1 0
BITMAP
4C
00
00
30
30
20
20
60
60
60
40
40
C0
C0
C0
80
ENDCHAR
STARTCHAR Eth
ENCODING 208
SWIDTH 610 0
DWIDTH 12 0
BBX 11 13 1 0
BITMAP
1F00
3180
30C0
2060
2060
2060
FC60
6040
6040
40C0
4180
C300
FC00
ENDCHAR
STARTCHAR Ntilde
ENCODING 209
SWIDTH 619 0
DWIDTH 12 0
BBX 11 16 1 0
BITMAP
0F60
09C0
0000
3020
3060
3860
2860
6840
6C40
44C0
46C0
42C0
C280
C380
C180
8180
ENDCHAR
STARTCHAR Ograve
ENCODING 210
SWIDTH 633 0
DWIDTH 13 0
BBX 11 18 1 0
BITMAP
0400
0600
0300
0100
0000
0F80
18C0
3060
6060
4020
C020
C060
C060
C060
C0C0
4080
6100
1E00
ENDCHAR
STARTCHAR Oacute
ENCODING 211
SWIDTH 633 0
DWIDTH 13 0
BBX 11 17 1 0
BITMAP
0040
0180
0300
0000
0F80
18C0
3060
6060
4020
C020
C060
C060
C060
C0C0
4080
6100
1E00
ENDCHAR
STARTCHAR Ocircumflex
ENCODING 212
SWIDTH 633 0
DWIDTH 13 0
BBX 11 17 1 0
BITMAP
0380
06C0
0840
0000
0F80
18C0
3060
6060
4020
C020
C060
C060
C060
C0C0
4080
6100
1E00
ENDCHAR
STARTCHAR Otilde
ENCODING 213
SWIDTH 633 0
DWIDTH 13 0
BBX 11 16 1 0
BITMAP
0F20
09C0
0000
0F80
18C0
3060
6060
4020
C020
C060
C060
C060
C0C0
4080
6100
1E00
ENDCHAR
STARTCHAR Odieresis
ENCODING 214
SWIDTH 633 0
DWIDTH 13 0
BBX 11 16 1 0
BITMAP
04C0
0000
0000
0F80
18C0
3060
6060
4020
C020
C060
C060
C060
C0C0
4080
6100
1E00
ENDCHAR
STARTCHAR multiply
ENCODING 215
SWIDTH 480 0
DWIDTH 10 0
BBX 8 8 1 2
BITMAP
41
E2
24
18
18
24
42
83
ENDCHAR
STARTCHAR Oslash
ENCODING 216
SWIDTH 633 0
DWIDTH 13 0
BBX 13 13 0 0
BITMAP
07C8
0C70
1830
3070
2090
6110
6230
6430
6C30
7860
3040
70C0
CF00
ENDCHAR
STARTCHAR Ugrave
ENCODING 217
SWIDTH 616 0
DWIDTH 12 0
BBX 10 18 2 0
BITMAP
0800
0C00
0600
0200
0000
6040
60C0
40C0
40C0
C080
C080
C180
8180
8100
8100
8300
C600
7C00
ENDCHAR
STARTCHAR Uacute
ENCODING 218
SWIDTH 616 0
DWIDTH 12 0
BBX 10 17 2 0
BITMAP
0180
0300
0400
0000
6040
60C0
40C0
40C0
C080
C080
C180
8180
8100
8100
8300
C600
7C00
ENDCHAR
STARTCHAR Ucircumflex
ENCODING 219
SWIDTH 616 0
DWIDTH 12 0
BBX 10 17 2 0
BITMAP
0700
0D00
1080
0000
6040
60C0
40C0
40C0
C080
C080
C180
8180
8100
8100
8300
C600
7C00
ENDCHAR
STARTCHAR Udieresis
ENCODING 220
SWIDTH 616 0
DWIDTH 12 0
BBX 10 16 2 0
BITMAP
1980
0000
0000
6040
60C0
40C0
40C0
C080
C080
C180
8180
8100
8100
8300
C600
7C00
ENDCHAR
STARTCHAR Yacute
ENCODING 221
SWIDTH 461 0
DWIDTH 9 0
BBX 9 17 2 0
BITMAP
0200
0E00
1800
0000
8180
C300
C200
4400
4C00
6800
7000
3000
2000
6000
6000
6000
4000
ENDCHAR
STARTCHAR Thorn
ENCODING 222
SWIDTH 562 0
DWIDTH 11 0
BBX 10 13 1 0
BITMAP
3000
3000
3F00
2180
60C0
60C0
60C0
4080
4100
FE00
C000
C000
8000
ENDCHAR
STARTCHAR germandbls
ENCODING 223
SWIDTH 555 0
DWIDTH 11 0
BBX 9 14 1 0
BITMAP
0F00
1980
3180
2180
2300
6600
6400
4400
4600
4380
C180
C080
9180
8F00
ENDCHAR
STARTCHAR agrave
ENCODING 224
SWIDTH 537 0
DWIDTH 11 0
BBX 9 16 1 0
BITMAP
0800
0C00
0600
0200
0000
0000
1E80
3380
6180
C100
C100
8100
8300
8300
C600
7A00
ENDCHAR
STARTCHAR aacute
ENCODING 225
SWIDTH 537 0
DWIDTH 11 0
BBX 9 16 1 0
BITMAP
0100
0380
0600
0C00
0000
0000
1E80
3380
6180
C100
C100
8100
8300
8300
C600
7A00
ENDCHAR
STARTCHAR acircumflex
ENCODING 226
SWIDTH 537 0
DWIDTH 11 0
BBX 9 15 1 0
BITMAP
0600
0B00
1180
0000
0000
1E80
3380
6180
C100
C100
8100
8300
8300
C600
7A00
ENDCHAR
STARTCHAR atilde
ENCODING 227
SWIDTH 537 0
DWIDTH 11 0
BBX 10 14 1 0
BITMAP
0800
14C0
3380
0000
1E80
3380
6180
C100
C100
8100
8300
8300
C600
7A00
ENDCHAR
STARTCHAR adieresis
ENCODING 228
SWIDTH 537 0
DWIDTH 11 0
BBX 9 13 1 0
BITMAP
1980
0000
0000
1E80
3380
6180
C100
C100
8100
8300
8300
C600
7A00
ENDCHAR
STARTCHAR aring
ENCODING 229
SWIDTH 537 0
DWIDTH 11 0
BBX 9 15 1 0
BITMAP
0700
0900
0900
0E00
0000
1E80
3380
6180
C100
C100
8100
8300
8300
C600
7A00
ENDCHAR
STARTCHAR ae
ENCODING 230
SWIDTH 761 0
DWIDTH 15 0
BBX 14 10 1 0
BITMAP
3C70
4288
030C
020C
3FF8
6200
8200
8200
8F10
F1F0
ENDCHAR
STARTCHAR ccedilla
ENCODING 231
SWIDTH 435 0
DWIDTH 9 0
BBX 8 15 1 -5
BITMAP
1E
33
40
C0
C0
80
80
80
C4
7C
20
30
50
30
E0
ENDCHAR
STARTCHAR egrave
ENCODING 232
SWIDTH 481 0
DWIDTH 10 0
BBX 8 16 1 0
BITMAP
08
1C
04
02
00
00
1E
23
41
C1
FF
80
80
C0
C4
7E
ENDCHAR
STARTCHAR eacute
ENCODING 233
SWIDTH 481 0
DWIDTH 10 0
BBX 8 16 1 0
BITMAP
01
03
06
08
00
00
1E
23
41
C1
FF
80
80
C0
C4
7E
ENDCHAR
STARTCHAR ecircumflex
ENCODING 234
SWIDTH 481 0
DWIDTH 10 0
BBX 8 15 1 0
BITMAP
0E
1B
31
00
00
1E
23
41
C1
FF
80
80
C0
C4
7E
ENDCHAR
STARTCHAR edieresis
ENCODING 235
SWIDTH 481 0
DWIDTH 10 0
BBX 8 13 1 0
BITMAP
1B
00
00
1E
23
41
C1
FF
80
80
C0
C4
7E
ENDCHAR
STARTCHAR igrave
ENCODING 236
SWIDTH 237 0
DWIDTH 5 0
BBX 4 16 1 0
BITMAP
40
60
30
10
00
00
60
60
60
40
40
C0
C0
C0
80
80
ENDCHAR
STARTCHAR iacute
ENCODING 237
SWIDTH 237 0
DWIDTH 5 0
BBX 6 16 1 0
BITMAP
08
1C
30
60
00
00
60
60
60
40
40
C0
C0
C0
80
80
ENDCHAR
STARTCHAR icircumflex
ENCODING 238
SWIDTH 237 0
DWIDTH 5 0
BBX 6 15 1 0
BITMAP
30
68
8C
00
00
60
60
60
40
40
C0
C0
C0
80
80
ENDCHAR
STARTCHAR idieresis
ENCODING 239
SWIDTH 237 0
DWIDTH 5 0
BBX 6 13 1 0
BITMAP
CC
00
00
60
60
60
40
40
C0
C0
C0
80
80
ENDCHAR
STARTCHAR eth
ENCODING 240
SWIDTH 524 0
DWIDTH 10 0
BBX 10 14 1 0
BITMAP
0800
1CC0
0700
0E00
3300
0100
3D00
6300
C100
8100
8300
8200
C600
7800
ENDCHAR
STARTCHAR ntilde
ENCODING 241
SWIDTH 525 0
DWIDTH 11 0
BBX 10 14 1 0
BITMAP
0800
1EC0
1380
0000
6F00
7100
6100
4100
4100
C300
C300
C300
8200
8200
ENDCHAR
STARTCHAR ograve
ENCODING 242
SWIDTH 515 0
DWIDTH 10 0
BBX 9 16 1 0
BITMAP
0800
0C00
0600
0200
0000
0000
1E00
2300
4100
C100
C180
8100
8300
8200
C600
7800
ENDCHAR
STARTCHAR oacute
ENCODING 243
SWIDTH 515 0
DWIDTH 10 0
BBX 9 16 1 0
BITMAP
0100
0380
0600
0C00
0000
0000
1E00
2300
4100
C100
C180
8100
8300
8200
C600
7800
ENDCHAR
STARTCHAR ocircumflex
ENCODING 244
SWIDTH 515 0
DWIDTH 10 0
BBX 9 15 1 0
BITMAP
0600
0900
1180
0000
0000
1E00
2300
4100
C100
C180
8100
8300
8200
C600
7800
ENDCHAR
STARTCHAR otilde
ENCODING 245
SWIDTH 515 0
DWIDTH 10 0
BBX 10 14 1 0
BITMAP
0800
14C0
3380
0000
1E00
2300
4100
C100
C180
8100
8300
8200
C600
7800
ENDCHAR
STARTCHAR odieresis
ENCODING 246
SWIDTH 515 0
DWIDTH 10 0
BBX 9 13 1 0
BITMAP
1980
0000
0000
1E00
2300
4100
C100
C180
8100
8300
8200
C600
7800
ENDCHAR
STARTCHAR divide
ENCODING 247
SWIDTH 480 0
DWIDTH 10 0
BBX 8 7 1 3
BITMAP
18
00
00
FF
00
00
18
ENDCHAR
STARTCHAR oslash
ENCODING 248
SWIDTH 515 0
DWIDTH 10 0
BBX 10 10 0 0
BITMAP
0F40
1180
2180
6280
44C0
4880
5080
6180
6300
BC00
ENDCHAR
STARTCHAR ugrave
ENCODING 249
SWIDTH 528 0
DWIDTH 11 0
BBX 9 16 1 0
BITMAP
0800
0C00
0600
0200
0000
0000
6180
6180
6100
4100
4100
C300
C300
C200
C600
7A00
ENDCHAR
STARTCHAR uacute
ENCODING 250
SWIDTH 528 0
DWIDTH 11 0
BBX 9 16 1 0
BITMAP
0100
0380
0600
0C00
0000
0000
6180
6180
6100
4100
4100
C300
C300
C200
C600
7A00
ENDCHAR
STARTCHAR ucircumflex
ENCODING 251
SWIDTH 528 0
DWIDTH 11 0
BBX 9 15 1 0
BITMAP
0600
0B00
1180
2000
0000
6180
6180
6100
4100
4100
C300
C300
C200
C600
7A00
ENDCHAR
STARTCHAR udieresis
ENCODING 252
SWIDTH 528 0
DWIDTH 11 0
BBX 9 13 1 0
BITMAP
1900
0000
0000
6180
6180
6100
4100
4100
C300
C300
C200
C600
7A00
ENDCHAR
STARTCHAR yacute
ENCODING 253
SWIDTH 448 0
DWIDTH 9 0
BBX 11 20 -1 -4
BITMAP
0080
01C0
0300
0600
0000
0000
3060
30C0
1080
1180
1100
1B00
1A00
0E00
0C00
0C00
1800
1000
3000
E000
ENDCHAR
STARTCHAR thorn
ENCODING 254
SWIDTH 535 0
DWIDTH 11 0
BBX 10 18 0 -4
BITMAP
1800
1800
1000
1000
1780
38C0
30C0
20C0
20C0
20C0
6080
6180
6300
5E00
4000
C000
C000
8000
ENDCHAR
STARTCHAR ydieresis
ENCODING 255
SWIDTH 448 0
DWIDTH 9 0
BBX 11 17 -1 -4
BITMAP
0CC0
0000
0000
3060
30C0
1080
1180
1100
1B00
1A00
0E00
0C00
0C00
1800
1000
3000
E000
ENDCHAR
STARTCHAR Amacron
ENCODING 256
SWIDTH 510 0
DWIDTH 10 0
BBX 11 16 -1 0
BITMAP
03E0
0400
0000
0180
0380
0280
0680
0480
0CC0
18C0
18C0
3FC0
30C0
6040
4040
C040
ENDCHAR
STARTCHAR amacron
ENCODING 257
SWIDTH 537 0
DWIDTH 11 0
BBX 9 13 1 0
BITMAP
1F00
0000
0000
1E80
3380
6180
C100
C100
8100
8300
8300
C600
7A00
ENDCHAR
STARTCHAR Abreve
ENCODING 258
SWIDTH 510 0
DWIDTH 10 0
BBX 11 17 -1 0
BITMAP
0420
0260
03C0
0000
0180
0380
0280
0680
0480
0CC0
18C0
18C0
3FC0
30C0
6040
4040
C040
ENDCHAR
STARTCHAR abreve
ENCODING 259
SWIDTH 537 0
DWIDTH 11 0
BBX 9 14 1 0
BITMAP
1080
1980
0F00
0000
1E80
3380
6180
C100
C100
8100
8300
8300
C600
7A00
ENDCHAR
STARTCHAR Aogonek
ENCODING 260
SWIDTH 510 0
DWIDTH 10 0
BBX 10 17 -1 -4
BITMAP
0180
0380
0280
0680
0480
0CC0
18C0
18C0
3FC0
30C0
6040
4040
C040
00C0
0080
0100
01C0
ENDCHAR
STARTCHAR aogonek
ENCODING 261
SWIDTH 537 0
DWIDTH 11 0
BBX 9 14 1 -4
BITMAP
1E80
3380
6180
C100
C100
8100
8300
8300
C600
7A00
0400
0800
0800
0E00
ENDCHAR
STARTCHAR Cacute
ENCODING 262
SWIDTH 550 0
DWIDTH 11 0
BBX 10 17 1 0
BITMAP
0040
01C0
0300
0000
0780
18C0
3000
6000
4000
C000
C000
C000
C000
C000
4000
6100
1E80
ENDCHAR
STARTCHAR cacute
ENCODING 263
SWIDTH 435 0
DWIDTH 9 0
BBX 8 16 1 0
BITMAP
01
03
06
08
00
00
1E
33
40
C0
C0
80
80
80
C4
7C
ENDCHAR
STARTCHAR Ccircumflex
ENCODING 264
SWIDTH 550 0
DWIDTH 11 0
BBX 10 17 1 0
BITMAP
0380
06C0
0C40
0000
0780
18C0
3000
6000
4000
C000
C000
C000
C000
C000
4000
6100
1E80
ENDCHAR
STARTCHAR ccircumflex
ENCODING 265
SWIDTH 435 0
DWIDTH 9 0
BBX 9 15 1 0
BITMAP
0600
0B00
3100
0080
0000
1E00
3300
4000
C000
C000
8000
8000
8000
C400
7C00
ENDCHAR
STARTCHAR Cdotaccent
ENCODING 266
SWIDTH 550 0
DWIDTH 11 0
BBX 10 15 1 0
BITMAP
0300
0000
0780
18C0
3000
6000
4000
C000
C000
C000
C000
C000
4000
6100
1E80
ENDCHAR
STARTCHAR cdotaccent
ENCODING 267
SWIDTH 435 0
DWIDTH 9 0
BBX 8 14 1 0
BITMAP
0E
00
00
00
1E
33
40
C0
C0
80
80
80
C4
7C
ENDCHAR
STARTCHAR Ccaron
ENCODING 268
SWIDTH 550 0
DWIDTH 11 0
BBX 11 17 1 0
BITMAP
0440
06E0
0380
0000
0780
18C0
3000
6000
4000
C000
C000
C000
C000
C000
4000
6100
1E80
ENDCHAR
STARTCHAR ccaron
ENCODING 269
SWIDTH 435 0
DWIDTH 9 0
BBX 9 15 1 0
BITMAP
1180
1B00
0E00
0000
0000
1E00
3300
4000
C000
C000
8000
8000
8000
C400
7C00
ENDCHAR
STARTCHAR Dcaron
ENCODING 270
SWIDTH 592 0
DWIDTH 12 0
BBX 10 17 1 0
BITMAP
0840
0D80
0700
0000
3F00
3180
20C0
2040
6040
6040
6040
40C0
40C0
C080
C180
C300
FC00
ENDCHAR
STARTCHAR dcaron
ENCODING 271
SWIDTH 542 0
DWIDTH 11 0
BBX 12 15 1 0
BITMAP
0010
00D0
00D0
00E0
0080
1E80
3380
6180
C100
C100
8100
8300
8300
C600
7A00
ENDCHAR
STARTCHAR Dcroat
ENCODING 272
SWIDTH 610 0
DWIDTH 12 0
BBX 11 13 1 0
BITMAP
1F00
3180
30C0
2060
2060
2060
FC60
6040
6040
40C0
4180
C300
FC00
ENDCHAR
STARTCHAR dcroat
ENCODING 273
SWIDTH 535 0
DWIDTH 11 0
BBX 11 14 1 0
BITMAP
00C0
00C0
07E0
0080
0080
1F80
3380
4100
C100
8100
8300
8300
C600
7A00
ENDCHAR
STARTCHAR Emacron
ENCODING 274
SWIDTH 503 0
DWIDTH 10 0
BBX 10 16 1 0
BITMAP
0F80
0000
0000
3FC0
3000
2000
2000
6000
6000
7F00
4000
4000
C000
C000
C000
FE00
ENDCHAR
STARTCHAR emacron
ENCODING 275
SWIDTH 481 0
DWIDTH 10 0
BBX 8 13 1 0
BITMAP
1F
00
00
1E
23
41
C1
FF
80
80
C0
C4
7E
ENDCHAR
STARTCHAR Ebreve
ENCODING 276
SWIDTH 503 0
DWIDTH 10 0
BBX 10 17 1 0
BITMAP
08C0
0880
0F00
0000
3FC0
3000
2000
2000
6000
6000
7F00
4000
4000
C000
C000
C000
FE00
ENDCHAR
STARTCHAR ebreve
ENCODING 277
SWIDTH 481 0
DWIDTH 10 0
BBX 9 14 1 0
BITMAP
1080
1100
1E00
0000
1E00
2300
4100
C100
FF00
8000
8000
C000
C400
7E00
ENDCHAR
STARTCHAR Edotaccent
ENCODING 278
SWIDTH 503 0
DWIDTH 10 0
BBX 10 15 1 0
BITMAP
0600
0000
3FC0
3000
2000
2000
6000
6000
7F00
4000
4000
C000
C000
C000
FE00
ENDCHAR
STARTCHAR edotaccent
ENCODING 279
SWIDTH 481 0
DWIDTH 10 0
BBX 8 14 1 0
BITMAP
0E
00
00
00
1E
23
41
C1
FF
80
80
C0
C4
7E
ENDCHAR
STARTCHAR Eogonek
ENCODING 280
SWIDTH 503 0
DWIDTH 10 0
BBX 10 17 1 -4
BITMAP
3FC0
3000
2000
2000
6000
6000
7F00
4000
4000
C000
C000
C000
FE00
0400
0800
0800
0E00
ENDCHAR
STARTCHAR eogonek
ENCODING 281
SWIDTH 481 0
DWIDTH 10 0
BBX 8 14 1 -4
BITMAP
1E
23
41
C1
FF
80
80
C0
C4
7E
08
10
10
1C
ENDCHAR
STARTCHAR Ecaron
ENCODING 282
SWIDTH 503 0
DWIDTH 10 0
BBX 10 17 1 0
BITMAP
0880
0D80
0600
0000
3FC0
3000
2000
2000
6000
6000
7F00
4000
4000
C000
C000
C000
FE00
ENDCHAR
STARTCHAR ecaron
ENCODING 283
SWIDTH 481 0
DWIDTH 10 0
BBX 9 15 1 0
BITMAP
1180
1B00
0C00
0000
0000
1E00
2300
4100
C100
FF00
8000
8000
C000
C400
7E00
ENDCHAR
STARTCHAR Gcircumflex
ENCODING 284
SWIDTH 588 0
DWIDTH 12 0
BBX 10 17 1 0
BITMAP
0380
06C0
0C40
0000
0780
1840
3000
6000
4000
C000
C3C0
C4C0
C080
C080
4080
6180
1E00
ENDCHAR
STARTCHAR gcircumflex
ENCODING 285
SWIDTH 531 0
DWIDTH 11 0
BBX 10 19 0 -4
BITMAP
0300
0580
08C0
1000
0000
0E40
19C0
3080
6080
6080
4180
4180
4100
6300
3D00
0300
0200
C600
7C00
ENDCHAR
STARTCHAR Gbreve
ENCODING 286
SWIDTH 588 0
DWIDTH 12 0
BBX 11 17 1 0
BITMAP
0460
0440
0780
0000
0780
1840
3000
6000
4000
C000
C3C0
C4C0
C080
C080
4080
6180
1E00
ENDCHAR
STARTCHAR gbreve
ENCODING 287
SWIDTH 531 0
DWIDTH 11 0
BBX 10 18 0 -4
BITMAP
0840
0880
0700
0000
0E40
19C0
3080
6080
6080
4180
4180
4100
6300
3D00
0300
0200
C600
7C00
ENDCHAR
STARTCHAR Gdotaccent
ENCODING 288
SWIDTH 588 0
DWIDTH 12 0
BBX 10 15 1 0
BITMAP
0300
0000
0780
1840
3000
6000
4000
C000
C3C0
C4C0
C080
C080
4080
6180
1E00
ENDCHAR
STARTCHAR gdotaccent
ENCODING 289
SWIDTH 531 0
DWIDTH 11 0
BBX 10 18 0 -4
BITMAP
0300
0000
0000
0000
0E40
19C0
3080
6080
6080
4180
4180
4100
6300
3D00
0300
0200
C600
7C00
ENDCHAR
STARTCHAR uni0122
ENCODING 290
SWIDTH 588 0
DWIDTH 12 0
BBX 10 18 1 -5
BITMAP
0780
1840
3000
6000
4000
C000
C3C0
C4C0
C080
C080
4080
6180
1E00
0000
0C00
0400
0C00
3800
ENDCHAR
STARTCHAR uni0123
ENCODING 291
SWIDTH 531 0
DWIDTH 11 0
BBX 10 19 0 -4
BITMAP
0180
0600
0600
0300
0000
0E40
19C0
3080
6080
6080
4180
4180
4100
6300
3D00
0300
0200
C600
7C00
ENDCHAR
STARTCHAR Hcircumflex
ENCODING 292
SWIDTH 622 0
DWIDTH 12 0
BBX 11 17 1 0
BITMAP
0300
0480
0840
0000
3020
3020
2060
2060
6040
6040
7FC0
40C0
40C0
C080
C080
C180
8180
ENDCHAR
STARTCHAR hcircumflex
ENCODING 293
SWIDTH 519 0
DWIDTH 10 0
BBX 8 18 1 0
BITMAP
38
6C
C4
00
30
30
20
20
2F
71
61
41
41
43
C3
C3
82
82
ENDCHAR
STARTCHAR Hbar
ENCODING 294
SWIDTH 643 0
DWIDTH 13 0
BBX 13 13 1 0
BITMAP
3030
3020
7FF8
2060
2060
7FC0
6040
40C0
40C0
40C0
C080
C080
C180
ENDCHAR
STARTCHAR hbar
ENCODING 295
SWIDTH 519 0
DWIDTH 10 0
BBX 8 14 1 0
BITMAP
30
30
7E
A0
20
6F
71
41
41
43
C3
C3
82
82
ENDCHAR
STARTCHAR Itilde
ENCODING 296
SWIDTH 252 0
DWIDTH 5 0
BBX 7 16 1 0
BITMAP
F2
9C
00
30
30
20
20
60
60
60
40
40
C0
C0
C0
80
ENDCHAR
STARTCHAR itilde
ENCODING 297
SWIDTH 237 0
DWIDTH 5 0
BBX 8 14 0 0
BITMAP
20
73
4E
80
30
30
30
20
20
60
60
60
40
40
ENDCHAR
STARTCHAR Imacron
ENCODING 298
SWIDTH 252 0
DWIDTH 5 0
BBX 6 16 1 0
BITMAP
7C
00
00
30
30
20
20
60
60
60
40
40
C0
C0
C0
80
ENDCHAR
STARTCHAR imacron
ENCODING 299
SWIDTH 237 0
DWIDTH 5 0
BBX 6 13 1 0
BITMAP
FC
00
00
60
60
60
40
40
C0
C0
C0
80
80
ENDCHAR
STARTCHAR uni012C
ENCODING 300
SWIDTH 252 0
DWIDTH 5 0
BBX 7 17 1 0
BITMAP
46
44
78
00
30
30
20
20
60
60
60
40
40
C0
C0
C0
80
ENDCHAR
STARTCHAR uni012D
ENCODING 301
SWIDTH 237 0
DWIDTH 5 0
BBX 6 14 1 0
BITMAP
84
CC
78
00
60
60
60
40
40
C0
C0
C0
80
80
ENDCHAR
STARTCHAR Iogonek
ENCODING 302
SWIDTH 252 0
DWIDTH 5 0
BBX 6 17 -1 -4
BITMAP
0C
0C
08
08
18
18
18
10
10
30
30
30
20
60
40
C0
E0
ENDCHAR
STARTCHAR iogonek
ENCODING 303
SWIDTH 237 0
DWIDTH 5 0
BBX 6 18 -1 -4
BITMAP
0C
0C
00
00
18
18
18
10
10
30
30
30
20
20
40
40
80
E0
ENDCHAR
STARTCHAR Idotaccent
ENCODING 304
SWIDTH 252 0
DWIDTH 5 0
BBX 4 15 1 0
BITMAP
30
00
30
30
20
20
60
60
60
40
40
C0
C0
C0
80
ENDCHAR
STARTCHAR dotlessi
ENCODING 305
SWIDTH 237 0
DWIDTH 5 0
BBX 3 10 1 0
BITMAP
60
60
60
40
40
C0
C0
C0
80
80
ENDCHAR
STARTCHAR Jcircumflex
ENCODING 308
SWIDTH 456 0
DWIDTH 9 0
BBX 11 17 0 0
BITMAP
01C0
0360
0220
0000
0180
0180
0180
0100
0100
0300
0300
0300
0200
0200
8600
C400
7800
ENDCHAR
STARTCHAR jcircumflex
ENCODING 309
SWIDTH 238 0
DWIDTH 5 0
BBX 9 19 -2 -4
BITMAP
0600
0900
1180
0000
0000
0C00
0C00
0C00
0800
0800
1800
1800
1800
1000
1000
3000
3000
2000
E000
ENDCHAR
STARTCHAR uni0136
ENCODING 310
SWIDTH 559 0
DWIDTH 11 0
BBX 11 18 1 -5
BITMAP
3060
30C0
2180
2300
6600
6C00
7600
6600
4200
C300
C100
C100
8180
0000
1800
0C00
0800
3000
ENDCHAR
STARTCHAR uni0137
ENCODING 311
SWIDTH 476 0
DWIDTH 10 0
BBX 9 19 1 -5
BITMAP
3000
3000
2000
2000
2180
6200
6600
4C00
5800
7C00
EC00
C400
8600
8200
0000
3000
1000
1800
6000
ENDCHAR
STARTCHAR kgreenlandic
ENCODING 312
SWIDTH 476 0
DWIDTH 10 0
BBX 9 10 1 0
BITMAP
6180
6200
6600
4C00
5800
FC00
EC00
C400
8600
8200
ENDCHAR
STARTCHAR Lacute
ENCODING 313
SWIDTH 462 0
DWIDTH 9 0
BBX 7 17 1 0
BITMAP
04
1C
30
00
30
30
20
20
60
60
60
40
40
C0
C0
C0
FE
ENDCHAR
STARTCHAR lacute
ENCODING 314
SWIDTH 248 0
DWIDTH 5 0
BBX 7 18 1 0
BITMAP
04
1E
30
00
30
30
20
20
20
60
60
40
40
40
C0
C0
80
C0
ENDCHAR
STARTCHAR uni013B
ENCODING 315
SWIDTH 462 0
DWIDTH 9 0
BBX 7 18 1 -5
BITMAP
30
30
20
20
60
60
60
40
40
C0
C0
C0
FE
00
30
18
10
60
ENDCHAR
STARTCHAR uni013C
ENCODING 316
SWIDTH 248 0
DWIDTH 5 0
BBX 6 19 -1 -5
BITMAP
0C
0C
08
08
08
18
18
10
10
10
30
30
20
30
00
60
30
20
C0
ENDCHAR
STARTCHAR Lcaron
ENCODING 317
SWIDTH 462 0
DWIDTH 9 0
BBX 8 14 1 0
BITMAP
01
31
31
22
20
60
60
60
40
40
C0
C0
C0
FE
ENDCHAR
STARTCHAR lcaron
ENCODING 318
SWIDTH 242 0
DWIDTH 5 0
BBX 6 15 1 0
BITMAP
04
34
34
28
20
20
60
60
40
40
40
C0
C0
80
C0
ENDCHAR
STARTCHAR Ldot
ENCODING 319
SWIDTH 462 0
DWIDTH 9 0
BBX 8 13 1 0
BITMAP
30
30
20
20
60
67
66
40
40
C0
C0
C0
FE
ENDCHAR
STARTCHAR ldot
ENCODING 320
SWIDTH 331 0
DWIDTH 7 0
BBX 6 14 1 0
BITMAP
30
30
20
20
20
60
6C
4C
40
40
C0
C0
80
C0
ENDCHAR
STARTCHAR Lslash
ENCODING 321
SWIDTH 462 0
DWIDTH 9 0
BBX 8 13 0 0
BITMAP
18
18
10
10
32
37
38
60
A0
60
60
60
7F
ENDCHAR
STARTCHAR lslash
ENCODING 322
SWIDTH 252 0
DWIDTH 5 0
BBX 6 14 0 0
BITMAP
18
18
18
10
18
3C
30
E0
20
20
60
60
60
60
ENDCHAR
STARTCHAR Nacute
ENCODING 323
SWIDTH 619 0
DWIDTH 12 0
BBX 11 17 1 0
BITMAP
0040
0180
0300
0000
3020
3060
3860
2860
6840
6C40
44C0
46C0
42C0
C280
C380
C180
8180
ENDCHAR
STARTCHAR nacute
ENCODING 324
SWIDTH 525 0
DWIDTH 11 0
BBX 9 16 1 0
BITMAP
0100
0380
0600
0400
0000
0000
6F00
7100
6100
4100
4100
C300
C300
C300
8200
8200
ENDCHAR
STARTCHAR uni0145
ENCODING 325
SWIDTH 619 0
DWIDTH 12 0
BBX 11 18 1 -5
BITMAP
3020
3060
3860
2860
6840
6C40
44C0
46C0
42C0
C280
C380
C180
8180
0000
1800
0C00
0800
3000
ENDCHAR
STARTCHAR uni0146
ENCODING 326
SWIDTH 525 0
DWIDTH 11 0
BBX 8 15 1 -5
BITMAP
6F
71
61
41
41
C3
C3
C3
82
82
00
30
18
10
60
ENDCHAR
STARTCHAR Ncaron
ENCODING 327
SWIDTH 619 0
DWIDTH 12 0
BBX 11 17 1 0
BITMAP
0840
0480
0300
0000
3020
3060
3860
2860
6840
6C40
44C0
46C0
42C0
C280
C380
C180
8180
ENDCHAR
STARTCHAR ncaron
ENCODING 328
SWIDTH 525 0
DWIDTH 11 0
BBX 9 15 1 0
BITMAP
1880
0B00
0600
0000
0000
6F00
7100
6100
4100
4100
C300
C300
C300
8200
8200
ENDCHAR
STARTCHAR napostrophe
ENCODING 329
SWIDTH 739 0
DWIDTH 15 0
BBX 12 14 2 0
BITMAP
6000
2000
6000
C000
04E0
0730
0C30
0C30
0C20
0820
0820
1860
1860
1840
ENDCHAR
STARTCHAR Omacron
ENCODING 332
SWIDTH 633 0
DWIDTH 13 0
BBX 11 16 1 0
BITMAP
07C0
0000
0000
0F80
18C0
3060
6060
4020
C020
C060
C060
C060
C0C0
4080
6100
1E00
ENDCHAR
STARTCHAR omacron
ENCODING 333
SWIDTH 515 0
DWIDTH 10 0
BBX 9 13 1 0
BITMAP
1F00
0000
0000
1E00
2300
4100
C100
C180
8100
8300
8200
C600
7800
ENDCHAR
STARTCHAR uni014E
ENCODING 334
SWIDTH 633 0
DWIDTH 13 0
BBX 11 17 1 0
BITMAP
0440
0440
0780
0000
0F80
18C0
3060
6060
4020
C020
C060
C060
C060
C0C0
4080
6100
1E00
ENDCHAR
STARTCHAR uni014F
ENCODING 335
SWIDTH 515 0
DWIDTH 10 0
BBX 9 14 1 0
BITMAP
1080
1980
0F00
0000
1E00
2300
4100
C100
C180
8100
8300
8200
C600
7800
ENDCHAR
STARTCHAR Ohungarumlaut
ENCODING 336
SWIDTH 633 0
DWIDTH 13 0
BBX 12 17 1 0
BITMAP
0130
03E0
06C0
0000
0F80
18C0
3060
6060
4020
C020
C060
C060
C060
C0C0
4080
6100
1E00
ENDCHAR
STARTCHAR ohungarumlaut
ENCODING 337
SWIDTH 515 0
DWIDTH 10 0
BBX 10 15 1 0
BITMAP
0240
04C0
0D80
0900
0000
1E00
2300
4100
C100
C180
8100
8300
8200
C600
7800
ENDCHAR
STARTCHAR OE
ENCODING 338
SWIDTH 816 0
DWIDTH 16 0
BBX 16 13 1 0
BITMAP
07FF
1840
30C0
60C0
40C0
C080
C0FC
C180
C180
C180
4100
6100
1FFC
ENDCHAR
STARTCHAR oe
ENCODING 339
SWIDTH 812 0
DWIDTH 16 0
BBX 15 10 1 0
BITMAP
1E38
2344
4186
C186
C1FC
8100
8300
8300
C488
78F8
ENDCHAR
STARTCHAR Racute
ENCODING 340
SWIDTH 555 0
DWIDTH 11 0
BBX 10 17 1 0
BITMAP
0080
0380
0600
0000
3F80
30C0
20C0
20C0
60C0
6180
7F00
4400
4600
C200
C200
C300
8100
ENDCHAR
STARTCHAR racute
ENCODING 341
SWIDTH 342 0
DWIDTH 7 0
BBX 7 16 1 0
BITMAP
02
06
0C
10
00
00
6E
70
60
40
40
C0
C0
C0
80
80
ENDCHAR
STARTCHAR uni0156
ENCODING 342
SWIDTH 555 0
DWIDTH 11 0
BBX 10 18 1 -5
BITMAP
3F80
30C0
20C0
20C0
60C0
6180
7F00
4400
4600
C200
C200
C300
8100
0000
1800
0800
0800
3000
ENDCHAR
STARTCHAR uni0157
ENCODING 343
SWIDTH 342 0
DWIDTH 7 0
BBX 9 15 -1 -5
BITMAP
1B80
1C00
1800
1000
1000
3000
3000
3000
2000
2000
0000
6000
3000
2000
C000
ENDCHAR
STARTCHAR Rcaron
ENCODING 344
SWIDTH 555 0
DWIDTH 11 0
BBX 10 17 1 0
BITMAP
0880
0DC0
0700
0000
3F80
30C0
20C0
20C0
60C0
6180
7F00
4400
4600
C200
C200
C300
8100
ENDCHAR
STARTCHAR rcaron
ENCODING 345
SWIDTH 342 0
DWIDTH 7 0
BBX 8 15 1 0
BITMAP
23
36
18
00
00
6E
70
60
40
40
C0
C0
C0
80
80
ENDCHAR
STARTCHAR Sacute
ENCODING 346
SWIDTH 506 0
DWIDTH 10 0
BBX 10 17 0 0
BITMAP
0040
0180
0300
0000
0F80
18C0
1000
3000
1800
1C00
0700
0380
0180
0080
4180
E100
3E00
ENDCHAR
STARTCHAR sacute
ENCODING 347
SWIDTH 402 0
DWIDTH 8 0
BBX 8 16 0 0
BITMAP
01
03
06
08
00
00
1E
23
60
20
38
0C
06
06
C6
78
ENDCHAR
STARTCHAR Scircumflex
ENCODING 348
SWIDTH 506 0
DWIDTH 10 0
BBX 10 17 0 0
BITMAP
0380
0680
0840
0000
0F80
18C0
1000
3000
1800
1C00
0700
0380
0180
0080
4180
E100
3E00
ENDCHAR
STARTCHAR scircumflex
ENCODING 349
SWIDTH 402 0
DWIDTH 8 0
BBX 9 15 0 0
BITMAP
0600
0B00
1100
2080
0000
1E00
2300
6000
2000
3800
0C00
0600
0600
C600
7800
ENDCHAR
STARTCHAR uni015E
ENCODING 350
SWIDTH 506 0
DWIDTH 10 0
BBX 10 18 0 -5
BITMAP
0F80
18C0
1000
3000
1800
1C00
0700
0380
0180
0080
4180
E100
3E00
0800
1800
0C00
0800
3000
ENDCHAR
STARTCHAR uni015F
ENCODING 351
SWIDTH 402 0
DWIDTH 8 0
BBX 8 15 0 -5
BITMAP
1E
23
60
20
38
0C
06
06
C6
78
10
30
10
10
60
ENDCHAR
STARTCHAR Scaron
ENCODING 352
SWIDTH 506 0
DWIDTH 10 0
BBX 10 17 0 0
BITMAP
0840
0480
0300
0000
0F80
18C0
1000
3000
1800
1C00
0700
0380
0180
0080
4180
E100
3E00
ENDCHAR
STARTCHAR scaron
ENCODING 353
SWIDTH 402 0
DWIDTH 8 0
BBX 9 15 0 0
BITMAP
1180
1B00
0E00
0000
0000
1E00
2300
6000
2000
3800
0C00
0600
0600
C600
7800
ENDCHAR
STARTCHAR uni0162
ENCODING 354
SWIDTH 510 0
DWIDTH 10 0
BBX 10 18 1 -5
BITMAP
7FC0
0400
0C00
0C00
0C00
0800
0800
1800
1800
1800
1000
1000
3000
2000
3000
5000
3000
E000
ENDCHAR
STARTCHAR uni0163
ENCODING 355
SWIDTH 325 0
DWIDTH 7 0
BBX 6 18 1 -5
BITMAP
10
30
30
FC
20
60
60
40
40
40
C0
C0
70
28
60
20
20
C0
ENDCHAR
STARTCHAR Tcaron
ENCODING 356
SWIDTH 510 0
DWIDTH 10 0
BBX 9 17 2 0
BITMAP
2100
1600
1C00
0000
FF80
0800
1800
1800
1800
1000
1000
3000
3000
3000
2000
2000
6000
ENDCHAR
STARTCHAR tcaron
ENCODING 357
SWIDTH 325 0
DWIDTH 7 0
BBX 7 15 1 0
BITMAP
02
02
12
34
30
FC
20
60
60
40
40
40
C0
C0
78
ENDCHAR
STARTCHAR Utilde
ENCODING 360
SWIDTH 616 0
DWIDTH 12 0
BBX 10 16 2 0
BITMAP
1EC0
1380
2000
6040
60C0
40C0
40C0
C080
C080
C180
8180
8100
8100
8300
C600
7C00
ENDCHAR
STARTCHAR utilde
ENCODING 361
SWIDTH 528 0
DWIDTH 11 0
BBX 9 14 1 0
BITMAP
0800
1480
2300
0000
6180
6180
6100
4100
4100
C300
C300
C200
C600
7A00
ENDCHAR
STARTCHAR Umacron
ENCODING 362
SWIDTH 616 0
DWIDTH 12 0
BBX 10 16 2 0
BITMAP
1F80
0000
0000
6040
60C0
40C0
40C0
C080
C080
C180
8180
8100
8100
8300
C600
7C00
ENDCHAR
STARTCHAR umacron
ENCODING 363
SWIDTH 528 0
DWIDTH 11 0
BBX 9 13 1 0
BITMAP
1F00
0000
0000
6180
6180
6100
4100
4100
C300
C300
C200
C600
7A00
ENDCHAR
STARTCHAR Ubreve
ENCODING 364
SWIDTH 616 0
DWIDTH 12 0
BBX 10 17 2 0
BITMAP
1080
0980
0F00
0000
6040
60C0
40C0
40C0
C080
C080
C180
8180
8100
8100
8300
C600
7C00
ENDCHAR
STARTCHAR ubreve
ENCODING 365
SWIDTH 528 0
DWIDTH 11 0
BBX 9 14 1 0
BITMAP
1080
1180
0E00
0000
6180
6180
6100
4100
4100
C300
C300
C200
C600
7A00
ENDCHAR
STARTCHAR Uring
ENCODING 366
SWIDTH 616 0
DWIDTH 12 0
BBX 10 18 2 0
BITMAP
0700
0900
0900
0600
0000
6040
60C0
40C0
40C0
C080
C080
C180
8180
8100
8100
8300
C600
7C00
ENDCHAR
STARTCHAR uring
ENCODING 367
SWIDTH 528 0
DWIDTH 11 0
BBX 9 15 1 0
BITMAP
0600
0900
0900
0E00
0000
6180
6180
6100
4100
4100
C300
C300
C200
C600
7A00
ENDCHAR
STARTCHAR Uhungarumlaut
ENCODING 368
SWIDTH 616 0
DWIDTH 12 0
BBX 11 17 2 0
BITMAP
0260
0480
0900
0000
6040
60C0
40C0
40C0
C080
C080
C180
8180
8100
8100
8300
C600
7C00
ENDCHAR
STARTCHAR uhungarumlaut
ENCODING 369
SWIDTH 528 0
DWIDTH 11 0
BBX 10 15 1 0
BITMAP
0280
04C0
0D80
0900
0000
6180
6180
6100
4100
4100
C300
C300
C200
C600
7A00
ENDCHAR
STARTCHAR Uogonek
ENCODING 370
SWIDTH 616 0
DWIDTH 12 0
BBX 10 17 2 -4
BITMAP
6040
60C0
40C0
40C0
C080
C080
C180
8180
8180
8100
8300
C600
7C00
3000
2000
6000
3000
ENDCHAR
STARTCHAR uogonek
ENCODING 371
SWIDTH 528 0
DWIDTH 11 0
BBX 9 14 1 -4
BITMAP
6180
6180
6100
4100
4100
C300
C300
C200
C600
7A00
0400
0800
0800
0E00
ENDCHAR
STARTCHAR Wcircumflex
ENCODING 372
SWIDTH 756 0
DWIDTH 15 0
BBX 14 17 2 0
BITMAP
0380
06C0
0C40
0000
C304
C30C
C708
C518
CD10
C910
C930
9120
9160
A140
A140
E180
C180
ENDCHAR
STARTCHAR wcircumflex
ENCODING 373
SWIDTH 707 0
DWIDTH 14 0
BBX 13 15 1 0
BITMAP
0180
06C0
0C40
0020
0000
C308
4718
4510
4530
4920
4960
5140
5140
7180
6180
ENDCHAR
STARTCHAR Ycircumflex
ENCODING 374
SWIDTH 461 0
DWIDTH 9 0
BBX 9 17 2 0
BITMAP
1C00
3600
6200
0000
8180
C300
C200
4400
4C00
6800
7000
3000
2000
6000
6000
6000
4000
ENDCHAR
STARTCHAR ycircumflex
ENCODING 375
SWIDTH 448 0
DWIDTH 9 0
BBX 11 19 -1 -4
BITMAP
0300
0580
08C0
0000
0000
3060
30C0
1080
1180
1100
1B00
1A00
0E00
0C00
0C00
1800
1000
3000
E000
ENDCHAR
STARTCHAR Ydieresis
ENCODING 376
SWIDTH 461 0
DWIDTH 9 0
BBX 9 16 2 0
BITMAP
2600
0000
0000
8180
C300
C200
4400
4C00
6800
7000
3000
2000
6000
6000
6000
4000
ENDCHAR
STARTCHAR Zacute
ENCODING 377
SWIDTH 512 0
DWIDTH 10 0
BBX 11 17 0 0
BITMAP
0040
0180
0200
0000
1FE0
00C0
0080
0100
0300
0600
0400
0C00
1800
3000
2000
6000
FF80
ENDCHAR
STARTCHAR zacute
ENCODING 378
SWIDTH 410 0
DWIDTH 8 0
BBX 9 16 0 0
BITMAP
0100
0380
0600
0C00
0000
0000
3F80
0300
0600
0C00
0800
1800
3000
6000
4000
FE00
ENDCHAR
STARTCHAR Zdotaccent
ENCODING 379
SWIDTH 512 0
DWIDTH 10 0
BBX 11 15 0 0
BITMAP
0300
0000
1FE0
00C0
0080
0100
0300
0600
0400
0C00
1800
3000
2000
6000
FF80
ENDCHAR
STARTCHAR zdotaccent
ENCODING 380
SWIDTH 410 0
DWIDTH 8 0
BBX 9 14 0 0
BITMAP
0600
0000
0000
0000
3F80
0300
0600
0C00
0800
1800
3000
6000
4000
FE00
ENDCHAR
STARTCHAR Zcaron
ENCODING 381
SWIDTH 512 0
DWIDTH 10 0
BBX 11 17 0 0
BITMAP
0840
0480
0300
0000
1FE0
00C0
0080
0100
0300
0600
0400
0C00
1800
3000
2000
6000
FF80
ENDCHAR
STARTCHAR zcaron
ENCODING 382
SWIDTH 410 0
DWIDTH 8 0
BBX 9 15 0 0
BITMAP
1180
0B00
0E00
0000
0000
3F80
0300
0600
0C00
0800
1800
3000
6000
4000
FE00
ENDCHAR
STARTCHAR uni0180
ENCODING 384
SWIDTH 519 0
DWIDTH 10 0
BBX 9 14 1 0
BITMAP
3000
3000
7E00
A000
2000
6F00
7180
6180
4180
4180
C100
C300
C600
BC00
ENDCHAR
STARTCHAR uni018F
ENCODING 399
SWIDTH 636 0
DWIDTH 13 0
BBX 11 13 1 0
BITMAP
0F80
18C0
0060
0020
0020
0020
FFE0
C060
C060
C0C0
4080
6180
3E00
ENDCHAR
STARTCHAR uni0192
ENCODING 402
SWIDTH 480 0
DWIDTH 10 0
BBX 11 15 -1 -2
BITMAP
00E0
0180
0100
0300
0200
0FC0
0600
0400
0400
0C00
0800
0800
1800
1000
E000
ENDCHAR
STARTCHAR Ohorn
ENCODING 416
SWIDTH 633 0
DWIDTH 13 0
BBX 12 16 1 0
BITMAP
0010
0010
0010
0FE0
18C0
3060
6060
4020
C020
C060
C060
C040
C0C0
4080
6100
1E00
ENDCHAR
STARTCHAR ohorn
ENCODING 417
SWIDTH 517 0
DWIDTH 10 0
BBX 10 13 1 0
BITMAP
0040
0040
00C0
1F80
2300
4100
C100
C180
8100
8300
8200
C600
7800
ENDCHAR
STARTCHAR Uhorn
ENCODING 431
SWIDTH 629 0
DWIDTH 13 0
BBX 13 16 2 0
BITMAP
0018
0018
0010
6060
60C0
40C0
40C0
C080
C080
C180
8180
8100
8100
8300
C600
7C00
ENDCHAR
STARTCHAR uhorn
ENCODING 432
SWIDTH 543 0
DWIDTH 11 0
BBX 11 13 1 0
BITMAP
0020
0020
0060
61C0
6180
6100
4100
4100
C300
C300
C200
C600
7A00
ENDCHAR
STARTCHAR uni01CD
ENCODING 461
SWIDTH 510 0
DWIDTH 10 0
BBX 11 17 -1 0
BITMAP
0420
0240
0180
0000
0180
0380
0280
0680
0480
0CC0
18C0
18C0
3FC0
30C0
6040
4040
C040
ENDCHAR
STARTCHAR uni01CE
ENCODING 462
SWIDTH 537 0
DWIDTH 11 0
BBX 9 15 1 0
BITMAP
1180
0B00
0E00
0000
0000
1E80
3380
6180
C100
C100
8100
8300
8300
C600
7A00
ENDCHAR
STARTCHAR uni01CF
ENCODING 463
SWIDTH 252 0
DWIDTH 5 0
BBX 6 17 1 0
BITMAP
44
6C
30
00
30
30
20
20
60
60
60
40
40
C0
C0
C0
80
ENDCHAR
STARTCHAR uni01D0
ENCODING 464
SWIDTH 237 0
DWIDTH 5 0
BBX 6 15 1 0
BITMAP
84
58
70
00
00
60
60
60
40
40
C0
C0
C0
80
80
ENDCHAR
STARTCHAR uni01D1
ENCODING 465
SWIDTH 633 0
DWIDTH 13 0
BBX 11 17 1 0
BITMAP
0440
0E80
0300
0000
0F80
18C0
3060
6060
4020
C020
C060
C060
C060
C0C0
4080
6100
1E00
ENDCHAR
STARTCHAR uni01D2
ENCODING 466
SWIDTH 515 0
DWIDTH 10 0
BBX 9 15 1 0
BITMAP
1180
0B00
0E00
0000
0000
1E00
2300
4100
C100
C180
8100
8300
8200
C600
7800
ENDCHAR
STARTCHAR uni01D3
ENCODING 467
SWIDTH 616 0
DWIDTH 12 0
BBX 10 17 2 0
BITMAP
1080
0900
0600
0000
6040
60C0
40C0
40C0
C080
C080
C180
8180
8100
8100
8300
C600
7C00
ENDCHAR
STARTCHAR uni01D4
ENCODING 468
SWIDTH 528 0
DWIDTH 11 0
BBX 9 15 1 0
BITMAP
1180
0B00
0E00
0000
0000
6180
6180
6100
4100
4100
C300
C300
C200
C600
7A00
ENDCHAR
STARTCHAR uni01D5
ENCODING 469
SWIDTH 616 0
DWIDTH 12 0
BBX 10 18 2 0
BITMAP
0F80
0000
1980
0000
0000
6040
60C0
40C0
40C0
C080
C080
C180
8180
8100
8100
8300
C600
7C00
ENDCHAR
STARTCHAR uni01D6
ENCODING 470
SWIDTH 528 0
DWIDTH 11 0
BBX 9 16 1 0
BITMAP
0F80
0000
0000
1900
0000
0000
6180
6180
6100
4100
4100
C300
C300
C200
C600
7A00
ENDCHAR
STARTCHAR uni01D7
ENCODING 471
SWIDTH 616 0
DWIDTH 12 0
BBX 10 19 2 0
BITMAP
0180
0300
0000
1980
0000
0000
6040
60C0
40C0
40C0
C080
C080
C180
8180
8100
8100
8300
C600
7C00
ENDCHAR
STARTCHAR uni01D8
ENCODING 472
SWIDTH 528 0
DWIDTH 11 0
BBX 9 17 1 0
BITMAP
0100
0300
0400
0000
1900
0000
0000
6180
6180
6100
4100
4100
C300
C300
C200
C600
7A00
ENDCHAR
STARTCHAR uni01D9
ENCODING 473
SWIDTH 616 0
DWIDTH 12 0
BBX 10 19 2 0
BITMAP
0D80
0700
0000
1980
0000
0000
6040
60C0
40C0
40C0
C080
C080
C180
8180
8100
8100
8300
C600
7C00
ENDCHAR
STARTCHAR uni01DA
ENCODING 474
SWIDTH 528 0
DWIDTH 11 0
BBX 9 16 1 0
BITMAP
0D80
0600
0000
1900
0000
0000
6180
6180
6100
4100
4100
C300
C300
C200
C600
7A00
ENDCHAR
STARTCHAR uni01DB
ENCODING 475
SWIDTH 616 0
DWIDTH 12 0
BBX 10 19 2 0
BITMAP
0400
0200
0200
1980
0000
0000
6040
60C0
40C0
40C0
C080
C080
C180
8180
8100
8100
8300
C600
7C00
ENDCHAR
STARTCHAR uni01DC
ENCODING 476
SWIDTH 528 0
DWIDTH 11 0
BBX 9 17 1 0
BITMAP
0400
0C00
0200
0000
1900
0000
0000
6180
6180
6100
4100
4100
C300
C300
C200
C600
7A00
ENDCHAR
STARTCHAR Gcaron
ENCODING 486
SWIDTH 588 0
DWIDTH 12 0
BBX 10 17 1 0
BITMAP
0440
06C0
0380
0000
0780
1840
3000
6000
4000
C000
C3C0
C4C0
C080
C080
4080
6180
1E00
ENDCHAR
STARTCHAR gcaron
ENCODING 487
SWIDTH 531 0
DWIDTH 11 0
BBX 10 19 0 -4
BITMAP
08C0
0580
0700
0000
0000
0E40
19C0
3080
6080
6080
4180
4180
4100
6300
3D00
0300
0200
C600
7C00
ENDCHAR
STARTCHAR uni01EA
ENCODING 490
SWIDTH 633 0
DWIDTH 13 0
BBX 11 17 1 -4
BITMAP
0F80
18C0
3060
6060
4020
C020
C060
C060
C060
C0C0
4080
6100
3E00
0800
1000
1000
1C00
ENDCHAR
STARTCHAR uni01EB
ENCODING 491
SWIDTH 515 0
DWIDTH 10 0
BBX 9 14 1 -4
BITMAP
1E00
2300
4100
C100
C180
8100
8300
8200
C600
7800
2000
6000
4000
7000
ENDCHAR
STARTCHAR uni0218
ENCODING 536
SWIDTH 506 0
DWIDTH 10 0
BBX 10 18 0 -5
BITMAP
0F80
18C0
1000
3000
1800
1C00
0700
0380
0180
0080
4180
E100
3E00
0000
1800
0C00
0800
3000
ENDCHAR
STARTCHAR uni0219
ENCODING 537
SWIDTH 402 0
DWIDTH 8 0
BBX 8 15 0 -5
BITMAP
1E
23
60
20
38
0C
06
06
C6
78
00
30
18
10
60
ENDCHAR
STARTCHAR uni021A
ENCODING 538
SWIDTH 510 0
DWIDTH 10 0
BBX 9 18 2 -5
BITMAP
FF80
0800
1800
1800
1800
1000
1000
3000
3000
3000
2000
2000
6000
0000
6000
2000
2000
C000
ENDCHAR
STARTCHAR uni021B
ENCODING 539
SWIDTH 325 0
DWIDTH 7 0
BBX 6 18 1 -5
BITMAP
10
30
30
FC
20
60
60
40
40
40
C0
C0
70
08
60
20
20
C0
ENDCHAR
STARTCHAR uni0237
ENCODING 567
SWIDTH 238 0
DWIDTH 5 0
BBX 6 14 -2 -4
BITMAP
0C
0C
0C
08
08
18
18
18
10
10
30
30
20
E0
ENDCHAR
STARTCHAR uni0243
ENCODING 579
SWIDTH 610 0
DWIDTH 12 0
BBX 11 13 0 0
BITMAP
0FC0
1860
1820
1820
1060
10C0
3F00
30C0
3060
FC60
2040
60C0
7F00
ENDCHAR
STARTCHAR uni0251
ENCODING 593
SWIDTH 537 0
DWIDTH 11 0
BBX 9 10 1 0
BITMAP
1E80
3380
6180
C100
C100
8100
8300
8300
C600
7A00
ENDCHAR
STARTCHAR uni0259
ENCODING 601
SWIDTH 478 0
DWIDTH 10 0
BBX 8 10 1 0
BITMAP
3C
46
03
03
03
FF
82
86
8C
78
ENDCHAR
STARTCHAR uni0261
ENCODING 609
SWIDTH 531 0
DWIDTH 11 0
BBX 10 14 0 -4
BITMAP
0E40
19C0
3080
6080
6080
4180
4180
4100
6300
3D00
0300
0200
C600
7C00
ENDCHAR
STARTCHAR h.sups
ENCODING 688
SWIDTH 353 0
DWIDTH 7 0
BBX 6 10 1 7
BITMAP
20
20
20
5C
64
44
44
4C
88
88
ENDCHAR
STARTCHAR j.sups
ENCODING 690
SWIDTH 164 0
DWIDTH 3 0
BBX 5 12 -1 5
BITMAP
08
00
00
18
10
10
10
30
20
20
20
C0
ENDCHAR
STARTCHAR r.sups
ENCODING 691
SWIDTH 224 0
DWIDTH 4 0
BBX 5 6 1 8
BITMAP
58
60
40
40
C0
80
ENDCHAR
STARTCHAR w.sups
ENCODING 695
SWIDTH 479 0
DWIDTH 10 0
BBX 9 6 2 8
BITMAP
9980
9900
AA00
AA00
CC00
CC00
ENDCHAR
STARTCHAR y.sups
ENCODING 696
SWIDTH 307 0
DWIDTH 6 0
BBX 7 9 0 5
BITMAP
62
24
24
28
28
10
10
20
C0
ENDCHAR
STARTCHAR uni02B9
ENCODING 697
SWIDTH 242 0
DWIDTH 5 0
BBX 3 5 2 9
BITMAP
20
60
40
40
80
ENDCHAR
STARTCHAR uni02BB
ENCODING 699
SWIDTH 242 0
DWIDTH 5 0
BBX 3 4 2 10
BITMAP
20
40
80
C0
ENDCHAR
STARTCHAR uni02BC
ENCODING 700
SWIDTH 242 0
DWIDTH 5 0
BBX 3 4 2 10
BITMAP
60
20
60
C0
ENDCHAR
STARTCHAR uni02BE
ENCODING 702
SWIDTH 151 0
DWIDTH 3 0
BBX 2 4 2 10
BITMAP
40
40
40
C0
ENDCHAR
STARTCHAR uni02BF
ENCODING 703
SWIDTH 163 0
DWIDTH 3 0
BBX 2 4 2 10
BITMAP
40
80
80
C0
ENDCHAR
STARTCHAR circumflex
ENCODING 710
SWIDTH 517 0
DWIDTH 10 0
BBX 6 3 4 12
BITMAP
30
48
8C
ENDCHAR
STARTCHAR caron
ENCODING 711
SWIDTH 517 0
DWIDTH 10 0
BBX 6 3 4 12
BITMAP
8C
58
70
ENDCHAR
STARTCHAR uni02C8
ENCODING 712
SWIDTH 108 0
DWIDTH 2 0
BBX 2 4 2 11
BITMAP
C0
80
80
80
ENDCHAR
STARTCHAR uni02C9
ENCODING 713
SWIDTH 262 0
DWIDTH 5 0
BBX 6 1 1 12
BITMAP
FC
ENDCHAR
STARTCHAR uni02CA
ENCODING 714
SWIDTH 213 0
DWIDTH 4 0
BBX 4 4 2 12
BITMAP
10
30
60
C0
ENDCHAR
STARTCHAR uni02CB
ENCODING 715
SWIDTH 213 0
DWIDTH 4 0
BBX 4 4 1 12
BITMAP
40
E0
20
10
ENDCHAR
STARTCHAR uni02CC
ENCODING 716
SWIDTH 108 0
DWIDTH 2 0
BBX 2 4 -2 -5
BITMAP
40
40
40
C0
ENDCHAR
STARTCHAR breve
ENCODING 728
SWIDTH 517 0
DWIDTH 10 0
BBX 6 3 4 11
BITMAP
84
CC
78
ENDCHAR
STARTCHAR dotaccent
ENCODING 729
SWIDTH 517 0
DWIDTH 10 0
BBX 2 1 6 13
BITMAP
C0
ENDCHAR
STARTCHAR ring
ENCODING 730
SWIDTH 517 0
DWIDTH 10 0
BBX 4 4 5 11
BITMAP
70
90
90
E0
ENDCHAR
STARTCHAR ogonek
ENCODING 731
SWIDTH 517 0
DWIDTH 10 0
BBX 3 4 2 -4
BITMAP
60
40
80
E0
ENDCHAR
STARTCHAR tilde
ENCODING 732
SWIDTH 517 0
DWIDTH 10 0
BBX 8 3 3 11
BITMAP
20
53
CE
ENDCHAR
STARTCHAR hungarumlaut
ENCODING 733
SWIDTH 517 0
DWIDTH 10 0
BBX 6 4 5 11
BITMAP
24
4C
D8
90
ENDCHAR
STARTCHAR l.sups
ENCODING 737
SWIDTH 165 0
DWIDTH 3 0
BBX 3 10 1 8
BITMAP
20
20
20
60
40
40
40
40
C0
C0
ENDCHAR
STARTCHAR s.sups
ENCODING 738
SWIDTH 271 0
DWIDTH 5 0
BBX 5 6 1 8
BITMAP
70
48
40
30
90
F0
ENDCHAR
STARTCHAR x.sups
ENCODING 739
SWIDTH 295 0
DWIDTH 6 0
BBX 7 6 0 8
BITMAP
26
34
18
38
68
CC
ENDCHAR
STARTCHAR uni0300
ENCODING 768
SWIDTH 0 0
DWIDTH 0 0
BBX 4 4 0 12
BITMAP
40
E0
20
10
ENDCHAR
STARTCHAR uni0301
ENCODING 769
SWIDTH 0 0
DWIDTH 0 0
BBX 4 4 1 12
BITMAP
10
30
60
80
ENDCHAR
STARTCHAR uni0302
ENCODING 770
SWIDTH 0 0
DWIDTH 0 0
BBX 6 3 -1 12
BITMAP
18
6C
C4
ENDCHAR
STARTCHAR uni0303
ENCODING 771
SWIDTH 0 0
DWIDTH 0 0
BBX 7 3 -1 11
BITMAP
20
72
8C
ENDCHAR
STARTCHAR uni0304
ENCODING 772
SWIDTH 0 0
DWIDTH 0 0
BBX 5 1 0 12
BITMAP
F8
ENDCHAR
STARTCHAR uni0306
ENCODING 774
SWIDTH 0 0
DWIDTH 0 0
BBX 6 3 0 11
BITMAP
84
88
70
ENDCHAR
STARTCHAR uni0307
ENCODING 775
SWIDTH 0 0
DWIDTH 0 0
BBX 3 1 1 13
BITMAP
E0
ENDCHAR
STARTCHAR uni0308
ENCODING 776
SWIDTH 0 0
DWIDTH 0 0
BBX 5 1 0 12
BITMAP
D8
ENDCHAR
STARTCHAR uni0309
ENCODING 777
SWIDTH 0 0
DWIDTH 0 0
BBX 3 4 1 11
BITMAP
60
A0
20
C0
ENDCHAR
STARTCHAR uni030A
ENCODING 778
SWIDTH 0 0
DWIDTH 0 0
BBX 5 4 0 11
BITMAP
70
48
D8
70
ENDCHAR
STARTCHAR uni030B
ENCODING 779
SWIDTH 0 0
DWIDTH 0 0
BBX 7 4 0 11
BITMAP
34
26
4C
D8
ENDCHAR
STARTCHAR uni030C
ENCODING 780
SWIDTH 0 0
DWIDTH 0 0
BBX 6 3 0 12
BITMAP
8C
D8
70
ENDCHAR
STARTCHAR uni030F
ENCODING 783
SWIDTH 0 0
DWIDTH 0 0
BBX 5 4 -1 11
BITMAP
90
90
C8
48
ENDCHAR
STARTCHAR uni0312
ENCODING 786
SWIDTH 0 0
DWIDTH 0 0
BBX 3 3 1 11
BITMAP
60
80
C0
ENDCHAR
STARTCHAR uni0313
ENCODING 787
SWIDTH 0 0
DWIDTH 0 0
BBX 3 4 1 11
BITMAP
60
20
40
C0
ENDCHAR
STARTCHAR uni031B
ENCODING 795
SWIDTH 0 0
DWIDTH 0 0
BBX 3 4 2 9
BITMAP
20
60
60
C0
ENDCHAR
STARTCHAR uni0323
ENCODING 803
SWIDTH 0 0
DWIDTH 0 0
BBX 2 1 -2 -3
BITMAP
C0
ENDCHAR
STARTCHAR uni0324
ENCODING 804
SWIDTH 0 0
DWIDTH 0 0
BBX 5 1 -3 -4
BITMAP
98
ENDCHAR
STARTCHAR uni0326
ENCODING 806
SWIDTH 0 0
DWIDTH 0 0
BBX 4 4 -3 -5
BITMAP
30
50
30
E0
ENDCHAR
STARTCHAR uni0327
ENCODING 807
SWIDTH 0 0
DWIDTH 0 0
BBX 4 5 -3 -5
BITMAP
30
30
50
30
E0
ENDCHAR
STARTCHAR uni0328
ENCODING 808
SWIDTH 0 0
DWIDTH 0 0
BBX 3 4 -2 -4
BITMAP
60
80
80
E0
ENDCHAR
STARTCHAR uni032E
ENCODING 814
SWIDTH 0 0
DWIDTH 0 0
BBX 6 3 -3 -5
BITMAP
84
88
F0
ENDCHAR
STARTCHAR uni0331
ENCODING 817
SWIDTH 0 0
DWIDTH 0 0
BBX 5 1 -3 -3
BITMAP
F8
ENDCHAR
STARTCHAR pi
ENCODING 960
SWIDTH 558 0
DWIDTH 11 0
BBX 11 10 1 0
BITMAP
FFE0
3180
2100
2100
6300
6300
4200
4200
C200
C300
ENDCHAR
STARTCHAR a.sups
ENCODING 7491
SWIDTH 354 0
DWIDTH 7 0
BBX 6 6 2 8
BITMAP
34
CC
88
88
98
E8
ENDCHAR
STARTCHAR b.sups
ENCODING 7495
SWIDTH 360 0
DWIDTH 7 0
BBX 6 9 1 8
BITMAP
20
20
60
5C
64
44
44
CC
B8
ENDCHAR
STARTCHAR d.sups
ENCODING 7496
SWIDTH 365 0
DWIDTH 7 0
BBX 7 9 1 8
BITMAP
02
02
06
3C
64
C4
84
CC
78
ENDCHAR
STARTCHAR e.sups
ENCODING 7497
SWIDTH 323 0
DWIDTH 6 0
BBX 6 6 1 8
BITMAP
38
44
C4
FC
90
78
ENDCHAR
STARTCHAR g.sups
ENCODING 7501
SWIDTH 354 0
DWIDTH 7 0
BBX 6 9 1 5
BITMAP
3C
44
C4
84
CC
78
08
98
F0
ENDCHAR
STARTCHAR k.sups
ENCODING 7503
SWIDTH 325 0
DWIDTH 7 0
BBX 6 9 1 8
BITMAP
20
20
60
4C
58
70
70
C8
88
ENDCHAR
STARTCHAR m.sups
ENCODING 7504
SWIDTH 536 0
DWIDTH 11 0
BBX 10 7 1 7
BITMAP
5DC0
6640
4440
4480
4880
8880
8880
ENDCHAR
STARTCHAR o.sups
ENCODING 7506
SWIDTH 348 0
DWIDTH 7 0
BBX 6 6 1 8
BITMAP
38
44
C4
84
C8
70
ENDCHAR
STARTCHAR p.sups
ENCODING 7510
SWIDTH 358 0
DWIDTH 7 0
BBX 6 9 1 5
BITMAP
5C
64
44
44
CC
B8
80
80
80
ENDCHAR
STARTCHAR t.sups
ENCODING 7511
SWIDTH 222 0
DWIDTH 4 0
BBX 4 8 1 8
BITMAP
20
20
70
C0
40
40
40
60
ENDCHAR
STARTCHAR u.sups
ENCODING 7512
SWIDTH 355 0
DWIDTH 7 0
BBX 6 7 1 8
BITMAP
64
44
44
44
4C
C8
78
ENDCHAR
STARTCHAR v.sups
ENCODING 7515
SWIDTH 307 0
DWIDTH 6 0
BBX 6 7 1 8
BITMAP
C4
44
48
48
50
50
60
ENDCHAR
STARTCHAR c.sups
ENCODING 7580
SWIDTH 292 0
DWIDTH 6 0
BBX 6 6 1 8
BITMAP
38
4C
C0
80
C0
78
ENDCHAR
STARTCHAR f.sups
ENCODING 7584
SWIDTH 194 0
DWIDTH 4 0
BBX 5 11 1 7
BITMAP
18
20
20
20
70
C0
40
40
40
C0
80
ENDCHAR
STARTCHAR z.sups
ENCODING 7611
SWIDTH 279 0
DWIDTH 6 0
BBX 6 6 0 8
BITMAP
3C
08
10
30
60
F8
ENDCHAR
STARTCHAR uni1E06
ENCODING 7686
SWIDTH 583 0
DWIDTH 12 0
BBX 10 16 1 -3
BITMAP
3F00
30C0
20C0
20C0
6080
6180
7F00
4180
4080
C080
C080
C300
FE00
0000
0000
7C00
ENDCHAR
STARTCHAR uni1E07
ENCODING 7687
SWIDTH 536 0
DWIDTH 11 0
BBX 9 17 1 -3
BITMAP
3000
3000
2000
2000
2F00
7180
6180
4180
4180
4180
C100
C300
C600
BC00
0000
0000
7C00
ENDCHAR
STARTCHAR uni1E0C
ENCODING 7692
SWIDTH 592 0
DWIDTH 12 0
BBX 10 16 1 -3
BITMAP
3F00
3180
20C0
2040
6040
6040
6040
40C0
40C0
C080
C180
C300
FC00
0000
0000
1800
ENDCHAR
STARTCHAR uni1E0D
ENCODING 7693
SWIDTH 535 0
DWIDTH 11 0
BBX 10 17 1 -3
BITMAP
00C0
00C0
00C0
0080
1E80
3380
6180
C100
C100
8100
8300
8300
C600
7A00
0000
0000
3000
ENDCHAR
STARTCHAR uni1E0E
ENCODING 7694
SWIDTH 592 0
DWIDTH 12 0
BBX 10 16 1 -3
BITMAP
3F00
3180
20C0
2040
6040
6040
6040
40C0
40C0
C080
C180
C300
FC00
0000
0000
7C00
ENDCHAR
STARTCHAR uni1E0F
ENCODING 7695
SWIDTH 535 0
DWIDTH 11 0
BBX 10 17 1 -3
BITMAP
00C0
00C0
00C0
0080
1E80
3380
6180
C100
C100
8100
8300
8300
C600
7A00
0000
0000
FC00
ENDCHAR
STARTCHAR uni1E16
ENCODING 7702
SWIDTH 503 0
DWIDTH 10 0
BBX 10 19 1 0
BITMAP
0180
0300
0000
0F80
0000
0000
3FC0
3000
2000
2000
6000
6000
7F00
4000
4000
C000
C000
C000
FE00
ENDCHAR
STARTCHAR uni1E17
ENCODING 7703
SWIDTH 481 0
DWIDTH 10 0
BBX 8 17 1 0
BITMAP
01
02
04
00
1F
00
00
1E
23
41
C1
FF
80
80
C0
C4
7E
ENDCHAR
STARTCHAR uni1E20
ENCODING 7712
SWIDTH 588 0
DWIDTH 12 0
BBX 10 16 1 0
BITMAP
07C0
0000
0000
0780
1840
3000
6000
4000
C000
C3C0
C4C0
C080
C080
4080
6180
1E00
ENDCHAR
STARTCHAR uni1E21
ENCODING 7713
SWIDTH 531 0
DWIDTH 11 0
BBX 10 17 0 -4
BITMAP
0F80
0000
0000
0E40
19C0
3080
6080
6080
4180
4180
4100
6300
3D00
0300
0200
C600
7C00
ENDCHAR
STARTCHAR uni1E24
ENCODING 7716
SWIDTH 622 0
DWIDTH 12 0
BBX 11 16 1 -3
BITMAP
3020
3020
2060
2060
6040
6040
7FC0
40C0
40C0
C080
C080
C180
8180
0000
0000
1800
ENDCHAR
STARTCHAR uni1E25
ENCODING 7717
SWIDTH 519 0
DWIDTH 10 0
BBX 8 17 1 -3
BITMAP
30
30
20
20
2F
71
61
41
41
43
C3
C3
82
82
00
00
30
ENDCHAR
STARTCHAR uni1E2A
ENCODING 7722
SWIDTH 622 0
DWIDTH 12 0
BBX 11 18 1 -5
BITMAP
3020
3020
2060
2060
6040
6040
7FC0
40C0
40C0
C080
C080
C180
8180
0000
0000
4200
6600
3C00
ENDCHAR
STARTCHAR uni1E2B
ENCODING 7723
SWIDTH 519 0
DWIDTH 10 0
BBX 8 19 1 -5
BITMAP
30
30
20
20
2F
71
61
41
41
43
C3
C3
82
82
00
00
84
CC
78
ENDCHAR
STARTCHAR uni1E34
ENCODING 7732
SWIDTH 559 0
DWIDTH 11 0
BBX 11 16 1 -3
BITMAP
3060
30C0
2180
2300
6600
6C00
7600
6600
4200
C300
C100
C100
8180
0000
0000
7E00
ENDCHAR
STARTCHAR uni1E35
ENCODING 7733
SWIDTH 476 0
DWIDTH 10 0
BBX 9 17 1 -3
BITMAP
3000
3000
2000
2000
2180
6200
6600
4C00
5800
7C00
EC00
C400
8600
8200
0000
0000
FC00
ENDCHAR
STARTCHAR uni1E36
ENCODING 7734
SWIDTH 462 0
DWIDTH 9 0
BBX 7 16 1 -3
BITMAP
30
30
20
20
60
60
60
40
40
C0
C0
C0
FE
00
00
30
ENDCHAR
STARTCHAR uni1E37
ENCODING 7735
SWIDTH 248 0
DWIDTH 5 0
BBX 5 17 0 -3
BITMAP
18
18
10
10
10
30
30
20
20
20
60
60
40
60
00
00
C0
ENDCHAR
STARTCHAR uni1E38
ENCODING 7736
SWIDTH 462 0
DWIDTH 9 0
BBX 7 19 1 -3
BITMAP
7C
00
00
30
30
20
20
60
60
60
40
40
C0
C0
C0
FE
00
00
30
ENDCHAR
STARTCHAR uni1E39
ENCODING 7737
SWIDTH 248 0
DWIDTH 5 0
BBX 7 20 0 -3
BITMAP
3E
00
00
18
18
10
10
10
30
30
20
20
20
60
60
40
60
00
00
C0
ENDCHAR
STARTCHAR uni1E3A
ENCODING 7738
SWIDTH 462 0
DWIDTH 9 0
BBX 7 16 1 -3
BITMAP
30
30
20
20
60
60
60
40
40
C0
C0
C0
FE
00
00
FC
ENDCHAR
STARTCHAR uni1E3B
ENCODING 7739
SWIDTH 248 0
DWIDTH 5 0
BBX 7 17 -2 -3
BITMAP
06
06
04
04
04
0C
0C
08
08
08
18
18
10
18
00
00
FC
ENDCHAR
STARTCHAR uni1E42
ENCODING 7746
SWIDTH 705 0
DWIDTH 14 0
BBX 13 16 1 -3
BITMAP
3018
3038
3830
2850
6850
68B0
48B0
4920
4F20
C620
C460
8460
8040
0000
0000
0C00
ENDCHAR
STARTCHAR uni1E43
ENCODING 7747
SWIDTH 799 0
DWIDTH 16 0
BBX 14 13 1 -3
BITMAP
6F38
734C
618C
410C
430C
C308
C208
C218
8218
8618
0000
0000
0600
ENDCHAR
STARTCHAR uni1E44
ENCODING 7748
SWIDTH 619 0
DWIDTH 12 0
BBX 11 15 1 0
BITMAP
0300
0000
3020
3060
3860
2860
6840
6C40
44C0
46C0
42C0
C280
C380
C180
8180
ENDCHAR
STARTCHAR uni1E45
ENCODING 7749
SWIDTH 525 0
DWIDTH 11 0
BBX 8 14 1 0
BITMAP
06
00
00
00
6F
71
61
41
41
C3
C3
C3
82
82
ENDCHAR
STARTCHAR uni1E46
ENCODING 7750
SWIDTH 619 0
DWIDTH 12 0
BBX 11 16 1 -3
BITMAP
3020
3060
3860
2860
6840
6C40
44C0
46C0
42C0
C280
C380
C180
8180
0000
0000
1800
ENDCHAR
STARTCHAR uni1E47
ENCODING 7751
SWIDTH 525 0
DWIDTH 11 0
BBX 8 13 1 -3
BITMAP
6F
71
61
41
41
C3
C3
C3
82
82
00
00
30
ENDCHAR
STARTCHAR uni1E48
ENCODING 7752
SWIDTH 619 0
DWIDTH 12 0
BBX 11 16 1 -3
BITMAP
3020
3060
3860
2860
6840
6C40
44C0
46C0
42C0
C280
C380
C180
8180
0000
0000
7E00
ENDCHAR
STARTCHAR uni1E49
ENCODING 7753
SWIDTH 525 0
DWIDTH 11 0
BBX 8 13 1 -3
BITMAP
6F
71
61
41
41
C3
C3
C3
82
82
00
00
FC
ENDCHAR
STARTCHAR uni1E52
ENCODING 7762
SWIDTH 633 0
DWIDTH 13 0
BBX 11 19 1 0
BITMAP
00C0
0180
0000
07C0
0000
0000
0F80
18C0
3060
6060
4020
C020
C060
C060
C060
C0C0
4080
6100
1E00
ENDCHAR
STARTCHAR uni1E53
ENCODING 7763
SWIDTH 515 0
DWIDTH 10 0
BBX 9 17 1 0
BITMAP
0100
0300
0200
0000
1F00
0000
0000
1E00
2300
4100
C100
C180
8100
8300
8200
C600
7800
ENDCHAR
STARTCHAR uni1E5A
ENCODING 7770
SWIDTH 555 0
DWIDTH 11 0
BBX 10 16 1 -3
BITMAP
3F80
30C0
20C0
20C0
60C0
6180
7F00
4400
4600
C200
C200
C300
8100
0000
0000
1800
ENDCHAR
STARTCHAR uni1E5B
ENCODING 7771
SWIDTH 342 0
DWIDTH 7 0
BBX 8 13 0 -3
BITMAP
37
38
30
20
20
60
60
60
40
40
00
00
C0
ENDCHAR
STARTCHAR uni1E5C
ENCODING 7772
SWIDTH 555 0
DWIDTH 11 0
BBX 10 19 1 -3
BITMAP
0F80
0000
0000
3F80
30C0
20C0
20C0
60C0
6180
7F00
4400
4600
C200
C200
C300
8100
0000
0000
1800
ENDCHAR
STARTCHAR uni1E5D
ENCODING 7773
SWIDTH 342 0
DWIDTH 7 0
BBX 8 16 0 -3
BITMAP
1F
00
00
37
38
30
20
20
60
60
60
40
40
00
00
C0
ENDCHAR
STARTCHAR uni1E5E
ENCODING 7774
SWIDTH 555 0
DWIDTH 11 0
BBX 10 16 1 -3
BITMAP
3F80
30C0
20C0
20C0
60C0
6180
7F00
4400
4600
C200
C200
C300
8100
0000
0000
7C00
ENDCHAR
STARTCHAR uni1E5F
ENCODING 7775
SWIDTH 342 0
DWIDTH 7 0
BBX 10 13 -2 -3
BITMAP
0DC0
0E00
0C00
0800
0800
1800
1800
1800
1000
1000
0000
0000
FC00
ENDCHAR
STARTCHAR uni1E60
ENCODING 7776
SWIDTH 506 0
DWIDTH 10 0
BBX 10 15 0 0
BITMAP
0300
0000
0F80
18C0
1000
3000
1800
1C00
0700
0380
0180
0080
4180
E100
3E00
ENDCHAR
STARTCHAR uni1E61
ENCODING 7777
SWIDTH 402 0
DWIDTH 8 0
BBX 8 14 0 0
BITMAP
06
08
00
00
1E
23
60
20
38
0C
06
06
C6
78
ENDCHAR
STARTCHAR uni1E62
ENCODING 7778
SWIDTH 506 0
DWIDTH 10 0
BBX 10 16 0 -3
BITMAP
0F80
18C0
1000
3000
1800
1C00
0700
0380
0180
0080
4180
E100
3E00
0000
0000
1800
ENDCHAR
STARTCHAR uni1E63
ENCODING 7779
SWIDTH 402 0
DWIDTH 8 0
BBX 8 13 0 -3
BITMAP
1E
23
60
20
38
0C
06
06
C6
78
00
00
30
ENDCHAR
STARTCHAR uni1E6C
ENCODING 7788
SWIDTH 510 0
DWIDTH 10 0
BBX 9 16 2 -3
BITMAP
FF80
0800
1800
1800
1800
1000
1000
3000
3000
3000
2000
2000
6000
0000
0000
6000
ENDCHAR
STARTCHAR uni1E6D
ENCODING 7789
SWIDTH 325 0
DWIDTH 7 0
BBX 6 16 1 -3
BITMAP
10
30
30
FC
20
60
60
40
40
40
C0
C0
70
08
00
60
ENDCHAR
STARTCHAR uni1E6E
ENCODING 7790
SWIDTH 510 0
DWIDTH 10 0
BBX 10 16 1 -3
BITMAP
7FC0
0400
0C00
0C00
0C00
0800
0800
1800
1800
1800
1000
1000
3000
0000
0000
F800
ENDCHAR
STARTCHAR uni1E6F
ENCODING 7791
SWIDTH 325 0
DWIDTH 7 0
BBX 7 16 0 -3
BITMAP
08
18
18
7E
10
30
30
20
20
20
60
60
38
04
00
F8
ENDCHAR
STARTCHAR Wgrave
ENCODING 7808
SWIDTH 756 0
DWIDTH 15 0
BBX 14 18 2 0
BITMAP
0200
0600
0300
0180
0000
C304
C30C
C708
C518
CD10
C910
C930
9120
9160
A140
A140
E180
C180
ENDCHAR
STARTCHAR wgrave
ENCODING 7809
SWIDTH 707 0
DWIDTH 14 0
BBX 13 16 1 0
BITMAP
0200
0700
0100
0080
0000
0000
C308
4718
4510
4530
4920
4960
5140
5140
7180
6180
ENDCHAR
STARTCHAR Wacute
ENCODING 7810
SWIDTH 756 0
DWIDTH 15 0
BBX 14 17 2 0
BITMAP
0040
01C0
0300
0000
C304
C30C
C708
C518
CD10
C910
C930
9120
9160
A140
A140
E180
C180
ENDCHAR
STARTCHAR wacute
ENCODING 7811
SWIDTH 707 0
DWIDTH 14 0
BBX 13 16 1 0
BITMAP
0040
00C0
0180
0200
0000
0000
C308
4718
4510
4530
4920
4960
5140
5140
7180
6180
ENDCHAR
STARTCHAR Wdieresis
ENCODING 7812
SWIDTH 756 0
DWIDTH 15 0
BBX 14 16 2 0
BITMAP
04C0
0000
0000
C304
C30C
C708
C518
CD10
C910
C930
9120
9160
A140
A140
E180
C180
ENDCHAR
STARTCHAR wdieresis
ENCODING 7813
SWIDTH 707 0
DWIDTH 14 0
BBX 13 13 1 0
BITMAP
06C0
0000
0000
C308
4718
4510
4530
4920
4960
5140
5140
7180
6180
ENDCHAR
STARTCHAR uni1E8E
ENCODING 7822
SWIDTH 461 0
DWIDTH 9 0
BBX 9 15 2 0
BITMAP
1800
0000
8180
C300
C200
4400
4C00
6800
7000
3000
2000
6000
6000
6000
4000
ENDCHAR
STARTCHAR uni1E8F
ENCODING 7823
SWIDTH 448 0
DWIDTH 9 0
BBX 11 18 -1 -4
BITMAP
0300
0000
0000
0000
3060
30C0
1080
1180
1100
1B00
1A00
0E00
0C00
0C00
1800
1000
3000
E000
ENDCHAR
STARTCHAR uni1E92
ENCODING 7826
SWIDTH 512 0
DWIDTH 10 0
BBX 11 16 0 -3
BITMAP
1FE0
00C0
0080
0100
0300
0600
0400
0C00
1800
3000
2000
6000
FF80
0000
0000
1800
ENDCHAR
STARTCHAR uni1E93
ENCODING 7827
SWIDTH 410 0
DWIDTH 8 0
BBX 9 13 0 -3
BITMAP
3F80
0300
0600
0C00
0800
1800
3000
6000
4000
FE00
0000
0000
3000
ENDCHAR
STARTCHAR uni1E97
ENCODING 7831
SWIDTH 325 0
DWIDTH 7 0
BBX 6 16 1 0
BITMAP
64
00
00
10
30
30
FC
20
60
60
40
40
40
C0
C0
78
ENDCHAR
STARTCHAR uni1E9E
ENCODING 7838
SWIDTH 633 0
DWIDTH 13 0
BBX 11 13 1 0
BITMAP
0F80
18C0
3060
2060
6180
6300
6380
40C0
4060
C060
C060
D8C0
8F80
ENDCHAR
STARTCHAR uni1EA0
ENCODING 7840
SWIDTH 510 0
DWIDTH 10 0
BBX 10 16 -1 -3
BITMAP
0180
0380
0280
0680
0480
0CC0
18C0
18C0
3FC0
30C0
6040
4040
C040
0000
0000
0C00
ENDCHAR
STARTCHAR uni1EA1
ENCODING 7841
SWIDTH 537 0
DWIDTH 11 0
BBX 9 13 1 -3
BITMAP
1E80
3380
6180
C100
C100
8100
8300
8300
C600
7A00
0000
0000
3000
ENDCHAR
STARTCHAR uni1EA2
ENCODING 7842
SWIDTH 510 0
DWIDTH 10 0
BBX 10 17 -1 0
BITMAP
0180
00C0
0080
0300
0180
0380
0280
0680
0480
0CC0
18C0
18C0
3FC0
30C0
6040
4040
C040
ENDCHAR
STARTCHAR uni1EA3
ENCODING 7843
SWIDTH 537 0
DWIDTH 11 0
BBX 9 15 1 0
BITMAP
0600
0300
0200
0400
0000
1E80
3380
6180
C100
C100
8100
8300
8300
C600
7A00
ENDCHAR
STARTCHAR uni1EA4
ENCODING 7844
SWIDTH 510 0
DWIDTH 10 0
BBX 13 18 -1 0
BITMAP
0010
0018
01E0
0240
0420
0180
0380
0280
0680
0480
0CC0
18C0
18C0
3FC0
30C0
6040
4040
C040
ENDCHAR
STARTCHAR uni1EA5
ENCODING 7845
SWIDTH 537 0
DWIDTH 11 0
BBX 11 16 1 0
BITMAP
0040
0060
0680
1900
1100
0000
1E80
3380
6180
C100
C100
8100
8300
8300
C600
7A00
ENDCHAR
STARTCHAR uni1EA6
ENCODING 7846
SWIDTH 510 0
DWIDTH 10 0
BBX 11 18 -1 0
BITMAP
0800
0400
07C0
0240
0420
0180
0380
0280
0680
0480
0CC0
18C0
18C0
3FC0
30C0
6040
4040
C040
ENDCHAR
STARTCHAR uni1EA7
ENCODING 7847
SWIDTH 537 0
DWIDTH 11 0
BBX 9 16 1 0
BITMAP
4000
2000
3600
1900
1100
0000
1E80
3380
6180
C100
C100
8100
8300
8300
C600
7A00
ENDCHAR
STARTCHAR uni1EA8
ENCODING 7848
SWIDTH 510 0
DWIDTH 10 0
BBX 13 18 -1 0
BITMAP
0030
0018
01F0
0240
0420
0180
0380
0280
0680
0480
0CC0
18C0
18C0
3FC0
30C0
6040
4040
C040
ENDCHAR
STARTCHAR uni1EA9
ENCODING 7849
SWIDTH 537 0
DWIDTH 11 0
BBX 10 16 1 0
BITMAP
00C0
0040
06C0
1900
1100
0000
1E80
3380
6180
C100
C100
8100
8300
8300
C600
7A00
ENDCHAR
STARTCHAR uni1EAA
ENCODING 7850
SWIDTH 510 0
DWIDTH 10 0
BBX 12 19 -1 0
BITMAP
0390
02E0
0000
01C0
0240
0420
0180
0380
0280
0680
0480
0CC0
18C0
18C0
3FC0
30C0
6040
4040
C040
ENDCHAR
STARTCHAR uni1EAB
ENCODING 7851
SWIDTH 537 0
DWIDTH 11 0
BBX 9 16 1 0
BITMAP
0C80
1300
0600
1900
0000
0000
1E80
3380
6180
C100
C100
8100
8300
8300
C600
7A00
ENDCHAR
STARTCHAR uni1EAC
ENCODING 7852
SWIDTH 510 0
DWIDTH 10 0
BBX 11 20 -1 -3
BITMAP
01C0
0340
0420
0000
0180
0380
0280
0680
0480
0CC0
18C0
18C0
3FC0
30C0
6040
4040
C040
0000
0000
0C00
ENDCHAR
STARTCHAR uni1EAD
ENCODING 7853
SWIDTH 537 0
DWIDTH 11 0
BBX 9 18 1 -3
BITMAP
0600
0B00
1180
0000
0000
1E80
3380
6180
C100
C100
8100
8300
8300
C600
7A00
0000
0000
3000
ENDCHAR
STARTCHAR uni1EAE
ENCODING 7854
SWIDTH 510 0
DWIDTH 10 0
BBX 11 19 -1 0
BITMAP
0060
00C0
0520
0220
03C0
0000
0180
0380
0280
0680
0480
0CC0
18C0
18C0
3FC0
30C0
6040
4040
C040
ENDCHAR
STARTCHAR uni1EAF
ENCODING 7855
SWIDTH 537 0
DWIDTH 11 0
BBX 10 17 1 0
BITMAP
0100
0180
0200
0840
0880
0F00
0000
1E80
3380
6180
C100
C100
8100
8300
8300
C600
7A00
ENDCHAR
STARTCHAR uni1EB0
ENCODING 7856
SWIDTH 510 0
DWIDTH 10 0
BBX 11 19 -1 0
BITMAP
0100
0180
04A0
0220
03C0
0000
0180
0380
0280
0680
0480
0CC0
18C0
18C0
3FC0
30C0
6040
4040
C040
ENDCHAR
STARTCHAR uni1EB1
ENCODING 7857
SWIDTH 537 0
DWIDTH 11 0
BBX 10 17 1 0
BITMAP
0400
0200
0200
0840
0880
0F00
0000
1E80
3380
6180
C100
C100
8100
8300
8300
C600
7A00
ENDCHAR
STARTCHAR uni1EB2
ENCODING 7858
SWIDTH 510 0
DWIDTH 10 0
BBX 11 19 -1 0
BITMAP
00C0
0140
04A0
0220
03C0
0000
0180
0380
0280
0680
0480
0CC0
18C0
18C0
3FC0
30C0
6040
4040
C040
ENDCHAR
STARTCHAR uni1EB3
ENCODING 7859
SWIDTH 537 0
DWIDTH 11 0
BBX 10 17 1 0
BITMAP
0300
0100
0300
0840
0880
0F00
0000
1E80
3380
6180
C100
C100
8100
8300
8300
C600
7A00
ENDCHAR
STARTCHAR uni1EB4
ENCODING 7860
SWIDTH 510 0
DWIDTH 10 0
BBX 12 19 -1 0
BITMAP
0390
02E0
0000
0620
03C0
0000
0180
0380
0280
0680
0480
0CC0
18C0
18C0
3FC0
30C0
6040
4040
C040
ENDCHAR
STARTCHAR uni1EB5
ENCODING 7861
SWIDTH 537 0
DWIDTH 11 0
BBX 10 16 1 0
BITMAP
0640
0B80
0000
0880
0F00
0000
1E80
3380
6180
C100
C100
8100
8300
8300
C600
7A00
ENDCHAR
STARTCHAR uni1EB6
ENCODING 7862
SWIDTH 510 0
DWIDTH 10 0
BBX 11 20 -1 -3
BITMAP
0420
0260
03C0
0000
0180
0380
0280
0680
0480
0CC0
18C0
18C0
3FC0
30C0
6040
4040
C040
0000
0000
0C00
ENDCHAR
STARTCHAR uni1EB7
ENCODING 7863
SWIDTH 537 0
DWIDTH 11 0
BBX 9 17 1 -3
BITMAP
1080
1980
0F00
0000
1E80
3380
6180
C100
C100
8100
8300
8300
C600
7A00
0000
0000
3000
ENDCHAR
STARTCHAR uni1EB8
ENCODING 7864
SWIDTH 503 0
DWIDTH 10 0
BBX 10 16 1 -3
BITMAP
3FC0
3000
2000
2000
6000
6000
7F00
4000
4000
C000
C000
C000
FE00
0000
0000
3000
ENDCHAR
STARTCHAR uni1EB9
ENCODING 7865
SWIDTH 481 0
DWIDTH 10 0
BBX 8 13 1 -3
BITMAP
1E
23
41
C1
FF
80
80
C0
C4
7E
00
00
30
ENDCHAR
STARTCHAR uni1EBA
ENCODING 7866
SWIDTH 503 0
DWIDTH 10 0
BBX 10 17 1 0
BITMAP
0600
0300
0200
0C00
3FC0
3000
2000
2000
6000
6000
7F00
4000
4000
C000
C000
C000
FE00
ENDCHAR
STARTCHAR uni1EBB
ENCODING 7867
SWIDTH 481 0
DWIDTH 10 0
BBX 8 15 1 0
BITMAP
06
0A
02
0C
00
1E
23
41
C1
FF
80
80
C0
C4
7E
ENDCHAR
STARTCHAR uni1EBC
ENCODING 7868
SWIDTH 503 0
DWIDTH 10 0
BBX 10 16 1 0
BITMAP
1E40
1380
0000
3FC0
3000
2000
2000
6000
6000
7F00
4000
4000
C000
C000
C000
FE00
ENDCHAR
STARTCHAR uni1EBD
ENCODING 7869
SWIDTH 481 0
DWIDTH 10 0
BBX 9 14 1 0
BITMAP
1000
1C80
2300
0000
1E00
2300
4100
C100
FF00
8000
8000
C000
C400
7E00
ENDCHAR
STARTCHAR uni1EBE
ENCODING 7870
SWIDTH 503 0
DWIDTH 10 0
BBX 11 18 1 0
BITMAP
0020
0060
0780
0D80
0000
3FC0
3000
2000
2000
6000
6000
7F00
4000
4000
C000
C000
C000
FE00
ENDCHAR
STARTCHAR uni1EBF
ENCODING 7871
SWIDTH 481 0
DWIDTH 10 0
BBX 11 16 1 0
BITMAP
0040
0060
0E80
1B00
2200
0000
1E00
2300
4100
C100
FF00
8000
8000
C000
C400
7E00
ENDCHAR
STARTCHAR uni1EC0
ENCODING 7872
SWIDTH 503 0
DWIDTH 10 0
BBX 10 18 1 0
BITMAP
2000
1000
1F00
0D80
0000
3FC0
3000
2000
2000
6000
6000
7F00
4000
4000
C000
C000
C000
FE00
ENDCHAR
STARTCHAR uni1EC1
ENCODING 7873
SWIDTH 481 0
DWIDTH 10 0
BBX 8 16 1 0
BITMAP
40
60
2E
1B
22
00
1E
23
41
C1
FF
80
80
C0
C4
7E
ENDCHAR
STARTCHAR uni1EC2
ENCODING 7874
SWIDTH 503 0
DWIDTH 10 0
BBX 11 18 1 0
BITMAP
00C0
0020
0740
0D80
0000
3FC0
3000
2000
2000
6000
6000
7F00
4000
4000
C000
C000
C000
FE00
ENDCHAR
STARTCHAR uni1EC3
ENCODING 7875
SWIDTH 481 0
DWIDTH 10 0
BBX 10 16 1 0
BITMAP
00C0
0140
0EC0
1B00
2200
0000
1E00
2300
4100
C100
FF00
8000
8000
C000
C400
7E00
ENDCHAR
STARTCHAR uni1EC4
ENCODING 7876
SWIDTH 503 0
DWIDTH 10 0
BBX 10 19 1 0
BITMAP
0E40
0980
0000
0700
0D80
0000
3FC0
3000
2000
2000
6000
6000
7F00
4000
4000
C000
C000
C000
FE00
ENDCHAR
STARTCHAR uni1EC5
ENCODING 7877
SWIDTH 481 0
DWIDTH 10 0
BBX 9 16 1 0
BITMAP
0C80
1300
0E00
1B00
0000
0000
1E00
2300
4100
C100
FF00
8000
8000
C000
C400
7E00
ENDCHAR
STARTCHAR uni1EC6
ENCODING 7878
SWIDTH 503 0
DWIDTH 10 0
BBX 10 20 1 -3
BITMAP
0700
0D80
1080
0000
3FC0
3000
2000
2000
6000
6000
7F00
4000
4000
C000
C000
C000
FE00
0000
0000
3000
ENDCHAR
STARTCHAR uni1EC7
ENCODING 7879
SWIDTH 481 0
DWIDTH 10 0
BBX 8 18 1 -3
BITMAP
0E
1B
31
00
00
1E
23
41
C1
FF
80
80
C0
C4
7E
00
00
30
ENDCHAR
STARTCHAR uni1EC8
ENCODING 7880
SWIDTH 252 0
DWIDTH 5 0
BBX 5 17 1 0
BITMAP
30
18
10
60
30
30
20
20
60
60
60
40
40
C0
C0
C0
80
ENDCHAR
STARTCHAR uni1EC9
ENCODING 7881
SWIDTH 237 0
DWIDTH 5 0
BBX 5 15 1 0
BITMAP
30
18
10
20
00
60
60
60
40
40
C0
C0
C0
80
80
ENDCHAR
STARTCHAR uni1ECA
ENCODING 7882
SWIDTH 252 0
DWIDTH 5 0
BBX 5 16 0 -3
BITMAP
18
18
10
10
30
30
30
20
20
60
60
60
40
00
00
C0
ENDCHAR
STARTCHAR uni1ECB
ENCODING 7883
SWIDTH 237 0
DWIDTH 5 0
BBX 5 17 0 -3
BITMAP
18
18
00
00
30
30
30
20
20
60
60
60
40
40
00
00
C0
ENDCHAR
STARTCHAR uni1ECC
ENCODING 7884
SWIDTH 633 0
DWIDTH 13 0
BBX 11 16 1 -3
BITMAP
0F80
18C0
3060
6060
4020
C020
C060
C060
C060
C0C0
4080
6100
1E00
0000
0000
1800
ENDCHAR
STARTCHAR uni1ECD
ENCODING 7885
SWIDTH 515 0
DWIDTH 10 0
BBX 9 13 1 -3
BITMAP
1E00
2300
4100
C100
C180
8100
8300
8200
C600
7800
0000
0000
6000
ENDCHAR
STARTCHAR uni1ECE
ENCODING 7886
SWIDTH 633 0
DWIDTH 13 0
BBX 11 17 1 0
BITMAP
0300
0180
0100
0600
0F80
18C0
3060
6060
4020
C020
C060
C060
C060
C0C0
4080
6100
1E00
ENDCHAR
STARTCHAR uni1ECF
ENCODING 7887
SWIDTH 515 0
DWIDTH 10 0
BBX 9 15 1 0
BITMAP
0600
0300
0200
0400
0000
1E00
2300
4100
C100
C180
8100
8300
8200
C600
7800
ENDCHAR
STARTCHAR uni1ED0
ENCODING 7888
SWIDTH 633 0
DWIDTH 13 0
BBX 12 18 1 0
BITMAP
0010
0020
03C0
0680
0040
0F80
18C0
3060
6060
4020
C020
C060
C060
C060
C0C0
4080
6100
1E00
ENDCHAR
STARTCHAR uni1ED1
ENCODING 7889
SWIDTH 515 0
DWIDTH 10 0
BBX 11 16 1 0
BITMAP
0040
0060
0680
1900
1100
0000
1E00
2300
4100
C100
C180
8100
8300
8200
C600
7800
ENDCHAR
STARTCHAR uni1ED2
ENCODING 7890
SWIDTH 633 0
DWIDTH 13 0
BBX 11 18 1 0
BITMAP
1000
0800
0F80
0680
0040
0F80
18C0
3060
6060
4020
C020
C060
C060
C060
C0C0
4080
6100
1E00
ENDCHAR
STARTCHAR uni1ED3
ENCODING 7891
SWIDTH 515 0
DWIDTH 10 0
BBX 9 16 1 0
BITMAP
4000
2000
1600
1900
1100
0000
1E00
2300
4100
C100
C180
8100
8300
8200
C600
7800
ENDCHAR
STARTCHAR uni1ED4
ENCODING 7892
SWIDTH 633 0
DWIDTH 13 0
BBX 12 18 1 0
BITMAP
0060
0010
03A0
0680
0040
0F80
18C0
3060
6060
4020
C020
C060
C060
C060
C0C0
4080
6100
1E00
ENDCHAR
STARTCHAR uni1ED5
ENCODING 7893
SWIDTH 515 0
DWIDTH 10 0
BBX 10 16 1 0
BITMAP
00C0
0040
06C0
1900
1100
0000
1E00
2300
4100
C100
C180
8100
8300
8200
C600
7800
ENDCHAR
STARTCHAR uni1ED6
ENCODING 7894
SWIDTH 633 0
DWIDTH 13 0
BBX 11 19 1 0
BITMAP
0720
04C0
0000
0380
06C0
0000
0F80
18C0
3060
6060
4020
C020
C060
C060
C060
C0C0
4080
6100
1E00
ENDCHAR
STARTCHAR uni1ED7
ENCODING 7895
SWIDTH 515 0
DWIDTH 10 0
BBX 9 16 1 0
BITMAP
0C80
1300
0600
1900
0000
0000
1E00
2300
4100
C100
C180
8100
8300
8200
C600
7800
ENDCHAR
STARTCHAR uni1ED8
ENCODING 7896
SWIDTH 633 0
DWIDTH 13 0
BBX 11 20 1 -3
BITMAP
0380
06C0
0840
0000
0F80
18C0
3060
6060
4020
C020
C060
C060
C060
C0C0
4080
6100
1E00
0000
0000
1800
ENDCHAR
STARTCHAR uni1ED9
ENCODING 7897
SWIDTH 515 0
DWIDTH 10 0
BBX 9 18 1 -3
BITMAP
0600
0900
1180
0000
0000
1E00
2300
4100
C100
C180
8100
8300
8200
C600
7800
0000
0000
6000
ENDCHAR
STARTCHAR uni1EDA
ENCODING 7898
SWIDTH 633 0
DWIDTH 13 0
BBX 12 17 1 0
BITMAP
00C0
0190
0210
0010
0FE0
18C0
3060
6060
4020
C020
C060
C060
C040
C0C0
4080
6100
1E00
ENDCHAR
STARTCHAR uni1EDB
ENCODING 7899
SWIDTH 517 0
DWIDTH 10 0
BBX 10 16 1 0
BITMAP
0100
0300
0600
0C40
0040
00C0
1F80
2300
4100
C100
C180
8100
8300
8200
C600
7800
ENDCHAR
STARTCHAR uni1EDC
ENCODING 7900
SWIDTH 633 0
DWIDTH 13 0
BBX 12 18 1 0
BITMAP
0400
0600
0310
0110
0010
0FE0
18C0
3060
6060
4020
C020
C060
C060
C040
C0C0
4080
6100
1E00
ENDCHAR
STARTCHAR uni1EDD
ENCODING 7901
SWIDTH 517 0
DWIDTH 10 0
BBX 10 16 1 0
BITMAP
0800
1C00
0400
0240
0040
00C0
1F80
2300
4100
C100
C180
8100
8300
8200
C600
7800
ENDCHAR
STARTCHAR uni1EDE
ENCODING 7902
SWIDTH 633 0
DWIDTH 13 0
BBX 12 17 1 0
BITMAP
0300
0190
0110
0610
0FE0
18C0
3060
6060
4020
C020
C060
C060
C040
C0C0
4080
6100
1E00
ENDCHAR
STARTCHAR uni1EDF
ENCODING 7903
SWIDTH 517 0
DWIDTH 10 0
BBX 10 15 1 0
BITMAP
0600
0A00
0240
0C40
00C0
1F80
2300
4100
C100
C180
8100
8300
8200
C600
7800
ENDCHAR
STARTCHAR uni1EE0
ENCODING 7904
SWIDTH 633 0
DWIDTH 13 0
BBX 12 16 1 0
BITMAP
0E50
1190
0010
0FE0
18C0
3060
6060
4020
C020
C060
C060
C040
C0C0
4080
6100
1E00
ENDCHAR
STARTCHAR uni1EE1
ENCODING 7905
SWIDTH 517 0
DWIDTH 10 0
BBX 10 15 1 0
BITMAP
1000
3D80
2740
0040
00C0
1F80
2300
4100
C100
C180
8100
8300
8200
C600
7800
ENDCHAR
STARTCHAR uni1EE2
ENCODING 7906
SWIDTH 633 0
DWIDTH 13 0
BBX 12 19 1 -3
BITMAP
0010
0010
0010
0FE0
18C0
3060
6060
4020
C020
C060
C060
C040
C0C0
4080
6100
1E00
0000
0000
1800
ENDCHAR
STARTCHAR uni1EE3
ENCODING 7907
SWIDTH 517 0
DWIDTH 10 0
BBX 10 16 1 -3
BITMAP
0040
0040
00C0
1F80
2300
4100
C100
C180
8100
8300
8200
C600
7800
0000
0000
6000
ENDCHAR
STARTCHAR uni1EE4
ENCODING 7908
SWIDTH 616 0
DWIDTH 12 0
BBX 10 16 2 -3
BITMAP
6040
60C0
40C0
40C0
C080
C080
C180
8180
8100
8100
8300
C600
7C00
0000
0000
3000
ENDCHAR
STARTCHAR uni1EE5
ENCODING 7909
SWIDTH 528 0
DWIDTH 11 0
BBX 9 13 1 -3
BITMAP
6180
6180
6100
4100
4100
C300
C300
C200
C600
7A00
0000
0000
3000
ENDCHAR
STARTCHAR uni1EE6
ENCODING 7910
SWIDTH 616 0
DWIDTH 12 0
BBX 10 17 2 0
BITMAP
0600
0300
0200
0C00
6040
60C0
40C0
40C0
C080
C080
C180
8180
8100
8100
8300
C600
7C00
ENDCHAR
STARTCHAR uni1EE7
ENCODING 7911
SWIDTH 528 0
DWIDTH 11 0
BBX 9 15 1 0
BITMAP
0600
0200
0200
0400
0000
6180
6180
6100
4100
4100
C300
C300
C200
C600
7A00
ENDCHAR
STARTCHAR uni1EE8
ENCODING 7912
SWIDTH 629 0
DWIDTH 13 0
BBX 13 17 2 0
BITMAP
0180
0318
0418
0010
6060
60C0
40C0
40C0
C080
C080
C180
8180
8100
8100
8300
C600
7C00
ENDCHAR
STARTCHAR uni1EE9
ENCODING 7913
SWIDTH 543 0
DWIDTH 11 0
BBX 11 16 1 0
BITMAP
0100
0380
0600
0C20
0020
0060
61C0
6180
6100
4100
4100
C300
C300
C200
C600
7A00
ENDCHAR
STARTCHAR uni1EEA
ENCODING 7914
SWIDTH 629 0
DWIDTH 13 0
BBX 13 18 2 0
BITMAP
0800
0C00
0618
0218
0010
6060
60C0
40C0
40C0
C080
C080
C180
8180
8100
8100
8300
C600
7C00
ENDCHAR
STARTCHAR uni1EEB
ENCODING 7915
SWIDTH 543 0
DWIDTH 11 0
BBX 11 16 1 0
BITMAP
0800
0C00
0600
0220
0020
0060
61C0
6180
6100
4100
4100
C300
C300
C200
C600
7A00
ENDCHAR
STARTCHAR uni1EEC
ENCODING 7916
SWIDTH 629 0
DWIDTH 13 0
BBX 13 17 2 0
BITMAP
0600
0318
0218
0C10
6060
60C0
40C0
40C0
C080
C080
C180
8180
8100
8100
8300
C600
7C00
ENDCHAR
STARTCHAR uni1EED
ENCODING 7917
SWIDTH 543 0
DWIDTH 11 0
BBX 11 15 1 0
BITMAP
0600
0200
0220
0420
0060
61C0
6180
6100
4100
4100
C300
C300
C200
C600
7A00
ENDCHAR
STARTCHAR uni1EEE
ENCODING 7918
SWIDTH 629 0
DWIDTH 13 0
BBX 13 16 2 0
BITMAP
1ED8
1398
2010
6060
60C0
40C0
40C0
C080
C080
C180
8180
8100
8100
8300
C600
7C00
ENDCHAR
STARTCHAR uni1EEF
ENCODING 7919
SWIDTH 543 0
DWIDTH 11 0
BBX 11 14 1 0
BITMAP
0800
1CA0
2320
0060
61C0
6180
6100
4100
4100
C300
C300
C200
C600
7A00
ENDCHAR
STARTCHAR uni1EF0
ENCODING 7920
SWIDTH 629 0
DWIDTH 13 0
BBX 13 19 2 -3
BITMAP
0018
0018
0010
6060
60C0
40C0
40C0
C080
C080
C180
8180
8100
8100
8300
C600
7C00
0000
0000
3000
ENDCHAR
STARTCHAR uni1EF1
ENCODING 7921
SWIDTH 543 0
DWIDTH 11 0
BBX 11 16 1 -3
BITMAP
0020
0020
0060
61C0
6180
6100
4100
4100
C300
C300
C200
C600
7A00
0000
0000
3000
ENDCHAR
STARTCHAR Ygrave
ENCODING 7922
SWIDTH 461 0
DWIDTH 9 0
BBX 9 18 2 0
BITMAP
1000
3000
1800
0C00
0000
8180
C300
C200
4400
4C00
6800
7000
3000
2000
6000
6000
6000
4000
ENDCHAR
STARTCHAR ygrave
ENCODING 7923
SWIDTH 448 0
DWIDTH 9 0
BBX 11 20 -1 -4
BITMAP
0400
0600
0300
0100
0000
0000
3060
30C0
1080
1180
1100
1B00
1A00
0E00
0C00
0C00
1800
1000
3000
E000
ENDCHAR
STARTCHAR uni1EF4
ENCODING 7924
SWIDTH 461 0
DWIDTH 9 0
BBX 9 16 2 -3
BITMAP
8180
C300
C200
4400
4C00
6800
7000
3000
2000
6000
6000
6000
4000
0000
0000
C000
ENDCHAR
STARTCHAR uni1EF5
ENCODING 7925
SWIDTH 448 0
DWIDTH 9 0
BBX 11 14 -1 -4
BITMAP
3060
30C0
1080
1180
1100
1B00
1A00
0E00
0C00
0C00
1800
1000
3300
E000
ENDCHAR
STARTCHAR uni1EF6
ENCODING 7926
SWIDTH 461 0
DWIDTH 9 0
BBX 9 17 2 0
BITMAP
1800
0C00
0800
3000
8180
C300
C200
4400
4C00
6800
7000
3000
2000
6000
6000
6000
4000
ENDCHAR
STARTCHAR uni1EF7
ENCODING 7927
SWIDTH 448 0
DWIDTH 9 0
BBX 11 19 -1 -4
BITMAP
0300
0100
0100
0200
0000
3060
30C0
1080
1180
1100
1B00
1A00
0E00
0C00
0C00
1800
1000
3000
E000
ENDCHAR
STARTCHAR uni1EF8
ENCODING 7928
SWIDTH 461 0
DWIDTH 9 0
BBX 9 16 2 0
BITMAP
7900
4E00
0000
8180
C300
C200
4400
4C00
6800
7000
3000
2000
6000
6000
6000
4000
ENDCHAR
STARTCHAR uni1EF9
ENCODING 7929
SWIDTH 448 0
DWIDTH 9 0
BBX 11 18 -1 -4
BITMAP
0400
0A60
11C0
0000
3060
30C0
1080
1180
1100
1B00
1A00
0E00
0C00
0C00
1800
1000
3000
E000
ENDCHAR
STARTCHAR uni2007
ENCODING 8199
SWIDTH 480 0
DWIDTH 10 0
BBX 1 1 0 0
BITMAP
00
ENDCHAR
STARTCHAR figuredash
ENCODING 8210
SWIDTH 480 0
DWIDTH 10 0
BBX 8 1 1 5
BITMAP
FF
ENDCHAR
STARTCHAR endash
ENCODING 8211
SWIDTH 463 0
DWIDTH 9 0
BBX 8 1 1 5
BITMAP
FF
ENDCHAR
STARTCHAR emdash
ENCODING 8212
SWIDTH 769 0
DWIDTH 15 0
BBX 14 1 1 5
BITMAP
FFFC
ENDCHAR
STARTCHAR uni2015
ENCODING 8213
SWIDTH 769 0
DWIDTH 15 0
BBX 14 1 1 5
BITMAP
FFFC
ENDCHAR
STARTCHAR quoteleft
ENCODING 8216
SWIDTH 242 0
DWIDTH 5 0
BBX 3 4 2 10
BITMAP
20
40
80
C0
ENDCHAR
STARTCHAR quoteright
ENCODING 8217
SWIDTH 242 0
DWIDTH 5 0
BBX 3 4 2 10
BITMAP
60
20
60
C0
ENDCHAR
STARTCHAR quotesinglbase
ENCODING 8218
SWIDTH 242 0
DWIDTH 5 0
BBX 3 4 0 -2
BITMAP
60
20
40
80
ENDCHAR
STARTCHAR quotedblleft
ENCODING 8220
SWIDTH 408 0
DWIDTH 8 0
BBX 6 4 2 10
BITMAP
24
48
88
CC
ENDCHAR
STARTCHAR quotedblright
ENCODING 8221
SWIDTH 408 0
DWIDTH 8 0
BBX 7 4 2 10
BITMAP
6C
26
64
C8
ENDCHAR
STARTCHAR quotedblbase
ENCODING 8222
SWIDTH 408 0
DWIDTH 8 0
BBX 6 4 0 -2
BITMAP
6C
24
48
98
ENDCHAR
STARTCHAR dagger
ENCODING 8224
SWIDTH 435 0
DWIDTH 9 0
BBX 7 15 2 -1
BITMAP
18
10
10
FE
10
30
20
20
20
20
60
40
40
40
C0
ENDCHAR
STARTCHAR daggerdbl
ENCODING 8225
SWIDTH 435 0
DWIDTH 9 0
BBX 9 15 0 -1
BITMAP
0600
0400
0400
3F80
0400
0C00
0800
0800
0800
0800
1800
7E00
9000
1000
3000
ENDCHAR
STARTCHAR bullet
ENCODING 8226
SWIDTH 295 0
DWIDTH 6 0
BBX 4 5 1 3
BITMAP
60
F0
F0
F0
E0
ENDCHAR
STARTCHAR ellipsis
ENCODING 8230
SWIDTH 960 0
DWIDTH 19 0
BBX 15 2 2 0
BITMAP
C306
C386
ENDCHAR
STARTCHAR uni202F
ENCODING 8239
SWIDTH 121 0
DWIDTH 2 0
BBX 1 1 0 0
BITMAP
00
ENDCHAR
STARTCHAR perthousand
ENCODING 8240
SWIDTH 1144 0
DWIDTH 23 0
BBX 21 13 1 0
BITMAP
381000
642000
442000
C44000
848000
853870
C94C88
72C488
048508
088508
088D18
108990
2070E0
ENDCHAR
STARTCHAR uni2032
ENCODING 8242
SWIDTH 242 0
DWIDTH 5 0
BBX 3 5 2 9
BITMAP
20
60
40
40
80
ENDCHAR
STARTCHAR uni2033
ENCODING 8243
SWIDTH 408 0
DWIDTH 8 0
BBX 7 5 2 9
BITMAP
26
64
4C
48
88
ENDCHAR
STARTCHAR guilsinglleft
ENCODING 8249
SWIDTH 252 0
DWIDTH 5 0
BBX 4 7 1 2
BITMAP
10
60
C0
80
80
40
20
ENDCHAR
STARTCHAR guilsinglright
ENCODING 8250
SWIDTH 252 0
DWIDTH 5 0
BBX 4 7 0 2
BITMAP
20
20
10
10
30
60
C0
ENDCHAR
STARTCHAR fraction
ENCODING 8260
SWIDTH 84 0
DWIDTH 2 0
BBX 11 14 -4 0
BITMAP
0060
0080
0080
0100
0200
0200
0400
0800
0800
1000
2000
2000
4000
8000
ENDCHAR
STARTCHAR zero.sups
ENCODING 8304
SWIDTH 357 0
DWIDTH 7 0
BBX 6 8 2 8
BITMAP
38
4C
C4
84
84
88
88
70
ENDCHAR
STARTCHAR i.sups
ENCODING 8305
SWIDTH 163 0
DWIDTH 3 0
BBX 3 9 1 8
BITMAP
20
00
00
60
40
40
40
C0
80
ENDCHAR
STARTCHAR four.sups
ENCODING 8308
SWIDTH 354 0
DWIDTH 7 0
BBX 6 8 2 8
BITMAP
08
18
28
48
48
FC
10
10
ENDCHAR
STARTCHAR five.sups
ENCODING 8309
SWIDTH 351 0
DWIDTH 7 0
BBX 6 8 2 8
BITMAP
3C
40
40
78
88
08
88
70
ENDCHAR
STARTCHAR six.sups
ENCODING 8310
SWIDTH 353 0
DWIDTH 7 0
BBX 6 8 2 8
BITMAP
3C
48
40
B8
C8
88
C8
70
ENDCHAR
STARTCHAR seven.sups
ENCODING 8311
SWIDTH 353 0
DWIDTH 7 0
BBX 5 8 3 8
BITMAP
F8
10
30
20
40
40
C0
80
ENDCHAR
STARTCHAR eight.sups
ENCODING 8312
SWIDTH 353 0
DWIDTH 7 0
BBX 6 8 2 8
BITMAP
38
4C
44
28
D8
88
88
70
ENDCHAR
STARTCHAR nine.sups
ENCODING 8313
SWIDTH 353 0
DWIDTH 7 0
BBX 6 8 2 8
BITMAP
38
48
8C
CC
78
08
98
E0
ENDCHAR
STARTCHAR parenleft.sups
ENCODING 8317
SWIDTH 227 0
DWIDTH 5 0
BBX 4 11 2 6
BITMAP
10
20
20
40
40
C0
80
80
C0
40
40
ENDCHAR
STARTCHAR parenright.sups
ENCODING 8318
SWIDTH 226 0
DWIDTH 5 0
BBX 4 11 1 6
BITMAP
20
30
10
10
10
10
20
20
60
40
80
ENDCHAR
STARTCHAR n.sups
ENCODING 8319
SWIDTH 355 0
DWIDTH 7 0
BBX 6 7 1 7
BITMAP
5C
64
44
44
4C
88
88
ENDCHAR
STARTCHAR zero.subs
ENCODING 8320
SWIDTH 357 0
DWIDTH 7 0
BBX 6 8 0 -3
BITMAP
38
48
84
84
8C
88
98
70
ENDCHAR
STARTCHAR one.subs
ENCODING 8321
SWIDTH 356 0
DWIDTH 7 0
BBX 3 7 1 -2
BITMAP
E0
20
20
60
60
40
40
ENDCHAR
STARTCHAR two.subs
ENCODING 8322
SWIDTH 353 0
DWIDTH 7 0
BBX 6 8 -1 -3
BITMAP
3C
24
04
04
08
10
20
FC
ENDCHAR
STARTCHAR three.subs
ENCODING 8323
SWIDTH 351 0
DWIDTH 7 0
BBX 6 8 -1 -3
BITMAP
3C
44
04
18
0C
04
CC
78
ENDCHAR
STARTCHAR four.subs
ENCODING 8324
SWIDTH 354 0
DWIDTH 7 0
BBX 5 8 0 -3
BITMAP
08
18
28
48
90
F8
10
10
ENDCHAR
STARTCHAR five.subs
ENCODING 8325
SWIDTH 351 0
DWIDTH 7 0
BBX 7 8 -1 -3
BITMAP
3E
20
20
38
44
04
CC
78
ENDCHAR
STARTCHAR six.subs
ENCODING 8326
SWIDTH 353 0
DWIDTH 7 0
BBX 6 8 0 -3
BITMAP
38
4C
80
B0
C8
88
88
70
ENDCHAR
STARTCHAR seven.subs
ENCODING 8327
SWIDTH 353 0
DWIDTH 7 0
BBX 5 8 1 -3
BITMAP
F8
10
20
20
40
40
80
80
ENDCHAR
STARTCHAR eight.subs
ENCODING 8328
SWIDTH 353 0
DWIDTH 7 0
BBX 5 8 0 -3
BITMAP
38
48
48
68
90
88
98
F0
ENDCHAR
STARTCHAR nine.subs
ENCODING 8329
SWIDTH 353 0
DWIDTH 7 0
BBX 6 8 -1 -3
BITMAP
38
64
44
44
3C
04
88
70
ENDCHAR
STARTCHAR parenleft.subs
ENCODING 8333
SWIDTH 227 0
DWIDTH 5 0
BBX 4 11 0 -5
BITMAP
10
20
40
40
C0
80
80
80
80
80
40
ENDCHAR
STARTCHAR parenright.subs
ENCODING 8334
SWIDTH 226 0
DWIDTH 5 0
BBX 4 11 -1 -5
BITMAP
20
20
30
30
30
30
20
20
40
40
80
ENDCHAR
STARTCHAR uni0259.sups
ENCODING 8340
SWIDTH 320 0
DWIDTH 6 0
BBX 6 6 1 8
BITMAP
78
0C
04
F8
88
70
ENDCHAR
STARTCHAR colonmonetary
ENCODING 8353
SWIDTH 480 0
DWIDTH 10 0
BBX 9 17 1 -2
BITMAP
0280
0500
0F00
1580
2B00
6A00
4A00
4C00
D400
D400
D400
E800
6800
6A00
3D00
5000
5000
ENDCHAR
STARTCHAR lira
ENCODING 8356
SWIDTH 480 0
DWIDTH 10 0
BBX 10 13 0 0
BITMAP
0780
08C0
1800
1000
1000
7F00
1800
7E00
1000
1000
3000
6000
FF00
ENDCHAR
STARTCHAR uni20A6
ENCODING 8358
SWIDTH 480 0
DWIDTH 10 0
BBX 10 13 0 0
BITMAP
1880
1880
1880
1980
2900
7FC0
2D00
FF80
2500
6600
4600
4600
4600
ENDCHAR
STARTCHAR peseta
ENCODING 8359
SWIDTH 480 0
DWIDTH 10 0
BBX 9 13 1 0
BITMAP
3E00
2300
2100
FF80
6300
6200
4600
7800
C000
C000
C000
8000
8000
ENDCHAR
STARTCHAR dong
ENCODING 8363
SWIDTH 480 0
DWIDTH 10 0
BBX 10 13 1 0
BITMAP
0180
0FC0
0100
0100
1F00
2200
4200
4200
C200
4600
7C00
0000
FE00
ENDCHAR
STARTCHAR Euro
ENCODING 8364
SWIDTH 480 0
DWIDTH 10 0
BBX 10 13 0 0
BITMAP
0380
0C40
1800
1000
3000
7F80
2000
FE00
2000
2000
3000
1180
0F00
ENDCHAR
STARTCHAR uni20B1
ENCODING 8369
SWIDTH 480 0
DWIDTH 10 0
BBX 9 13 1 0
BITMAP
3E00
2300
2300
FF80
FF80
6200
4600
7800
C000
C000
C000
8000
8000
ENDCHAR
STARTCHAR uni20B2
ENCODING 8370
SWIDTH 480 0
DWIDTH 10 0
BBX 9 17 1 -2
BITMAP
0200
0200
0F00
1180
2000
6000
4000
C000
C000
C700
C300
C300
C200
6200
3C00
1000
1000
ENDCHAR
STARTCHAR uni20B5
ENCODING 8373
SWIDTH 480 0
DWIDTH 10 0
BBX 9 17 1 -2
BITMAP
0200
0200
0F00
1B80
3500
6400
4400
4400
C400
C800
C800
C800
C800
6A00
3C00
1000
1000
ENDCHAR
STARTCHAR uni20B9
ENCODING 8377
SWIDTH 480 0
DWIDTH 10 0
BBX 9 13 1 0
BITMAP
3F80
0600
0200
7F80
0200
0600
0C00
7000
9000
1800
1800
0800
0C00
ENDCHAR
STARTCHAR uni20BA
ENCODING 8378
SWIDTH 480 0
DWIDTH 10 0
BBX 8 13 1 0
BITMAP
18
10
13
1C
72
BC
70
A1
21
61
63
66
78
ENDCHAR
STARTCHAR uni2113
ENCODING 8467
SWIDTH 394 0
DWIDTH 8 0
BBX 9 14 0 0
BITMAP
0700
0D80
0980
1980
1900
1300
1600
3C00
3800
3000
E000
2000
3200
1C00
ENDCHAR
STARTCHAR uni2117
ENCODING 8471
SWIDTH 665 0
DWIDTH 13 0
BBX 12 13 1 0
BITMAP
0F80
1060
2020
4F90
8890
8890
8890
9F10
9010
9020
C040
6180
1F00
ENDCHAR
STARTCHAR uni2120
ENCODING 8480
SWIDTH 601 0
DWIDTH 12 0
BBX 12 7 1 7
BITMAP
3B10
5330
4350
3360
13A0
94A0
E000
ENDCHAR
STARTCHAR trademark
ENCODING 8482
SWIDTH 611 0
DWIDTH 12 0
BBX 11 6 2 8
BITMAP
FA20
4660
46A0
45A0
45C0
CD40
ENDCHAR
STARTCHAR uni2126
ENCODING 8486
SWIDTH 658 0
DWIDTH 13 0
BBX 13 13 0 0
BITMAP
03C0
0C30
1810
3018
2018
2018
6010
6010
6030
2020
2060
10C0
F9F0
ENDCHAR
STARTCHAR estimated
ENCODING 8494
SWIDTH 800 0
DWIDTH 16 0
BBX 14 13 1 0
BITMAP
07C0
1830
2008
600C
600C
E00C
FFFC
E000
6000
6000
2008
1830
07C0
ENDCHAR
STARTCHAR onethird
ENCODING 8531
SWIDTH 778 0
DWIDTH 16 0
BBX 12 14 2 0
BITMAP
0060
F040
2080
2100
2100
6200
44F0
4C90
0810
1060
2030
2010
4330
80E0
ENDCHAR
STARTCHAR twothirds
ENCODING 8532
SWIDTH 795 0
DWIDTH 16 0
BBX 14 14 1 0
BITMAP
0018
3810
4420
0440
0C40
0880
3138
6244
FA0C
0430
0808
0808
1088
2070
ENDCHAR
STARTCHAR oneeighth
ENCODING 8539
SWIDTH 773 0
DWIDTH 15 0
BBX 12 14 2 0
BITMAP
0060
F040
2080
2100
2100
6200
4470
4490
0890
10D0
2120
2110
4130
81E0
ENDCHAR
STARTCHAR threeeighths
ENCODING 8540
SWIDTH 787 0
DWIDTH 16 0
BBX 14 14 1 0
BITMAP
0018
3830
4420
0C40
3080
0880
0938
8A4C
7244
0428
0858
0888
1088
2070
ENDCHAR
STARTCHAR fiveeighths
ENCODING 8541
SWIDTH 787 0
DWIDTH 16 0
BBX 14 14 1 0
BITMAP
0018
3C30
2020
2040
7880
4C80
0D38
8A4C
7244
0428
0858
0888
1088
2070
ENDCHAR
STARTCHAR seveneighths
ENCODING 8542
SWIDTH 770 0
DWIDTH 15 0
BBX 12 14 2 0
BITMAP
0060
F840
1080
1100
2300
4200
4470
C890
8890
10F0
2120
2110
4130
81E0
ENDCHAR
STARTCHAR uni2190
ENCODING 8592
SWIDTH 593 0
DWIDTH 12 0
BBX 11 11 0 0
BITMAP
0400
0C00
1800
3000
6000
FFE0
6000
3000
1800
0C00
0400
ENDCHAR
STARTCHAR arrowup
ENCODING 8593
SWIDTH 593 0
DWIDTH 12 0
BBX 10 11 1 -1
BITMAP
0800
1E00
3F00
6D80
CCC0
8C40
0C00
0C00
0C00
0C00
0C00
ENDCHAR
STARTCHAR uni2192
ENCODING 8594
SWIDTH 593 0
DWIDTH 12 0
BBX 11 11 0 0
BITMAP
0400
0200
0100
0080
0060
FFE0
0060
0080
0100
0200
0400
ENDCHAR
STARTCHAR arrowdown
ENCODING 8595
SWIDTH 593 0
DWIDTH 12 0
BBX 10 11 1 -1
BITMAP
0C00
0C00
0C00
0C00
0C00
8C40
CCC0
6D80
3F00
1C00
0800
ENDCHAR
STARTCHAR partialdiff
ENCODING 8706
SWIDTH 519 0
DWIDTH 10 0
BBX 10 13 0 0
BITMAP
0F00
0880
00C0
00C0
00C0
1EC0
31C0
6180
4180
C180
C300
6600
3C00
ENDCHAR
STARTCHAR uni2206
ENCODING 8710
SWIDTH 565 0
DWIDTH 11 0
BBX 10 13 0 0
BITMAP
0300
0300
0580
0580
0980
1980
1080
3080
2080
6080
40C0
C0C0
FFC0
ENDCHAR
STARTCHAR product
ENCODING 8719
SWIDTH 646 0
DWIDTH 13 0
BBX 9 15 2 -2
BITMAP
FF80
8080
8080
8080
8080
8080
8080
8080
8080
8080
8080
8080
8080
8080
8080
ENDCHAR
STARTCHAR summation
ENCODING 8721
SWIDTH 485 0
DWIDTH 10 0
BBX 9 15 1 -2
BITMAP
FF00
C000
6000
2000
3000
1800
0800
0C00
1800
1000
3000
6000
6000
C000
FF80
ENDCHAR
STARTCHAR minus
ENCODING 8722
SWIDTH 480 0
DWIDTH 10 0
BBX 8 1 1 6
BITMAP
FF
ENDCHAR
STARTCHAR uni2215
ENCODING 8725
SWIDTH 84 0
DWIDTH 2 0
BBX 11 14 -4 0
BITMAP
0060
0080
0080
0100
0200
0200
0400
0800
0800
1000
2000
2000
4000
8000
ENDCHAR
STARTCHAR uni2219
ENCODING 8729
SWIDTH 244 0
DWIDTH 5 0
BBX 2 2 2 6
BITMAP
C0
C0
ENDCHAR
STARTCHAR radical
ENCODING 8730
SWIDTH 537 0
DWIDTH 11 0
BBX 12 18 1 -2
BITMAP
0010
0030
0020
0020
0040
0040
0080
0080
0100
6100
A100
2200
2200
3400
1400
1800
1800
1000
ENDCHAR
STARTCHAR infinity
ENCODING 8734
SWIDTH 752 0
DWIDTH 15 0
BBX 13 7 1 3
BITMAP
70F0
8D18
8608
8608
8608
CB18
70F0
ENDCHAR
STARTCHAR integral
ENCODING 8747
SWIDTH 321 0
DWIDTH 6 0
BBX 9 19 -1 -3
BITMAP
0380
0200
0400
0400
0400
0C00
0C00
0C00
0C00
0800
0800
0800
0800
0800
1800
1800
1000
3000
E000
ENDCHAR
STARTCHAR approxequal
ENCODING 8776
SWIDTH 480 0
DWIDTH 10 0
BBX 8 7 1 3
BITMAP
70
99
0E
00
70
99
0E
ENDCHAR
STARTCHAR notequal
ENCODING 8800
SWIDTH 480 0
DWIDTH 10 0
BBX 8 11 1 1
BITMAP
01
02
04
FF
08
18
10
FF
20
40
C0
ENDCHAR
STARTCHAR lessequal
ENCODING 8804
SWIDTH 480 0
DWIDTH 10 0
BBX 8 11 1 0
BITMAP
01
07
1C
E0
C0
38
0F
01
00
00
FF
ENDCHAR
STARTCHAR greaterequal
ENCODING 8805
SWIDTH 480 0
DWIDTH 10 0
BBX 8 11 1 0
BITMAP
80
E0
38
07
03
1C
F0
80
00
00
FF
ENDCHAR
STARTCHAR uni231C
ENCODING 8988
SWIDTH 292 0
DWIDTH 6 0
BBX 6 14 1 0
BITMAP
3C
20
20
20
20
60
40
40
40
40
C0
80
80
80
ENDCHAR
STARTCHAR uni231D
ENCODING 8989
SWIDTH 293 0
DWIDTH 6 0
BBX 4 14 2 0
BITMAP
F0
20
20
20
20
20
40
40
40
40
40
80
80
80
ENDCHAR
STARTCHAR uni231E
ENCODING 8990
SWIDTH 292 0
DWIDTH 6 0
BBX 4 14 1 -1
BITMAP
30
20
20
20
60
40
40
40
40
C0
80
80
80
E0
ENDCHAR
STARTCHAR uni231F
ENCODING 8991
SWIDTH 293 0
DWIDTH 6 0
BBX 7 14 -1 -1
BITMAP
06
04
04
04
04
0C
08
08
08
08
18
10
10
F0
ENDCHAR
STARTCHAR uni25A0
ENCODING 9632
SWIDTH 895 0
DWIDTH 18 0
BBX 16 16 1 -1
BITMAP
FFFF
FFFF
FFFF
FFFF
FFFF
FFFF
FFFF
FFFF
FFFF
FFFF
FFFF
FFFF
FFFF
FFFF
FFFF
FFFF
ENDCHAR
STARTCHAR triagup
ENCODING 9650
SWIDTH 895 0
DWIDTH 18 0
BBX 16 17 1 -1
BITMAP
0080
0080
01C0
01C0
03C0
03E0
07E0
07F0
0FF0
0FF8
1FF8
1FFC
3FFC
3FFE
3FFE
7FFF
FFFF
ENDCHAR
STARTCHAR uni25B3
ENCODING 9651
SWIDTH 895 0
DWIDTH 18 0
BBX 16 17 1 -1
BITMAP
0100
0080
0180
01C0
0340
0260
0620
0430
0C10
0818
1808
100C
1004
2006
2002
6003
FFFF
ENDCHAR
STARTCHAR uni25B6
ENCODING 9654
SWIDTH 895 0
DWIDTH 18 0
BBX 17 16 1 -1
BITMAP
800000
E00000
F80000
FF0000
FFC000
FFF000
FFFC00
FFFF00
FFFF80
FFFC00
FFF000
FFC000
FF0000
F80000
E00000
800000
ENDCHAR
STARTCHAR uni25B7
ENCODING 9655
SWIDTH 895 0
DWIDTH 18 0
BBX 17 16 1 -1
BITMAP
800000
E00000
980000
870000
81C000
807000
801C00
800700
800780
801C00
807000
81C000
870000
980000
E00000
800000
ENDCHAR
STARTCHAR triagdn
ENCODING 9660
SWIDTH 895 0
DWIDTH 18 0
BBX 16 17 1 -2
BITMAP
FFFF
7FFF
3FFE
3FFE
3FFC
1FFC
1FF8
0FF8
0FF0
07F0
07E0
03E0
03C0
01C0
01C0
0080
0080
ENDCHAR
STARTCHAR uni25BD
ENCODING 9661
SWIDTH 895 0
DWIDTH 18 0
BBX 16 17 1 -2
BITMAP
FFFF
6003
2002
2006
1004
100C
1808
0818
0C10
0430
0620
0260
0340
01C0
0180
0080
0100
ENDCHAR
STARTCHAR uni25C0
ENCODING 9664
SWIDTH 895 0
DWIDTH 18 0
BBX 16 16 1 -1
BITMAP
0001
0007
001F
007F
01FF
07FF
1FFF
7FFF
FFFF
1FFF
07FF
01FF
007F
001F
0007
0001
ENDCHAR
STARTCHAR uni25C1
ENCODING 9665
SWIDTH 895 0
DWIDTH 18 0
BBX 16 16 1 -1
BITMAP
0001
0007
001D
0071
01C1
0701
1C01
6001
E001
1C01
0701
01C1
0071
001D
0007
0001
ENDCHAR
STARTCHAR uni25C6
ENCODING 9670
SWIDTH 895 0
DWIDTH 18 0
BBX 17 17 1 -2
BITMAP
008000
01C000
03E000
07F000
0FF800
1FFC00
3FFE00
7FFF00
FFFF80
7FFF00
3FFE00
1FFC00
0FF800
07F000
03E000
01C000
008000
ENDCHAR
STARTCHAR uni25C9
ENCODING 9673
SWIDTH 895 0
DWIDTH 18 0
BBX 17 16 1 -1
BITMAP
07E000
1C1800
300400
63E200
47F100
CFF900
9FF900
9FF980
9FF980
9FF900
CFF900
4FF100
67E200
300600
1C1800
07E000
ENDCHAR
STARTCHAR lozenge
ENCODING 9674
SWIDTH 499 0
DWIDTH 10 0
BBX 8 13 1 0
BITMAP
18
14
34
26
62
43
C1
43
62
26
34
14
18
ENDCHAR
STARTCHAR uni2610
ENCODING 9744
SWIDTH 765 0
DWIDTH 15 0
BBX 13 13 1 0
BITMAP
7FF8
8018
8018
8018
8018
8018
8018
8018
8018
8018
8018
8018
FFF0
ENDCHAR
STARTCHAR uni2611
ENCODING 9745
SWIDTH 766 0
DWIDTH 15 0
BBX 15 15 1 0
BITMAP
0006
000C
7FF8
8038
8078
8058
8098
B118
9118
9A18
8E18
8C18
8818
8018
FFF0
ENDCHAR
STARTCHAR uni266A
ENCODING 9834
SWIDTH 480 0
DWIDTH 10 0
BBX 8 15 1 -1
BITMAP
08
0C
0E
0F
09
09
09
09
08
08
08
78
F8
F0
E0
ENDCHAR
STARTCHAR uni2713
ENCODING 10003
SWIDTH 542 0
DWIDTH 11 0
BBX 13 14 0 0
BITMAP
0010
0018
0020
0040
0080
0180
0300
0200
8400
CC00
4800
5000
5000
6000
ENDCHAR
STARTCHAR uni2752
ENCODING 10066
SWIDTH 895 0
DWIDTH 18 0
BBX 16 16 1 -1
BITMAP
7FFF
8001
8001
8001
8001
8001
8001
8001
8001
8001
8001
8001
8001
8001
8001
FFFF
ENDCHAR
STARTCHAR uni2E22
ENCODING 11810
SWIDTH 292 0
DWIDTH 6 0
BBX 5 9 2 5
BITMAP
78
60
40
40
40
40
C0
80
80
ENDCHAR
STARTCHAR uni2E23
ENCODING 11811
SWIDTH 293 0
DWIDTH 6 0
BBX 4 9 2 5
BITMAP
F0
30
20
20
20
20
60
40
40
ENDCHAR
STARTCHAR uni2E24
ENCODING 11812
SWIDTH 292 0
DWIDTH 6 0
BBX 4 9 0 -3
BITMAP
20
20
60
40
40
40
40
C0
F0
ENDCHAR
STARTCHAR uni2E25
ENCODING 11813
SWIDTH 293 0
DWIDTH 6 0
BBX 5 9 -1 -3
BITMAP
08
08
08
18
10
10
10
10
F0
ENDCHAR
STARTCHAR f_f
ENCODING 64256
SWIDTH 552 0
DWIDTH 11 0
BBX 12 14 1 0
BITMAP
0E70
10C0
3080
2180
FFE0
6100
6100
6300
4300
4300
4200
C200
C200
8600
ENDCHAR
STARTCHAR fi
ENCODING 64257
SWIDTH 519 0
DWIDTH 10 0
BBX 10 14 1 0
BITMAP
1EC0
1080
3000
2000
F980
6100
6100
6100
4300
4300
4200
C200
C200
8600
ENDCHAR
STARTCHAR fl
ENCODING 64258
SWIDTH 530 0
DWIDTH 11 0
BBX 10 14 1 0
BITMAP
1EC0
1080
3080
2180
F980
6180
6100
6100
4300
4300
4300
C200
C200
8300
ENDCHAR
STARTCHAR uniFEFF
ENCODING 65279
SWIDTH 0 0
DWIDTH 0 0
BBX 1 1 0 0
BITMAP
00
ENDCHAR
STARTCHAR .notdef
ENCODING -1
SWIDTH 628 0
DWIDTH 13 0
BBX 11 13 1 0
BITMAP
3FE0
3860
28A0
29A0
6960
6640
4640
4A40
5A40
F3C0
A380
C180
FF80
ENDCHAR
STARTCHAR uni00470303
ENCODING -1
SWIDTH 588 0
DWIDTH 12 0
BBX 11 16 1 0
BITMAP
0F20
09C0
0000
0780
1840
3000
6000
4000
C000
C3C0
C4C0
C080
C080
4080
6180
1E00
ENDCHAR
STARTCHAR uni00670303
ENCODING -1
SWIDTH 531 0
DWIDTH 11 0
BBX 10 18 0 -4
BITMAP
0400
0A40
1180
0000
0E40
19C0
3080
6080
6080
4180
4180
4100
6300
3D00
0300
0200
C600
7C00
ENDCHAR
STARTCHAR iogonek.d
ENCODING -1
SWIDTH 237 0
DWIDTH 5 0
BBX 5 14 -1 -4
BITMAP
18
18
18
10
10
30
30
30
20
20
40
40
80
E0
ENDCHAR
STARTCHAR f_t
ENCODING -1
SWIDTH 561 0
DWIDTH 11 0
BBX 11 14 1 0
BITMAP
1E00
1180
3100
2100
FFE0
6300
6300
6200
4200
4600
4600
C600
C600
8380
ENDCHAR
STARTCHAR I.a
ENCODING -1
SWIDTH 324 0
DWIDTH 6 0
BBX 7 13 0 0
BITMAP
3E
08
08
18
18
18
10
10
30
30
30
20
F8
ENDCHAR
STARTCHAR Igrave.a
ENCODING -1
SWIDTH 324 0
DWIDTH 6 0
BBX 7 18 0 0
BITMAP
10
18
0C
04
00
3E
08
08
18
18
18
10
10
30
30
30
20
F8
ENDCHAR
STARTCHAR Iacute.a
ENCODING -1
SWIDTH 324 0
DWIDTH 6 0
BBX 8 17 0 0
BITMAP
03
06
08
00
3E
08
08
18
18
18
10
10
30
30
30
20
F8
ENDCHAR
STARTCHAR Icircumflex.a
ENCODING -1
SWIDTH 324 0
DWIDTH 6 0
BBX 8 17 0 0
BITMAP
0E
1A
21
00
3E
08
08
18
18
18
10
10
30
30
30
20
F8
ENDCHAR
STARTCHAR Itilde.a
ENCODING -1
SWIDTH 324 0
DWIDTH 6 0
BBX 9 16 0 0
BITMAP
3D80
2700
4000
3E00
0800
0800
1800
1800
1800
1000
1000
3000
3000
3000
2000
F800
ENDCHAR
STARTCHAR Idieresis.a
ENCODING -1
SWIDTH 324 0
DWIDTH 6 0
BBX 8 16 0 0
BITMAP
33
00
00
3E
08
08
18
18
18
10
10
30
30
30
20
F8
ENDCHAR
STARTCHAR Imacron.a
ENCODING -1
SWIDTH 324 0
DWIDTH 6 0
BBX 8 16 0 0
BITMAP
3F
00
00
3E
08
08
18
18
18
10
10
30
30
30
20
F8
ENDCHAR
STARTCHAR Idotaccent.a
ENCODING -1
SWIDTH 324 0
DWIDTH 6 0
BBX 7 15 0 0
BITMAP
0C
00
3E
08
08
18
18
18
10
10
30
30
30
20
F8
ENDCHAR
STARTCHAR uni01CF.a
ENCODING -1
SWIDTH 324 0
DWIDTH 6 0
BBX 8 17 0 0
BITMAP
21
12
0C
00
3E
08
08
18
18
18
10
10
30
30
30
20
F8
ENDCHAR
STARTCHAR uni1EC8.a
ENCODING -1
SWIDTH 324 0
DWIDTH 6 0
BBX 7 17 0 0
BITMAP
0C
06
04
18
3E
08
08
18
18
18
10
10
30
30
30
20
F8
ENDCHAR
STARTCHAR uni1ECA.a
ENCODING -1
SWIDTH 324 0
DWIDTH 6 0
BBX 7 16 0 -3
BITMAP
3E
08
08
18
18
18
10
10
30
30
30
20
F8
00
00
60
ENDCHAR
STARTCHAR Iogonek.a
ENCODING -1
SWIDTH 324 0
DWIDTH 6 0
BBX 7 17 0 -4
BITMAP
3E
08
08
18
18
18
10
10
30
30
30
20
F8
40
80
80
E0
ENDCHAR
STARTCHAR a.a
ENCODING -1
SWIDTH 492 0
DWIDTH 10 0
BBX 8 10 1 0
BITMAP
3E
43
03
03
3F
62
82
86
8E
F6
ENDCHAR
STARTCHAR agrave.a
ENCODING -1
SWIDTH 492 0
DWIDTH 10 0
BBX 8 16 1 0
BITMAP
08
1C
04
06
00
00
3E
43
03
03
3F
62
82
86
8E
F6
ENDCHAR
STARTCHAR aacute.a
ENCODING -1
SWIDTH 492 0
DWIDTH 10 0
BBX 8 16 1 0
BITMAP
01
03
06
08
00
00
3E
43
03
03
3F
62
82
86
8E
F6
ENDCHAR
STARTCHAR acircumflex.a
ENCODING -1
SWIDTH 492 0
DWIDTH 10 0
BBX 8 15 1 0
BITMAP
0E
1B
31
00
00
3E
43
03
03
3F
62
82
86
8E
F6
ENDCHAR
STARTCHAR atilde.a
ENCODING -1
SWIDTH 492 0
DWIDTH 10 0
BBX 9 14 1 0
BITMAP
1000
3C80
2300
0000
3E00
4300
0300
0300
3F00
6200
8200
8600
8E00
F600
ENDCHAR
STARTCHAR adieresis.a
ENCODING -1
SWIDTH 492 0
DWIDTH 10 0
BBX 8 13 1 0
BITMAP
13
00
00
3E
43
03
03
3F
62
82
86
8E
F6
ENDCHAR
STARTCHAR amacron.a
ENCODING -1
SWIDTH 492 0
DWIDTH 10 0
BBX 8 13 1 0
BITMAP
1F
00
00
3E
43
03
03
3F
62
82
86
8E
F6
ENDCHAR
STARTCHAR abreve.a
ENCODING -1
SWIDTH 492 0
DWIDTH 10 0
BBX 9 14 1 0
BITMAP
1080
1100
1E00
0000
3E00
4300
0300
0300
3F00
6200
8200
8600
8E00
F600
ENDCHAR
STARTCHAR aring.a
ENCODING -1
SWIDTH 492 0
DWIDTH 10 0
BBX 8 15 1 0
BITMAP
0E
1B
12
0E
00
3E
43
03
03
3F
62
82
86
8E
F6
ENDCHAR
STARTCHAR uni01CE.a
ENCODING -1
SWIDTH 492 0
DWIDTH 10 0
BBX 9 15 1 0
BITMAP
3180
1A00
0C00
0000
0000
3E00
4300
0300
0300
3F00
6200
8200
8600
8E00
F600
ENDCHAR
STARTCHAR uni1EA1.a
ENCODING -1
SWIDTH 492 0
DWIDTH 10 0
BBX 8 13 1 -3
BITMAP
3E
43
03
03
3F
62
82
86
8E
F6
00
00
70
ENDCHAR
STARTCHAR uni1EA3.a
ENCODING -1
SWIDTH 492 0
DWIDTH 10 0
BBX 8 15 1 0
BITMAP
06
0A
06
08
00
3E
43
03
03
3F
62
82
86
8E
F6
ENDCHAR
STARTCHAR uni1EA5.a
ENCODING -1
SWIDTH 492 0
DWIDTH 10 0
BBX 10 16 1 0
BITMAP
0040
00C0
0F80
1B00
2200
0000
3E00
4300
0300
0300
3F00
6200
8200
8600
8E00
F600
ENDCHAR
STARTCHAR uni1EA7.a
ENCODING -1
SWIDTH 492 0
DWIDTH 10 0
BBX 8 16 1 0
BITMAP
40
60
2E
1B
22
00
3E
43
03
03
3F
62
82
86
8E
F6
ENDCHAR
STARTCHAR uni1EA9.a
ENCODING -1
SWIDTH 492 0
DWIDTH 10 0
BBX 10 16 1 0
BITMAP
0080
0140
0E80
1B00
2200
0000
3E00
4300
0300
0300
3F00
6200
8200
8600
8E00
F600
ENDCHAR
STARTCHAR uni1EAB.a
ENCODING -1
SWIDTH 492 0
DWIDTH 10 0
BBX 9 16 1 0
BITMAP
0C80
1300
0E00
1B00
0000
0000
3E00
4300
0300
0300
3F00
6200
8200
8600
8E00
F600
ENDCHAR
STARTCHAR uni1EAD.a
ENCODING -1
SWIDTH 492 0
DWIDTH 10 0
BBX 8 18 1 -3
BITMAP
0E
1B
31
00
00
3E
43
03
03
3F
62
82
86
8E
F6
00
00
30
ENDCHAR
STARTCHAR uni1EAF.a
ENCODING -1
SWIDTH 492 0
DWIDTH 10 0
BBX 9 17 1 0
BITMAP
0100
0200
0400
1080
1100
1E00
0000
3E00
4300
0300
0300
3F00
6200
8200
8600
8E00
F600
ENDCHAR
STARTCHAR uni1EB1.a
ENCODING -1
SWIDTH 492 0
DWIDTH 10 0
BBX 9 17 1 0
BITMAP
0800
0400
0400
1280
1100
1E00
0000
3E00
4300
0300
0300
3F00
6200
8200
8600
8E00
F600
ENDCHAR
STARTCHAR uni1EB3.a
ENCODING -1
SWIDTH 492 0
DWIDTH 10 0
BBX 9 17 1 0
BITMAP
0600
0200
0600
1080
1100
1E00
0000
3E00
4300
0300
0300
3F00
6200
8200
8600
8E00
F600
ENDCHAR
STARTCHAR uni1EB5.a
ENCODING -1
SWIDTH 492 0
DWIDTH 10 0
BBX 9 16 1 0
BITMAP
0C80
1700
0000
1100
1E00
0000
3E00
4300
0300
0300
3F00
6200
8200
8600
8E00
F600
ENDCHAR
STARTCHAR uni1EB7.a
ENCODING -1
SWIDTH 492 0
DWIDTH 10 0
BBX 9 17 1 -3
BITMAP
1080
1100
1E00
0000
3E00
4300
0300
0300
3F00
6200
8200
8600
8E00
F600
0000
0000
3000
ENDCHAR
STARTCHAR aogonek.a
ENCODING -1
SWIDTH 492 0
DWIDTH 10 0
BBX 8 14 1 -4
BITMAP
3E
43
03
03
3F
62
82
86
8E
F6
08
10
10
1C
ENDCHAR
STARTCHAR g.a
ENCODING -1
SWIDTH 477 0
DWIDTH 10 0
BBX 10 14 0 -4
BITMAP
0FC0
3100
2100
2100
2100
2300
1C00
2000
6000
3E00
C300
8300
8200
7C00
ENDCHAR
STARTCHAR gcircumflex.a
ENCODING -1
SWIDTH 477 0
DWIDTH 10 0
BBX 10 19 0 -4
BITMAP
0700
0D00
1080
0000
0000
0FC0
3100
2100
2100
2100
2300
1C00
2000
6000
3E00
C300
8300
8200
7C00
ENDCHAR
STARTCHAR gbreve.a
ENCODING -1
SWIDTH 477 0
DWIDTH 10 0
BBX 10 18 0 -4
BITMAP
1080
1980
0F00
0000
0FC0
3100
2100
2100
2100
2300
1C00
2000
6000
3E00
C300
8300
8200
7C00
ENDCHAR
STARTCHAR gdotaccent.a
ENCODING -1
SWIDTH 477 0
DWIDTH 10 0
BBX 10 18 0 -4
BITMAP
0600
0000
0000
0000
0FC0
3100
2100
2100
2100
2300
1C00
2000
6000
3E00
C300
8300
8200
7C00
ENDCHAR
STARTCHAR uni0123.a
ENCODING -1
SWIDTH 477 0
DWIDTH 10 0
BBX 10 19 0 -4
BITMAP
0300
0400
0400
0600
0000
0FC0
3100
2100
2100
2100
2300
1C00
2000
6000
3E00
C300
8300
8200
7C00
ENDCHAR
STARTCHAR gcaron.a
ENCODING -1
SWIDTH 477 0
DWIDTH 10 0
BBX 10 19 0 -4
BITMAP
1080
0B00
0600
0000
0000
0FC0
3100
2100
2100
2100
2300
1C00
2000
6000
3E00
C300
8300
8200
7C00
ENDCHAR
STARTCHAR uni1E21.a
ENCODING -1
SWIDTH 477 0
DWIDTH 10 0
BBX 10 17 0 -4
BITMAP
1F80
0000
0000
0FC0
3100
2100
2100
2100
2300
1C00
2000
6000
3E00
C300
8300
8200
7C00
ENDCHAR
STARTCHAR uni00670303.a
ENCODING -1
SWIDTH 477 0
DWIDTH 10 0
BBX 10 18 0 -4
BITMAP
0800
1EC0
1380
0000
0FC0
3100
2100
2100
2100
2300
1C00
2000
6000
3E00
C300
8300
8200
7C00
ENDCHAR
STARTCHAR l.a
ENCODING -1
SWIDTH 238 0
DWIDTH 5 0
BBX 4 14 1 0
BITMAP
30
30
20
20
20
60
60
40
40
40
C0
C0
80
80
ENDCHAR
STARTCHAR lacute.a
ENCODING -1
SWIDTH 238 0
DWIDTH 5 0
BBX 7 18 1 0
BITMAP
04
1E
30
00
30
30
20
20
20
60
60
40
40
40
C0
C0
80
80
ENDCHAR
STARTCHAR lcaron.a
ENCODING -1
SWIDTH 242 0
DWIDTH 5 0
BBX 6 15 1 0
BITMAP
04
34
34
28
20
20
60
60
40
40
40
C0
C0
80
80
ENDCHAR
STARTCHAR ldot.a
ENCODING -1
SWIDTH 331 0
DWIDTH 7 0
BBX 6 14 1 0
BITMAP
30
30
20
20
20
60
6C
4C
40
40
C0
C0
80
80
ENDCHAR
STARTCHAR uni013C.a
ENCODING -1
SWIDTH 238 0
DWIDTH 5 0
BBX 6 19 -1 -5
BITMAP
0C
0C
08
08
08
18
18
10
10
10
30
30
20
20
00
60
20
30
C0
ENDCHAR
STARTCHAR uni1E37.a
ENCODING -1
SWIDTH 238 0
DWIDTH 5 0
BBX 5 17 0 -3
BITMAP
18
18
10
10
10
30
30
20
20
20
60
60
40
40
00
00
C0
ENDCHAR
STARTCHAR uni1E39.a
ENCODING -1
SWIDTH 238 0
DWIDTH 5 0
BBX 7 20 0 -3
BITMAP
3E
00
00
18
18
10
10
10
30
30
20
20
20
60
60
40
40
00
00
C0
ENDCHAR
STARTCHAR uni1E3B.a
ENCODING -1
SWIDTH 238 0
DWIDTH 5 0
BBX 7 17 -2 -3
BITMAP
06
06
04
04
04
0C
0C
08
08
08
18
18
10
10
00
00
FC
ENDCHAR
STARTCHAR lslash.a
ENCODING -1
SWIDTH 246 0
DWIDTH 5 0
BBX 6 14 0 0
BITMAP
18
18
18
10
18
3C
30
E0
20
20
60
60
60
40
ENDCHAR
STARTCHAR zero.pnum
ENCODING -1
SWIDTH 504 0
DWIDTH 10 0
BBX 9 13 1 0
BITMAP
0E00
3300
2100
4180
4180
C180
C100
8100
8300
8300
C600
4400
7800
ENDCHAR
STARTCHAR one.pnum
ENCODING -1
SWIDTH 340 0
DWIDTH 7 0
BBX 4 13 2 0
BITMAP
30
F0
30
20
20
60
60
60
40
40
C0
C0
C0
ENDCHAR
STARTCHAR two.pnum
ENCODING -1
SWIDTH 467 0
DWIDTH 9 0
BBX 9 13 0 0
BITMAP
1F00
3100
0180
0180
0180
0100
0300
0600
0C00
1800
3000
6000
FF00
ENDCHAR
STARTCHAR three.pnum
ENCODING -1
SWIDTH 461 0
DWIDTH 9 0
BBX 9 13 0 0
BITMAP
1F00
3180
0180
0180
0180
0300
1C00
0300
0100
0100
8300
C600
7C00
ENDCHAR
STARTCHAR four.pnum
ENCODING -1
SWIDTH 485 0
DWIDTH 10 0
BBX 9 13 0 0
BITMAP
0180
0380
0780
0D00
0900
1100
3300
6300
FF80
0200
0200
0600
0600
ENDCHAR
STARTCHAR five.pnum
ENCODING -1
SWIDTH 461 0
DWIDTH 9 0
BBX 9 13 0 0
BITMAP
1F80
1000
1000
3000
3000
3E00
2300
0100
0100
0100
8300
C600
7C00
ENDCHAR
STARTCHAR six.pnum
ENCODING -1
SWIDTH 480 0
DWIDTH 10 0
BBX 9 13 1 0
BITMAP
0F00
1180
2000
6000
4000
DC00
E200
8300
8300
C300
C200
4600
3800
ENDCHAR
STARTCHAR seven.pnum
ENCODING -1
SWIDTH 456 0
DWIDTH 9 0
BBX 8 13 2 0
BITMAP
FF
06
04
08
18
10
30
20
60
60
40
C0
C0
ENDCHAR
STARTCHAR eight.pnum
ENCODING -1
SWIDTH 480 0
DWIDTH 10 0
BBX 8 13 1 0
BITMAP
1E
31
21
21
33
1E
7C
C6
83
83
83
C6
7C
ENDCHAR
STARTCHAR nine.pnum
ENCODING -1
SWIDTH 480 0
DWIDTH 10 0
BBX 9 13 0 0
BITMAP
0E00
1100
2180
2080
6080
2080
3180
1F80
0100
0100
0200
4600
F800
ENDCHAR
STARTCHAR zero.tnum
ENCODING -1
SWIDTH 480 0
DWIDTH 10 0
BBX 8 11 1 0
BITMAP
1E
23
63
41
C1
83
83
82
86
CC
78
ENDCHAR
STARTCHAR one.tnum
ENCODING -1
SWIDTH 480 0
DWIDTH 10 0
BBX 7 11 1 0
BITMAP
0C
3C
0C
08
08
18
18
18
10
10
FE
ENDCHAR
STARTCHAR two.tnum
ENCODING -1
SWIDTH 480 0
DWIDTH 10 0
BBX 9 11 0 0
BITMAP
1E00
2100
0180
0180
0100
0300
0600
0C00
3000
6000
FF00
ENDCHAR
STARTCHAR three.tnum
ENCODING -1
SWIDTH 480 0
DWIDTH 10 0
BBX 9 13 0 -2
BITMAP
1F00
3180
0180
0180
0180
0300
1C00
0600
0300
0100
8300
C600
7C00
ENDCHAR
STARTCHAR four.tnum
ENCODING -1
SWIDTH 480 0
DWIDTH 10 0
BBX 9 13 0 -2
BITMAP
0180
0300
0500
0D00
1B00
3300
6200
4200
FF80
0600
0600
0400
0400
ENDCHAR
STARTCHAR five.tnum
ENCODING -1
SWIDTH 480 0
DWIDTH 10 0
BBX 9 13 0 -2
BITMAP
1F80
1000
3000
3000
2000
3E00
4300
0300
0100
0100
8300
C600
7C00
ENDCHAR
STARTCHAR six.tnum
ENCODING -1
SWIDTH 480 0
DWIDTH 10 0
BBX 9 13 1 0
BITMAP
0F00
1180
2000
6000
4000
DC00
E200
8300
8300
C300
C200
4600
3800
ENDCHAR
STARTCHAR seven.tnum
ENCODING -1
SWIDTH 480 0
DWIDTH 10 0
BBX 8 13 2 -2
BITMAP
FF
06
04
08
18
10
30
20
60
40
40
C0
C0
ENDCHAR
STARTCHAR eight.tnum
ENCODING -1
SWIDTH 480 0
DWIDTH 10 0
BBX 8 13 1 0
BITMAP
1E
31
21
21
33
1E
7C
C6
83
83
83
C6
7C
ENDCHAR
STARTCHAR nine.tnum
ENCODING -1
SWIDTH 480 0
DWIDTH 10 0
BBX 9 13 0 -2
BITMAP
1E00
3100
2180
6180
4180
6180
6380
3D00
0100
0300
0200
C400
7800
ENDCHAR
STARTCHAR zero.onum
ENCODING -1
SWIDTH 480 0
DWIDTH 10 0
BBX 8 11 1 0
BITMAP
1E
23
63
41
C1
83
83
82
86
CC
78
ENDCHAR
STARTCHAR one.onum
ENCODING -1
SWIDTH 342 0
DWIDTH 7 0
BBX 4 11 2 0
BITMAP
30
E0
20
60
60
60
40
40
C0
C0
C0
ENDCHAR
STARTCHAR two.onum
ENCODING -1
SWIDTH 462 0
DWIDTH 9 0
BBX 8 11 0 0
BITMAP
1E
23
01
01
01
03
06
0C
30
60
FF
ENDCHAR
STARTCHAR three.onum
ENCODING -1
SWIDTH 480 0
DWIDTH 10 0
BBX 9 13 0 -2
BITMAP
1F00
3180
0180
0180
0180
0300
1C00
0600
0300
0100
8300
C600
7C00
ENDCHAR
STARTCHAR four.onum
ENCODING -1
SWIDTH 480 0
DWIDTH 10 0
BBX 9 13 0 -2
BITMAP
0180
0300
0500
0D00
1B00
3300
6200
4200
FF80
0600
0600
0400
0400
ENDCHAR
STARTCHAR five.onum
ENCODING -1
SWIDTH 480 0
DWIDTH 10 0
BBX 9 13 0 -2
BITMAP
1F80
1000
3000
3000
2000
3E00
4300
0300
0100
0100
8300
C600
7C00
ENDCHAR
STARTCHAR six.onum
ENCODING -1
SWIDTH 480 0
DWIDTH 10 0
BBX 9 13 1 0
BITMAP
0F00
1180
2000
6000
4000
DC00
E200
8300
8300
C300
C200
4600
3800
ENDCHAR
STARTCHAR seven.onum
ENCODING -1
SWIDTH 456 0
DWIDTH 9 0
BBX 8 13 2 -2
BITMAP
FF
06
0C
18
10
30
20
60
40
40
C0
C0
80
ENDCHAR
STARTCHAR eight.onum
ENCODING -1
SWIDTH 480 0
DWIDTH 10 0
BBX 8 13 1 0
BITMAP
1E
31
21
21
33
1E
7C
C6
83
83
83
C6
7C
ENDCHAR
STARTCHAR nine.onum
ENCODING -1
SWIDTH 480 0
DWIDTH 10 0
BBX 9 13 0 -2
BITMAP
1E00
3100
2180
6180
4180
6180
6380
3D00
0100
0300
0200
C400
7800
ENDCHAR
STARTCHAR at.case
ENCODING -1
SWIDTH 802 0
DWIDTH 16 0
BBX 13 14 2 0
BITMAP
07E0
1C30
3018
2008
4348
C4C8
8888
8888
8888
8990
8EE0
4000
6100
1F80
ENDCHAR
STARTCHAR period.sups
ENCODING -1
SWIDTH 170 0
DWIDTH 3 0
BBX 2 1 1 8
BITMAP
C0
ENDCHAR
STARTCHAR comma.sups
ENCODING -1
SWIDTH 170 0
DWIDTH 3 0
BBX 2 4 1 5
BITMAP
40
40
40
80
ENDCHAR
STARTCHAR period.subs
ENCODING -1
SWIDTH 170 0
DWIDTH 3 0
BBX 2 1 -1 -3
BITMAP
C0
ENDCHAR
STARTCHAR comma.subs
ENCODING -1
SWIDTH 170 0
DWIDTH 3 0
BBX 2 4 -1 -6
BITMAP
C0
40
C0
80
ENDCHAR
STARTCHAR zero.dnom
ENCODING -1
SWIDTH 357 0
DWIDTH 7 0
BBX 6 8 0 0
BITMAP
38
64
44
C4
C4
C4
48
70
ENDCHAR
STARTCHAR one.dnom
ENCODING -1
SWIDTH 356 0
DWIDTH 7 0
BBX 3 7 2 1
BITMAP
E0
20
60
40
40
40
C0
ENDCHAR
STARTCHAR two.dnom
ENCODING -1
SWIDTH 353 0
DWIDTH 7 0
BBX 6 8 0 0
BITMAP
38
44
04
0C
08
30
60
F8
ENDCHAR
STARTCHAR three.dnom
ENCODING -1
SWIDTH 351 0
DWIDTH 7 0
BBX 6 8 0 0
BITMAP
38
44
0C
30
08
0C
88
70
ENDCHAR
STARTCHAR four.dnom
ENCODING -1
SWIDTH 354 0
DWIDTH 7 0
BBX 6 8 0 0
BITMAP
0C
14
18
28
48
FC
08
10
ENDCHAR
STARTCHAR five.dnom
ENCODING -1
SWIDTH 351 0
DWIDTH 7 0
BBX 6 8 0 0
BITMAP
3C
20
20
78
4C
04
88
70
ENDCHAR
STARTCHAR six.dnom
ENCODING -1
SWIDTH 353 0
DWIDTH 7 0
BBX 6 8 0 0
BITMAP
1C
24
40
78
4C
C4
48
38
ENDCHAR
STARTCHAR seven.dnom
ENCODING -1
SWIDTH 353 0
DWIDTH 7 0
BBX 6 8 1 0
BITMAP
FC
08
10
20
20
40
40
C0
ENDCHAR
STARTCHAR eight.dnom
ENCODING -1
SWIDTH 353 0
DWIDTH 7 0
BBX 6 8 0 0
BITMAP
38
64
64
28
58
8C
C8
78
ENDCHAR
STARTCHAR nine.dnom
ENCODING -1
SWIDTH 353 0
DWIDTH 7 0
BBX 6 8 0 0
BITMAP
38
44
44
44
7C
0C
88
F0
ENDCHAR
STARTCHAR parenleft.dnom
ENCODING -1
SWIDTH 227 0
DWIDTH 5 0
BBX 4 11 1 -2
BITMAP
30
20
40
C0
80
80
80
80
80
80
C0
ENDCHAR
STARTCHAR parenright.dnom
ENCODING -1
SWIDTH 226 0
DWIDTH 5 0
BBX 3 11 0 -2
BITMAP
20
20
20
20
20
20
20
60
40
80
80
ENDCHAR
STARTCHAR period.dnom
ENCODING -1
SWIDTH 170 0
DWIDTH 3 0
BBX 2 1 0 0
BITMAP
C0
ENDCHAR
STARTCHAR comma.dnom
ENCODING -1
SWIDTH 170 0
DWIDTH 3 0
BBX 3 4 -1 -3
BITMAP
60
20
40
80
ENDCHAR
STARTCHAR zero.numr
ENCODING -1
SWIDTH 357 0
DWIDTH 7 0
BBX 6 8 1 5
BITMAP
38
64
44
C4
C4
C4
48
70
ENDCHAR
STARTCHAR one.numr
ENCODING -1
SWIDTH 356 0
DWIDTH 7 0
BBX 3 7 3 6
BITMAP
E0
20
60
40
40
40
C0
ENDCHAR
STARTCHAR two.numr
ENCODING -1
SWIDTH 353 0
DWIDTH 7 0
BBX 6 8 1 5
BITMAP
38
44
04
0C
08
30
60
F8
ENDCHAR
STARTCHAR three.numr
ENCODING -1
SWIDTH 351 0
DWIDTH 7 0
BBX 6 8 1 5
BITMAP
38
44
0C
30
08
0C
88
70
ENDCHAR
STARTCHAR four.numr
ENCODING -1
SWIDTH 354 0
DWIDTH 7 0
BBX 6 8 1 5
BITMAP
0C
14
18
28
48
FC
08
10
ENDCHAR
STARTCHAR five.numr
ENCODING -1
SWIDTH 351 0
DWIDTH 7 0
BBX 6 8 1 5
BITMAP
3C
20
20
78
4C
04
88
70
ENDCHAR
STARTCHAR six.numr
ENCODING -1
SWIDTH 353 0
DWIDTH 7 0
BBX 6 8 1 5
BITMAP
1C
24
40
78
4C
C4
48
38
ENDCHAR
STARTCHAR seven.numr
ENCODING -1
SWIDTH 353 0
DWIDTH 7 0
BBX 6 8 2 5
BITMAP
FC
08
10
20
20
40
40
C0
ENDCHAR
STARTCHAR eight.numr
ENCODING -1
SWIDTH 353 0
DWIDTH 7 0
BBX 6 8 1 5
BITMAP
38
64
64
28
58
8C
C8
78
ENDCHAR
STARTCHAR nine.numr
ENCODING -1
SWIDTH 353 0
DWIDTH 7 0
BBX 6 8 1 5
BITMAP
38
44
44
44
7C
0C
88
F0
ENDCHAR
STARTCHAR parenleft.numr
ENCODING -1
SWIDTH 227 0
DWIDTH 5 0
BBX 4 11 2 3
BITMAP
30
20
40
C0
80
80
80
80
80
80
C0
ENDCHAR
STARTCHAR parenright.numr
ENCODING -1
SWIDTH 226 0
DWIDTH 5 0
BBX 3 11 1 3
BITMAP
20
20
20
20
20
20
20
60
40
80
80
ENDCHAR
STARTCHAR period.numr
ENCODING -1
SWIDTH 170 0
DWIDTH 3 0
BBX 2 1 1 5
BITMAP
C0
ENDCHAR
STARTCHAR comma.numr
ENCODING -1
SWIDTH 170 0
DWIDTH 3 0
BBX 3 4 0 2
BITMAP
60
20
40
80
ENDCHAR
STARTCHAR ordfeminine.a
ENCODING -1
SWIDTH 333 0
DWIDTH 7 0
BBX 5 6 1 8
BITMAP
78
88
78
C8
98
E8
ENDCHAR
STARTCHAR q.sups
ENCODING -1
SWIDTH 356 0
DWIDTH 7 0
BBX 6 9 1 5
BITMAP
3C
44
C4
84
CC
78
08
08
18
ENDCHAR
STARTCHAR egrave.sups
ENCODING -1
SWIDTH 323 0
DWIDTH 6 0
BBX 6 10 1 8
BITMAP
10
18
08
00
38
44
C4
FC
90
78
ENDCHAR
STARTCHAR eacute.sups
ENCODING -1
SWIDTH 323 0
DWIDTH 6 0
BBX 6 10 1 8
BITMAP
04
08
10
00
38
44
C4
FC
90
78
ENDCHAR
STARTCHAR a.supa
ENCODING -1
SWIDTH 333 0
DWIDTH 7 0
BBX 6 6 1 8
BITMAP
38
4C
38
C8
88
78
ENDCHAR
STARTCHAR g.supa
ENCODING -1
SWIDTH 324 0
DWIDTH 6 0
BBX 7 9 0 5
BITMAP
1E
24
24
38
20
38
44
C4
78
ENDCHAR
STARTCHAR l.supa
ENCODING -1
SWIDTH 164 0
DWIDTH 3 0
BBX 3 9 1 8
BITMAP
20
20
60
40
40
40
40
C0
80
ENDCHAR
STARTCHAR slash.frac
ENCODING -1
SWIDTH 84 0
DWIDTH 2 0
BBX 11 14 -4 0
BITMAP
0060
0080
0080
0100
0200
0200
0400
0800
0800
1000
2000
2000
4000
8000
ENDCHAR
STARTCHAR uni0300.cap
ENCODING -1
SWIDTH 0 0
DWIDTH 0 0
BBX 4 4 0 14
BITMAP
40
E0
20
10
ENDCHAR
STARTCHAR uni0301.cap
ENCODING -1
SWIDTH 0 0
DWIDTH 0 0
BBX 4 3 2 14
BITMAP
20
70
80
ENDCHAR
STARTCHAR uni0302.cap
ENCODING -1
SWIDTH 0 0
DWIDTH 0 0
BBX 6 3 0 14
BITMAP
30
58
8C
ENDCHAR
STARTCHAR uni0303.cap
ENCODING -1
SWIDTH 0 0
DWIDTH 0 0
BBX 7 2 -1 14
BITMAP
72
8C
ENDCHAR
STARTCHAR uni0304.cap
ENCODING -1
SWIDTH 0 0
DWIDTH 0 0
BBX 5 1 0 15
BITMAP
F8
ENDCHAR
STARTCHAR uni0306.cap
ENCODING -1
SWIDTH 0 0
DWIDTH 0 0
BBX 6 3 0 14
BITMAP
84
88
70
ENDCHAR
STARTCHAR uni0307.cap
ENCODING -1
SWIDTH 0 0
DWIDTH 0 0
BBX 2 1 2 14
BITMAP
C0
ENDCHAR
STARTCHAR uni0308.cap
ENCODING -1
SWIDTH 0 0
DWIDTH 0 0
BBX 5 1 0 15
BITMAP
C8
ENDCHAR
STARTCHAR uni0309.cap
ENCODING -1
SWIDTH 0 0
DWIDTH 0 0
BBX 3 4 1 13
BITMAP
60
A0
60
80
ENDCHAR
STARTCHAR uni030A.cap
ENCODING -1
SWIDTH 0 0
DWIDTH 0 0
BBX 4 4 1 14
BITMAP
60
90
90
E0
ENDCHAR
STARTCHAR uni030B.cap
ENCODING -1
SWIDTH 0 0
DWIDTH 0 0
BBX 6 3 1 14
BITMAP
2C
48
90
ENDCHAR
STARTCHAR uni030C.cap
ENCODING -1
SWIDTH 0 0
DWIDTH 0 0
BBX 6 3 0 14
BITMAP
84
D8
70
ENDCHAR
STARTCHAR uni030F.cap
ENCODING -1
SWIDTH 0 0
DWIDTH 0 0
BBX 6 4 -1 14
BITMAP
90
D8
48
4C
ENDCHAR
STARTCHAR uni0327.cap
ENCODING -1
SWIDTH 0 0
DWIDTH 0 0
BBX 4 5 -3 -5
BITMAP
30
30
50
30
E0
ENDCHAR
STARTCHAR uni0328.cap
ENCODING -1
SWIDTH 0 0
DWIDTH 0 0
BBX 3 4 -2 -4
BITMAP
60
80
80
E0
ENDCHAR
STARTCHAR uni03080304
ENCODING -1
SWIDTH 0 0
DWIDTH 0 0
BBX 6 4 0 12
BITMAP
7C
80
00
C8
ENDCHAR
STARTCHAR uni03080304.cap
ENCODING -1
SWIDTH 0 0
DWIDTH 0 0
BBX 6 3 0 15
BITMAP
7C
00
C8
ENDCHAR
STARTCHAR uni03080301
ENCODING -1
SWIDTH 0 0
DWIDTH 0 0
BBX 5 5 0 12
BITMAP
08
10
20
00
C8
ENDCHAR
STARTCHAR uni03080301.cap
ENCODING -1
SWIDTH 0 0
DWIDTH 0 0
BBX 6 4 0 15
BITMAP
0C
10
20
C8
ENDCHAR
STARTCHAR uni0308030C
ENCODING -1
SWIDTH 0 0
DWIDTH 0 0
BBX 6 4 0 12
BITMAP
CC
30
00
C8
ENDCHAR
STARTCHAR uni0308030C.cap
ENCODING -1
SWIDTH 0 0
DWIDTH 0 0
BBX 6 4 0 15
BITMAP
6C
30
00
C8
ENDCHAR
STARTCHAR uni03080300
ENCODING -1
SWIDTH 0 0
DWIDTH 0 0
BBX 5 5 0 12
BITMAP
20
60
10
00
C8
ENDCHAR
STARTCHAR uni03080300.cap
ENCODING -1
SWIDTH 0 0
DWIDTH 0 0
BBX 5 4 0 15
BITMAP
60
20
30
C8
ENDCHAR
STARTCHAR uni03020301
ENCODING -1
SWIDTH 0 0
DWIDTH 0 0
BBX 8 5 0 11
BITMAP
02
03
74
D8
90
ENDCHAR
STARTCHAR uni03020301.cap
ENCODING -1
SWIDTH 0 0
DWIDTH 0 0
BBX 7 4 0 14
BITMAP
02
06
38
D8
ENDCHAR
STARTCHAR uni03020300
ENCODING -1
SWIDTH 0 0
DWIDTH 0 0
BBX 7 5 -2 11
BITMAP
80
C0
5C
36
44
ENDCHAR
STARTCHAR uni03020300.cap
ENCODING -1
SWIDTH 0 0
DWIDTH 0 0
BBX 6 4 -1 14
BITMAP
80
C0
58
6C
ENDCHAR
STARTCHAR uni03020309
ENCODING -1
SWIDTH 0 0
DWIDTH 0 0
BBX 7 5 0 11
BITMAP
06
02
76
D8
90
ENDCHAR
STARTCHAR uni03020309.cap
ENCODING -1
SWIDTH 0 0
DWIDTH 0 0
BBX 7 4 0 14
BITMAP
06
02
36
D8
ENDCHAR
STARTCHAR uni03020303
ENCODING -1
SWIDTH 0 0
DWIDTH 0 0
BBX 6 4 0 12
BITMAP
64
98
70
D8
ENDCHAR
STARTCHAR uni03020303.cap
ENCODING -1
SWIDTH 0 0
DWIDTH 0 0
BBX 6 5 0 14
BITMAP
64
9C
00
30
D8
ENDCHAR
STARTCHAR uni03060301
ENCODING -1
SWIDTH 0 0
DWIDTH 0 0
BBX 6 6 0 11
BITMAP
08
18
20
84
88
70
ENDCHAR
STARTCHAR uni03060301.cap
ENCODING -1
SWIDTH 0 0
DWIDTH 0 0
BBX 6 5 0 14
BITMAP
08
10
A4
88
70
ENDCHAR
STARTCHAR uni03060300
ENCODING -1
SWIDTH 0 0
DWIDTH 0 0
BBX 6 6 0 11
BITMAP
40
20
30
84
88
70
ENDCHAR
STARTCHAR uni03060300.cap
ENCODING -1
SWIDTH 0 0
DWIDTH 0 0
BBX 6 5 0 14
BITMAP
60
20
B4
88
70
ENDCHAR
STARTCHAR uni03060309
ENCODING -1
SWIDTH 0 0
DWIDTH 0 0
BBX 6 6 0 11
BITMAP
30
18
30
84
88
70
ENDCHAR
STARTCHAR uni03060309.cap
ENCODING -1
SWIDTH 0 0
DWIDTH 0 0
BBX 6 5 0 14
BITMAP
30
18
B4
88
70
ENDCHAR
STARTCHAR uni03060303
ENCODING -1
SWIDTH 0 0
DWIDTH 0 0
BBX 6 5 0 11
BITMAP
64
98
00
8C
F0
ENDCHAR
STARTCHAR uni03060303.cap
ENCODING -1
SWIDTH 0 0
DWIDTH 0 0
BBX 6 5 0 14
BITMAP
64
9C
00
8C
78
ENDCHAR
STARTCHAR uni030C.a
ENCODING -1
SWIDTH 0 0
DWIDTH 0 0
BBX 2 4 0 11
BITMAP
40
40
40
80
ENDCHAR
STARTCHAR uni0326.a
ENCODING -1
SWIDTH 0 0
DWIDTH 0 0
BBX 3 4 1 11
BITMAP
60
80
80
C0
ENDCHAR
STARTCHAR space.frac
ENCODING -1
SWIDTH 132 0
DWIDTH 3 0
BBX 1 1 0 0
BITMAP
00
ENDCHAR
STARTCHAR nbspace.frac
ENCODING -1
SWIDTH 132 0
DWIDTH 3 0
BBX 1 1 0 0
BITMAP
00
ENDCHAR
STARTCHAR uni03020306
ENCODING -1
SWIDTH 0 0
DWIDTH 0 0
BBX 6 4 0 12
BITMAP
4C
78
70
D8
ENDCHAR
STARTCHAR uni03020306.cap
ENCODING -1
SWIDTH 0 0
DWIDTH 0 0
BBX 6 5 0 14
BITMAP
44
78
00
30
D8
ENDCHAR
STARTCHAR zero.0
ENCODING -1
SWIDTH 480 0
DWIDTH 10 0
BBX 8 13 1 0
BITMAP
1E
33
61
41
41
D9
99
9B
83
82
86
CC
78
ENDCHAR
STARTCHAR zero.0s
ENCODING -1
SWIDTH 480 0
DWIDTH 10 0
BBX 8 13 1 0
BITMAP
1E
33
61
61
51
D1
D9
8B
8F
86
86
CC
78
ENDCHAR
STARTCHAR zero.0p
ENCODING -1
SWIDTH 504 0
DWIDTH 10 0
BBX 9 13 1 0
BITMAP
0E00
3300
2100
4180
4180
C980
D900
9900
8300
8300
C600
4400
7800
ENDCHAR
STARTCHAR zero.0ps
ENCODING -1
SWIDTH 504 0
DWIDTH 10 0
BBX 9 13 1 0
BITMAP
0E00
3300
2100
6180
5180
D180
C900
8900
8700
8700
8600
4400
7800
ENDCHAR
STARTCHAR uni03040301
ENCODING -1
SWIDTH 0 0
DWIDTH 0 0
BBX 5 5 0 12
BITMAP
08
10
20
00
F8
ENDCHAR
STARTCHAR uni03040301.cap
ENCODING -1
SWIDTH 0 0
DWIDTH 0 0
BBX 6 4 0 15
BITMAP
0C
10
20
F8
ENDCHAR
ENDFONT
